<?xml version="1.0" standalone="no"?>
<!DOCTYPE svg PUBLIC "-//W3C//DTD SVG 1.1//EN" "http://www.w3.org/Graphics/SVG/1.1/DTD/svg11.dtd" >
<svg xmlns="http://www.w3.org/2000/svg">
<metadata>Generated by IcoMoon</metadata>
<defs>
<font id="icomoon" horiz-adv-x="1024">
<font-face units-per-em="1024" ascent="960" descent="-64" />
<missing-glyph horiz-adv-x="1024" />
<glyph unicode="&#x20;" horiz-adv-x="512" d="" />
<glyph unicode="&#x21;" glyph-name="bfmetvous" d="M225.2 87.1v177.8c-1.6 0.5-3.2 1-4.7 1.5-26 8.4-48.2 23.9-64 44.8-16 21.2-24.5 46.5-24.6 73.3-1.4 104.8-1.4 194.3 0 299.2 0.1 31.4 11.9 61.4 33.4 84.3 21.2 22.6 50.5 37 82.6 40.7l1.8 0.2h509.5c76.9 0 131.9-54.6 133.7-132.9v-280.3c0-38.7-12.9-72.1-37.4-96.6-24.3-24.3-57.8-37.6-96.9-38.5h-270.8c-10.7 0-17.3-1.9-25-7.3-31.2-22.5-63.4-44.9-94.6-66.4-18.4-12.8-37.5-26-56.3-39.2l-0.9-0.7-2.5-1.5-1-0.5c-10.8-5.4-18.1-9.8-26.2-15.9l-56.1-42zM253.5 746.9c-16.9-2.3-32-9.8-42.8-21.3-10.9-11.6-16.6-26.2-16.6-42.1v-0.4c-1.4-104.4-1.4-193.5 0-297.9v-0.4c0-27.5 17.5-50.2 45.7-59.3l0.3-0.1c6.8-2.3 14.9-4.6 23.9-6.9l23.3-6v-106.3c15.4 10.7 30.7 21.4 45.7 31.7 31 21.5 63 43.7 93.8 65.9l0.4 0.3c18.1 12.7 37.4 18.6 60.7 18.6h269.8c22.7 0.6 41.4 7.6 54.1 20.3 12.6 12.6 19.2 30.8 19.2 52.8v279.1c-1.2 44.4-28.7 72-71.7 72h-505.8zM579.5 534.4c-1.7 35.9-31.6 65-66.6 63.3s-64.9-32.5-63.3-66.7c1.7-35.9 31.6-63.3 66.6-63.3 35 1.8 65 32.5 63.3 66.7v0zM323.9 600.5c-35.5-1.7-64.2-30.4-64.2-65.8s30.4-64.2 65.8-64.2c37.1 0 64.2 28.7 64.2 64.2s-28.7 64.1-65.8 65.8zM701.8 599.5c-33.8 0-64.2-29.1-64.2-65s28.7-65 64.2-65c35.5-1.7 65.8 27.4 65.8 63.3 0 36-28.7 65-65.8 66.7z" />
<glyph unicode="&#x22;" glyph-name="replay2" d="M12 448c0-8.5 4.1-16.7 11.6-22.8l459.2-376.1c7.5-6.1 18.4-9.9 29.3-9.9 5.4 0 10.9 1 16 2.7 15 5.1 24.8 17 24.8 30v296.1l389-318.6c7.5-6.1 18.4-9.9 29.3-9.9 5.4 0 10.9 1 16 2.7 15 5.1 24.8 17 24.8 30v751.9c0 12.9-9.9 24.8-24.8 30v0c-15.7 5.4-33.4 2.4-45.3-7.1l-389.1-319v296.1c0 12.9-9.9 24.8-24.8 30-15.7 5.4-33.4 2.4-45.3-7.1l-459.1-376.2c-7.5-6.1-11.6-14.3-11.6-22.8zM930.7 744.1v-592.2l-361.5 296.1 361.5 296.1zM471.2 744.1v-592.2l-361.5 296.1 361.5 296.1z" />
<glyph unicode="&#x23;" glyph-name="RewindBFMTV" d="M512 786c45.7 0 89.9-8.9 131.5-26.5 40.2-17 76.4-41.4 107.5-72.5s55.4-67.2 72.5-107.5c17.6-41.6 26.5-85.8 26.5-131.5s-8.9-89.9-26.5-131.5c-17-40.2-41.4-76.4-72.5-107.5s-67.2-55.4-107.5-72.5c-41.6-17.6-85.8-26.5-131.5-26.5s-89.9 8.9-131.5 26.5c-40.2 17-76.4 41.4-107.5 72.5s-55.4 67.2-72.5 107.5c-17.6 41.6-26.5 85.8-26.5 131.5s8.9 89.9 26.5 131.5c17 40.2 41.4 76.4 72.5 107.5s67.2 55.4 107.5 72.5c41.6 17.6 85.8 26.5 131.5 26.5zM512 848c-220.9 0-400-179.1-400-400s179.1-400 400-400 400 179.1 400 400-179.1 400-400 400v0zM679.9 586.2c-9.9 5.4-22 5.1-31.6-1l-133.3-84.9v58.7c0 11.3-6.2 21.7-16.1 27.2-9.9 5.4-22 5.1-31.6-1l-178-113.3c-9-5.7-14.5-15.7-14.4-26.4s5.7-20.6 14.8-26.2l178-108.8c5-3 10.6-4.5 16.2-4.5 5.2 0 10.4 1.3 15.2 4 9.8 5.5 15.8 15.8 15.8 27v55.3l133.8-81.8c5-3 10.6-4.5 16.2-4.5 5.2 0 10.4 1.3 15.2 4 9.8 5.5 15.8 15.8 15.8 27v222c0.1 11.3-6.1 21.8-16 27.2zM453 392.2l-88.4 54 88.4 56.3v-110.3zM634 392.2l-88.4 54 88.4 56.3v-110.3z" />
<glyph unicode="&#x24;" glyph-name="event" d="M761.6 403.4h-500.3v74.3h500.2l0.1-74.3zM611.6 277.5h-350.3v-74.3h350.2l0.1 74.3zM961.9 848v-900h-899.8v900h152.9v100h74.3v-100h445.1v100h74.3v-100h153.2zM887.5 634.1h-751v-611.8h750.9z" />
<glyph unicode="&#x26;" glyph-name="CroixBFMTV" d="M555.8 448.1l278.1-278.1-43.8-43.8-278.1 278-278.1-278.1-43.8 43.8 278.1 278.1-278.1 278.1 43.8 43.8 278.1-278.1 278.1 278.1 43.8-43.8-278.1-278z" />
<glyph unicode="&#x27;" glyph-name="emissiontv" d="M22.5 831.3v-650.7h980v650.7h-980zM324 242.6c10 24.1 24.7 46.3 43.8 65.4 38.1 38.1 88.7 59 142.5 59s104.4-21 142.5-59c19-19 33.8-41.2 43.8-65.4h-372.6zM940.5 242.6h-206.3c-11.5 33.6-30.7 64.4-56.5 90.2-44.7 44.7-104.1 69.3-167.4 69.3s-122.7-24.6-167.4-69.3c-25.9-25.9-45-56.6-56.5-90.2h-201.9v526.7h856v-526.7zM331 127.2h363v-62h-363v62zM510.3 424.4c71.7 0 130.1 58.3 130.1 130.1s-58.4 130-130.1 130-130.1-58.3-130.1-130.1 58.4-130 130.1-130zM510.3 649.4c52.3 0 94.9-42.6 94.9-94.9s-42.6-94.9-94.9-94.9c-52.3 0-94.9 42.6-94.9 94.9s42.6 94.9 94.9 94.9z" />
<glyph unicode="&#x28;" glyph-name="DocBFMTV" d="M649.7 761l131.2-133.3v-492.7h-537.8v626h406.6zM675.7 823h-494.6v-750h661.8v580.1l-167.2 169.9zM332 635.4h237v-62h-237v62zM332 479.4h350v-62h-350v62zM332 322.4h350v-62h-350v62z" />
<glyph unicode="&#x29;" glyph-name="EmissionsBFMTV" d="M512 710.5c61.4 0 109.1-46.7 109.1-112.6v-20.6c0-65.9-47.7-129.5-109.1-129.5s-109.1 63.6-109.1 129.5v20.6c0 65.8 47.7 112.6 109.1 112.6zM730.9 601.4c30.9 0 65.6-22.8 65.6-70v-35c0-47.2-48-70-65.6-70-16.6 0-65.6 22.8-65.6 70v35c0.1 47.2 35.7 70 65.6 70zM293.5 601.4c30.9 0 65.6-22.8 65.6-70v-35c0-47.2-48-70-65.6-70-16.6 0-65.6 22.8-65.6 70v35c0 47.2 35.7 70 65.6 70zM599.5 426.1c7.6 0 13-3.2 25.3-10 23.2-13 37.5-26.4 47-39.5v0c5.8-8 9.6-16 11.9-24.4 0 0 0-0.1 0-0.1 1.1-3.9 1.9-8 2.4-12.1 0-0.3 0.1-0.7 0.2-1 0.5-4.4 0.8-8.8 0.8-13.4 0-0.5 0-95.8 0-96.2 0-31.8-11.4-43.8-43.8-43.8h-262.5c-32 0-43.8 12.7-43.8 43.8 0 0.4 0 95.7 0 96.2 0 4.6 0.3 9 0.8 13.4 0 0.4 0.1 0.7 0.2 1.1 0.5 4.1 1.3 8.1 2.4 12 0 0.1 0.1 0.2 0.1 0.2 2.3 8.3 6.1 16.4 11.8 24.3 0 0 0 0.1 0.1 0.1v0c9.4 13.1 24.4 25.3 46.9 39.5 10.9 6.9 17.7 10 25.3 10 12.1 0 22.6-9.4 40.3-25.7v0l16.1-14.8c0.6-0.5 18-25.1 31-25.1s30.4 24.6 31 25.1l16.1 14.8c17.8 16.2 28.3 25.6 40.4 25.6zM796.9 383.1c5.3 0 10.4-1.3 15.3-4.1 40.7-23.2 49.8-60.1 49.8-84.1 0-0.4 0-43.4 0-43.8 0-31.7-10.7-43.8-43.8-43.8h-87.5v131.3l21.9 21.9c16.5 14.5 31.1 22.6 44.3 22.6zM227.1 383.1c13.2 0 27.8-8.1 44.3-22.6l21.9-21.9v-131.2h-87.5c-33.1 0-43.8 12-43.8 43.7 0 0.3 0 43.4 0 43.8 0 24 9.1 61 49.8 84.1 4.9 2.8 10 4.1 15.3 4.1zM730.6 343.2c-0.1 0-0.1-1.2-0.1-2.4 0 1.1 0.1 2.4 0.1 2.4zM293.4 343.2c0.1 0 0.1-1.2 0.1-2.4 0 1.1-0.1 2.4-0.1 2.4zM730.5 340.8c0-1.1 0-2.1 0.2-2.1-0.1-0.1-0.2 1-0.2 2.1zM293.5 340.8c0-1.1 0-2.1-0.2-2.1 0.1-0.1 0.2 1 0.2 2.1zM512 772.5c-46.7 0-89.9-17.8-121.7-50.1-19.6-19.9-33.8-44.4-41.8-71.4-3.2 1.5-6.5 2.9-9.8 4.2-14.6 5.5-29.8 8.3-45.2 8.3-31.3 0-62.6-12.2-85.9-33.6-26.9-24.6-41.7-59.6-41.7-98.4v-35c0-22.4 5.8-43.7 16.6-62.7-0.5-0.3-0.9-0.5-1.4-0.8-28.9-16.4-51.5-40.1-65.3-68.5-13.1-27-15.9-52.7-15.9-69.5v-0.9c0-26.3 0-37.5 0-42.9v0c0-13.8 1.4-25.7 4.3-36.5 4.3-15.9 12-29.6 22.8-40.6 11-11.2 24.7-19.3 40.8-23.9 11.2-3.2 23.6-4.8 37.9-4.8h104.5c9.3-7.5 20.2-13.2 32.4-16.8 11.4-3.4 23.8-5.1 38.1-5.1h262.5c14.1 0 26.5 1.6 37.6 4.8 12.6 3.6 23.7 9.4 33.3 17.1h104.1c14.3 0 26.7 1.6 37.9 4.8 16.1 4.6 29.8 12.6 40.8 23.9 10.8 11 18.4 24.7 22.8 40.6 2.9 10.8 4.3 22.7 4.3 36.5v0c0.1 5.5 0.1 16.7 0 42.9v0.9c0 16.8-2.8 42.5-15.9 69.5-13.8 28.4-36.4 52.1-65.3 68.5-0.3 0.2-0.7 0.4-1 0.6 10.9 19 16.6 40.4 16.6 62.9v35c0 38.8-14.6 73.7-41.1 98.2-12 11.1-25.9 19.7-41.3 25.5-14.6 5.5-29.8 8.3-45.2 8.3-19 0-38.1-4.5-55.3-12.9-8 27.2-22.2 51.8-41.9 71.8-31.7 32.3-74.9 50.1-121.6 50.1v0z" />
<glyph unicode="&#x2a;" glyph-name="mapmaker" d="M512 698.8c30.3 0 58.8-11.8 80.2-33.2s33.2-49.9 33.2-80.2-11.8-58.8-33.2-80.2c-21.4-21.4-49.9-33.2-80.2-33.2s-58.8 11.8-80.2 33.2c-21.4 21.4-33.2 49.9-33.2 80.2s11.8 58.8 33.2 80.2c21.4 21.4 49.9 33.2 80.2 33.2zM512 760.8c-96.9 0-175.5-78.6-175.5-175.5s78.6-175.5 175.5-175.5 175.5 78.6 175.5 175.5-78.6 175.5-175.5 175.5v0zM512 843.3c34.9 0 68.6-6.8 100.4-20.2 30.7-13 58.3-31.6 82-55.3s42.3-51.3 55.3-82c13.4-31.8 20.2-65.5 20.2-100.4 0-17.5-5.7-59.1-44-140.8-25.4-54.2-61-117.7-106-188.9-38.9-62-78.3-118.9-107.9-160.2-29.6 41.4-69 98.3-108.1 160.1-44.9 71.2-80.6 134.7-106 188.9-38.3 81.7-44 123.3-44 140.8 0 34.9 6.8 68.6 20.2 100.4 13 30.7 31.6 58.3 55.3 82s51.3 42.3 82 55.3c32 13.5 65.7 20.3 100.6 20.3zM512 905.3c-176.7 0-320-143.3-320-320s320-594.6 320-594.6 320 417.8 320 594.6-143.3 320-320 320v0z" />
<glyph unicode="&#x2b;" glyph-name="PreviewBFMTV" d="M512 558.2c60.8 0 110.2-49.4 110.2-110.2s-49.4-110.2-110.2-110.2-110.2 49.4-110.2 110.2c0 60.8 49.4 110.2 110.2 110.2zM512 620.2c-95 0-172.2-77.3-172.2-172.2s77.2-172.2 172.2-172.2 172.2 77.2 172.2 172.2-77.2 172.2-172.2 172.2v0zM512 675c80.9 0 158.6-24.3 224.7-70.3 57.6-40 103.1-93.8 132.7-156.7-29.6-62.9-75.1-116.7-132.7-156.7-66.1-46-143.8-70.3-224.7-70.3s-158.6 24.3-224.8 70.3c-57.6 40-103.1 93.8-132.7 156.7 29.6 62.9 75.1 116.7 132.7 156.7 66.2 46 143.9 70.3 224.8 70.3zM512 737c-93.6 0-183.5-28.1-260.1-81.4-74.5-51.7-131.5-123.5-164.9-207.6 33.4-84.1 90.4-155.9 164.9-207.6 76.6-53.3 166.5-81.4 260.1-81.4s183.5 28.1 260.1 81.3c74.5 51.8 131.5 123.6 164.9 207.7-33.4 84.1-90.4 155.9-164.9 207.6-76.6 53.3-166.5 81.4-260.1 81.4v0z" />
<glyph unicode="&#x2c;" glyph-name="HomeBFMTV" d="M810.2 92.4h-252.6v199.9h-77.3v-199.9h-252.6v328.8h-175.9l467.5 392.2 450.5-392.2h-159.6v-328.8zM619.6 154.4h128.6v328.8h56l-285.6 248.6-296.4-248.6h67.5v-328.8h128.6v199.9h201.3v-199.9z" />
<glyph unicode="&#x2d;" glyph-name="trafic" d="M935.9 400.9c-2.8 0-5.7-0.4-8.6-1.2l-32.5-8.9-33.8 82.2c-9.6 23.3-37.8 42.3-63 42.3h-109v63c0 23.4-7.2 60-16.1 81.7l-5.5 13.3h4.1c18.9 0 34.2 15.4 34.2 34.2v19.2c0 16.2-11.1 27.9-26.5 27.9-2.8 0-5.7-0.4-8.6-1.2l-32.5-9-33.8 82.2c-9.6 23.3-37.8 42.2-63 42.2h-315.8c-25.2 0-53.4-18.9-63-42.2l-33.7-82.1-32.1 8.8c-2.9 0.8-5.8 1.2-8.6 1.2-15.4 0-26.5-11.7-26.5-27.9v-19.2c0-18.9 15.4-34.2 34.2-34.2h3.7l-5.4-13.2c-8.9-21.7-16.1-58.3-16.1-81.7v-163.4c0-18.9 15.4-34.2 34.2-34.2h44.7c18.9 0 34.2 15.4 34.2 34.2v40.8h220.9l-26.6-64.8-32.1 8.8c-2.9 0.8-5.7 1.2-8.5 1.2-15.4 0-26.5-11.7-26.5-27.9v-19.2c0-18.9 15.4-34.2 34.2-34.2h3.7l-5.4-13.3c-8.9-21.6-16.1-58.3-16.1-81.7v-163.4c0-18.9 15.4-34.2 34.2-34.2h44.7c18.9 0 34.2 15.4 34.2 34.2v40.8h384.6v-40.8c0-18.9 15.4-34.2 34.2-34.2h44.7c18.9 0 34.2 15.4 34.2 34.2v163.5c0 23.4-7.2 60-16.1 81.7l-5.5 13.3h4.1c18.9 0 34.2 15.4 34.2 34.2v19.1c0.2 16.2-11 27.9-26.3 27.9v0zM623.1 581.1v-46.5c0-7.5-6.2-13.7-13.7-13.7h-97c-7.5 0-13.7 6.2-13.7 13.7v46.5c0 7.5 6.2 13.7 13.7 13.7h97c7.5 0 13.7-6.2 13.7-13.7v0zM267.3 534.5c0-7.5-6.2-13.7-13.7-13.7h-97c-7.5 0-13.7 6.2-13.7 13.7v46.5c0 7.5 6.2 13.7 13.7 13.7h97c7.5 0 13.7-6.2 13.7-13.7v-46.5zM170.4 666.5c-15.1 0-22.7 11.4-17 25.3l51.1 124.4c5.7 13.9 22.7 25.3 37.8 25.3h282.6c15 0 32.1-11.4 37.8-25.3l51.1-124.4c5.7-13.9-1.9-25.3-17-25.3h-426.4zM410 338.2l51 124.4c5.7 13.9 22.7 25.3 37.8 25.3h282.6c15.1 0 32.1-11.4 37.8-25.3l51.1-124.4c5.7-13.9-1.9-25.3-17-25.3h-426.4c-15 0-22.7 11.4-16.9 25.3v0zM523.9 180.9c0-7.5-6.2-13.7-13.7-13.7h-97c-7.5 0-13.7 6.2-13.7 13.7v46.6c0 7.5 6.2 13.7 13.7 13.7h97c7.5 0 13.7-6.2 13.7-13.7v-46.6zM879.7 180.9c0-7.5-6.2-13.7-13.7-13.7h-97c-7.5 0-13.7 6.2-13.7 13.7v46.6c0 7.5 6.2 13.7 13.7 13.7h97c7.5 0 13.7-6.2 13.7-13.7v-46.6z" />
<glyph unicode="&#x2f;" glyph-name="podcasts" d="M512 351.7c-31.5 0-83.3-13-83.3-103.7 0-216.7 24.1-300 83.3-300 57.4 0 83.3 92.6 83.3 300 0 90.7-51.8 103.7-83.3 103.7zM512 762.8c-148.1 0-268.5-120.4-268.5-268.5 0-94.4 50-177.8 124.1-225.9 1.9 18.5 5.6 35.2 13 51.9-53.7 40.7-87 103.7-87 175.9 0 122.2 98.1 220.4 220.4 220.4s218.5-101.9 218.5-224.1c0-72.2-35.2-135.2-87-175.9 7.4-14.8 11.1-31.5 13-51.9 74.1 48.1 124.1 131.5 124.1 225.9-2.1 151.8-122.5 272.2-270.6 272.2zM512 948c-251.9 0-455.6-203.7-455.6-455.6 0-198.1 125.9-372.2 314.8-433.3l22.2-7.4-3.7 24.1c-1.9 16.7-3.7 33.3-5.6 53.7v9.3l-9.3 3.7c-146.3 57.4-240.7 194.4-240.7 351.9 0 207.4 168.5 377.8 377.8 377.8s377.8-170.4 377.8-379.6c0-153.7-96.3-294.4-240.7-351.9l-7.4-3.7v-9.3c-1.9-18.5-3.7-37-7.4-53.7l-3.7-24.1 22.2 7.4c188.9 61.1 314.8 235.2 314.8 433.3 0.1 253.7-205.5 457.4-455.5 457.4zM512 596.1c-57.4 0-103.7-46.3-103.7-103.7s46.3-103.7 103.7-103.7 103.7 46.3 103.7 103.7-46.3 103.7-103.7 103.7z" />
<glyph unicode="&#x30;" glyph-name="direct" d="M940 605.7v-315.3h-856v315.3h856zM1002 667.7h-980v-439.3h980v439.3zM273.8 444.8c0-50.7-21.4-71-73.4-71h-68.4v148.4h68.5c51.3 0 73.4-20.4 73.4-71.2v-6.2zM173.3 488.7v-81.4h26.5c26.5 0 31.8 15.3 31.8 39v3.4c0 24-5.3 39-31.8 39h-26.5zM326.8 373.8h-41.3v148.4h41.3v-148.4zM382.4 373.8h-41.4v148.4h78c43.3 0 57-10.2 57-40.3v-2.8c0-21-6.6-32.4-24.4-35.2v-1.5c17-3 24.4-7.4 24.4-34.6v-34.1h-41.6v32.9c0 13.8-4.5 17.6-22.3 17.6h-29.9v-50.4zM382.4 490.2v-34.1h35.2c11.9 0 17 4 17 15.9v0.8c0 13.6-4.9 17.4-21 17.4h-31.2zM605.2 373.8h-116.8v148.4h116.8v-32.4h-75.5v-25.4h75.5v-32.4h-75.5v-25.7h75.5v-32.5zM686.2 371.7c-51.7 0-71.5 20.4-71.5 71v10.6c0 50.7 19.7 71 71.5 71h3.8c45.2 0 64.5-16.5 70.4-51.5h-42.4c-4 12.7-12.7 17.6-28.8 17.6h-1.9c-26.9 0-30.5-14.8-30.5-38.6v-7.6c0-23.7 3.6-38.6 30.5-38.6h1.9c16.1 0 24.8 4.9 28.8 17.6h42.4c-5.9-35-25.2-51.5-70.4-51.5h-3.8zM848.1 373.8h-41.8v113h-43v35.4h128.7v-35.4h-43.9v-113z" />
<glyph unicode="&#x31;" glyph-name="radio" d="M12-17.675c0 237.742 0 475.167 0 713.188 208.661 0 417.070 0 625.48 0 0.092 0.474 0.185 0.948 0.277 1.423-148.498 49.492-296.994 98.983-445.963 148.631 7.816 22.824 15.471 45.184 23.321 68.107 7.418-2.434 14.568-4.746 21.696-7.125 209.572-69.924 419.141-139.862 628.734-209.721 2.916-0.972 6.153-1.364 9.242-1.37 43.42-0.087 86.839-0.059 130.259-0.059 2.194 0 4.39 0 6.952 0 0-237.821 0-475.236 0-713.075-333.060 0.001-666.212 0.001-999.998 0.001zM85.176 622.81c0-189.562 0-378.721 0-568.060 284.786 0 569.278 0 853.793 0 0 189.566 0 378.703 0 568.060-284.692 0-568.911 0-853.793 0zM441.412 339.027c0.224 118.756 97.426 214.518 217.417 214.2 119.118-0.315 215.759-96.714 215.522-214.98-0.238-118.66-97.149-214.391-216.81-214.167-119.6 0.223-216.353 96.448-216.129 214.947zM801.367 338.712c-0.041 78.667-64.355 142.323-143.606 142.136-79.289-0.187-143.044-63.388-143.175-141.929-0.132-78.77 63.788-142.347 143.22-142.451 79.226-0.104 143.603 63.681 143.561 142.244zM367.235 435.29c0 24.104 0 47.909 0 71.818-67.474 0-134.561 0-201.921 0 0-23.971 0-47.649 0-71.818 67.546 0 134.627 0 201.921 0zM367.271 302.95c0 24.134 0 47.782 0 71.515-67.525 0-134.7 0-202.003 0 0-24.030 0-47.69 0-71.515 67.797 0 134.961 0 202.003 0zM367.312 170.346c0 24.064 0 47.726 0 71.571-67.521 0-134.733 0-201.991 0 0-24.069 0-47.742 0-71.571 67.49 0 134.699 0 201.991 0zM619.744 273.856c35.765 20.86 70.881 41.342 106.648 62.203-35.92 20.938-70.952 41.36-106.648 62.17 0-41.739 0-82.703 0-124.373z" />
<glyph unicode="&#x32;" glyph-name="micro" d="M512.001 255.719c52.867 0 98.139 18.805 135.783 56.449 37.643 37.676 56.482 82.982 56.482 135.816v307.684c0 52.918-18.773 98.223-56.482 135.816-37.644 37.678-82.916 56.516-135.783 56.516-52.885 0-98.156-18.838-135.816-56.516-37.678-37.594-56.482-82.898-56.482-135.816v-307.684c0-52.834 18.805-98.141 56.482-135.816 37.693-37.645 82.964-56.449 135.816-56.449zM846.749 551.928c-7.596 7.645-16.584 11.459-26.998 11.459-10.447 0-19.436-3.814-27.098-11.459-7.594-7.596-11.441-16.633-11.441-27.031v-76.945c0-74.094-26.334-137.508-79.002-190.178-52.668-52.701-116.082-79.068-190.209-79.068-74.145 0-137.525 26.367-190.227 79.068-52.686 52.67-79.035 116.084-79.035 190.178v76.945c0 10.398-3.799 19.436-11.41 27.031-7.645 7.645-16.648 11.459-27.031 11.459-10.396 0-19.467-3.814-27.029-11.459-7.611-7.596-11.426-16.633-11.426-27.031v-76.945c0-88.521 29.551-165.568 88.654-231.037 59.086-65.504 132.102-103.082 219.047-112.635v-79.4h-153.809c-10.465 0-19.469-3.779-27.064-11.342-7.645-7.695-11.41-16.65-11.41-27.131 0-10.381 3.766-19.369 11.41-26.996 7.596-7.662 16.6-11.41 27.064-11.41h384.531c10.48 0 19.436 3.748 27.062 11.41 7.629 7.627 11.41 16.615 11.41 26.996 0 10.48-3.781 19.436-11.41 27.131-7.627 7.562-16.582 11.342-27.062 11.342h-153.826v79.4c87.027 9.553 159.961 47.131 219.064 112.635 59.135 65.502 88.652 142.516 88.652 231.037v76.945c0.001 10.431-3.846 19.468-11.407 27.031z" />
<glyph unicode="&#x33;" glyph-name="fullscreen" d="M357 792.75h655v-345h-655v345zM908.519 413.751v-276.001h-862.036v483h275.851v34.5h-310.334v-552h931v310.501zM149.517 413.698h172.483v-172.447h-51.75v82.232l-120.43-116.681-34.82 35.054 118.172 120.117h-83.655v51.725z" />
<glyph unicode="&#x34;" glyph-name="storm" d="M503.969 948l-256.019-501.999h195.777l-209.834-498.001 549.188 665h-222.888l229.914 335h-286.138z" />
<glyph unicode="&#x35;" glyph-name="menu-down" d="M1012 734l-500-572-500 572h1000z" />
<glyph unicode="&#x36;" glyph-name="menu-up" d="M12 162l500 572 500-572h-1000z" />
<glyph unicode="&#x37;" glyph-name="cloudupload" d="M852.625 493.312c45.834-9.375 83.854-32.292 114.062-68.75s45.313-78.644 45.313-126.562c0-36.457-8.854-70.051-26.562-100.781s-41.928-54.949-72.656-72.656-64.323-26.563-100.782-26.563h-575c-40.625 0-78.125 10.156-112.5 30.469s-61.719 47.656-82.031 82.031-30.469 71.875-30.469 112.5c0 48.957 14.062 92.707 42.188 131.25 28.124 38.542 64.062 65.625 107.812 81.25v12.5c0 44.792 11.197 86.458 33.594 125s52.865 69.011 91.406 91.406 80.469 33.594 125.781 33.594 87.24-11.458 125.781-34.375 68.75-53.125 90.626-90.625c25 16.667 52.604 25 82.812 25 41.666 0 77.084-14.583 106.25-43.75s43.75-64.583 43.75-106.25c0-18.75-3.125-36.979-9.375-54.688zM626.062 398c11.459 0 19.271 5.207 23.438 15.625s2.604 19.27-4.688 26.562l-165.624 165.625c-4.166 4.167-9.896 6.25-17.188 6.25s-13.021-2.083-17.188-6.25l-165.624-165.624c-7.291-7.293-8.854-16.145-4.688-26.562s11.979-15.626 23.438-15.626h101.562v-175c0-7.293 2.344-13.281 7.031-17.969s10.678-7.031 17.969-7.031h75c7.291 0 13.281 2.344 17.969 7.031s7.031 10.676 7.031 17.969v175h101.562z" />
<glyph unicode="&#x38;" glyph-name="tv1" d="M861.057 14h-698.114v75.479h698.113v-75.479zM1012 806.521v-566.087c0-41.683-33.793-75.478-75.472-75.478h-849.056c-41.68 0-75.472 33.795-75.472 75.478v566.087c0 41.684 33.792 75.479 75.472 75.479h849.057c41.678 0 75.471-33.795 75.471-75.479zM936.528 768.783c0 20.832-16.915 37.738-37.736 37.738h-773.585c-20.83 0-37.735-16.907-37.735-37.738v-490.609c0-20.823 16.905-37.739 37.735-37.739h773.585c20.821 0 37.736 16.916 37.736 37.739v490.609z" />
<glyph unicode="&#x39;" glyph-name="dossier" d="M937 624.6c0 39.6-32.2 71.8-71.8 71.8h-360.1l-88.3 88.3h-258c-39.3 0-71.3-32.2-71.3-71.8l-0.5-529.8c0-39.6 32.2-71.8 71.8-71.8h706.5c39.6 0 71.8 32.2 71.8 71.8v441.5zM144.2 172.3v463.1h731.8v-463.1z" />
<glyph unicode="&#x3a;" glyph-name="NewsBFMTV" d="M687.2 374.9h-173.8l-145.8 193.8 49.5 37.3 127.2-169.1h142.9v-62zM793.4 288.6c-24.3-47.6-61.1-87.7-106.4-116-46.6-29.1-100.4-44.5-155.6-44.5-78.5 0-152.4 30.6-207.9 86.1s-86.1 129.4-86.1 207.9 30.6 152.4 86.1 207.9c55.5 55.5 129.4 86.1 207.9 86.1 64.1 0 125.7-20.9 176.1-58.6l-123.8-12.5 6.2-61.7 223.3 22.5v0.4l0.7 0.1-22.6 223.6-61.7-6.2 11.5-114c-60.4 44-133.6 68.4-209.8 68.4-48 0-94.7-9.4-138.6-28-42.4-17.9-80.5-43.6-113.1-76.3-32.7-32.7-58.3-70.8-76.3-113.1-18.6-43.9-28-90.5-28-138.6 0-48 9.4-94.7 28-138.6 17.9-42.4 43.6-80.5 76.3-113.1s70.8-58.3 113.1-76.3c43.9-18.6 90.5-28 138.6-28 66.9 0 132 18.7 188.5 53.9 54.9 34.3 99.4 82.9 128.8 140.4l-55.2 28.2z" />
<glyph unicode="&#x3b;" glyph-name="MenuBFMTV" d="M147 253h730v-62h-730v62zM147 479h730v-62h-730v62zM147 705h730v-62h-730v62z" />
<glyph unicode="&#x3c;" glyph-name="AudioBFMTV" d="M511.4 820c-205.7 0-373-167.3-373-373v-340.4c0-17.2 13.5-30.7 30.7-30.7h134.2c17.2 0 30.7 13.5 30.7 30.7v311.2c0 17.2-13.5 30.7-30.7 30.7h-103.5c0.7 171.5 140.5 310.8 312.2 310.8 83.4 0 161.8-32.5 220.8-91.5 58.6-58.6 91.1-136.5 91.5-219.3h-103.6c-17.2 0-30.7-13.5-30.7-30.7v-311.1c0-17.2 13.5-30.7 30.7-30.7h134.2c17.2 0 30.7 13.5 30.7 30.7v340.4c-1.3 205.6-169.2 372.9-374.2 372.9zM199.1 136.7v251h73.5v-251h-73.5zM823.6 386.5v-249.8h-72.9v249.8h72.9z" />
<glyph unicode="&#x3d;" glyph-name="PlayBFMTV" d="M512 786c45.7 0 89.9-8.9 131.5-26.5 40.2-17 76.4-41.4 107.5-72.5s55.4-67.2 72.5-107.5c17.6-41.6 26.5-85.8 26.5-131.5s-8.9-89.9-26.5-131.5c-17-40.2-41.4-76.4-72.5-107.5s-67.2-55.4-107.5-72.5c-41.6-17.6-85.8-26.5-131.5-26.5s-89.9 8.9-131.5 26.5c-40.2 17-76.4 41.4-107.5 72.5s-55.4 67.2-72.5 107.5c-17.6 41.6-26.5 85.8-26.5 131.5s8.9 89.9 26.5 131.5c17 40.2 41.4 76.4 72.5 107.5s67.2 55.4 107.5 72.5c41.6 17.6 85.8 26.5 131.5 26.5zM512 848c-220.9 0-400-179.1-400-400s179.1-400 400-400 400 179.1 400 400-179.1 400-400 400v0zM452 306c-5.2 0-10.4 1.3-15.2 4-9.8 5.5-15.8 15.8-15.8 27v222c0 11.3 6.2 21.7 16.1 27.2 9.9 5.4 22 5.1 31.6-1l178-113.3c9-5.7 14.5-15.7 14.4-26.4s-5.7-20.6-14.8-26.2l-178-108.8c-5.1-3-10.7-4.5-16.3-4.5zM483 502.6v-110.3l88.4 54-88.4 56.3z" />
<glyph unicode="&#x3e;" glyph-name="TVBFMTV" d="M694 65.2h-363v62h363v-62zM940.5 769.3h-856v-526.7h856v526.7zM1002.5 831.3v-650.7h-980v650.7h980zM459.6 368.5l178 108.8c9.1 5.6 14.7 15.5 14.8 26.2s-5.3 20.7-14.4 26.4l-178 113.3c-9.5 6.1-21.6 6.5-31.6 1-9.9-5.4-16.1-15.9-16.1-27.2v-222.1c0-11.2 6.1-21.6 15.8-27 4.7-2.6 9.9-4 15.2-4 5.8 0 11.4 1.6 16.3 4.6zM562.9 504.2l-88.4-54v110.3l88.4-56.3z" />
<glyph unicode="&#x3f;" glyph-name="epingle" d="M879.8 554.4l-255.9 255.9c-17.4 17.5-45.8 17.5-63.3 0l-44.4-44.4c-8.5-8.5-13.1-19.7-13.1-31.7 0-11.8 4.8-23.3 13.1-31.6l0.4-0.4-156-155.9-143.5 0.9c-18.3 1.1-35.2-9.8-42.7-27.5-7.1-16.8-3.3-36.1 9.6-48.9l102.7-102.7-148.4-226.2c-11.5-17.7-9.1-41.3 5.8-56.2 8.5-8.5 19.7-13.1 31.7-13.1 8.5 0 16.9 2.5 24.2 7.1l226.5 148.9 117-117c8.5-8.5 19.7-13.1 31.7-13.1 6.1 0 12.3 1.3 17.8 3.7 16.8 7.3 27.4 23.9 26.9 42.2l-3.6 147.2 155.5 155.4 0.4-0.4c17.2-17.2 46.1-17.2 63.3 0l44.4 44.4c8.5 8.5 13.1 19.7 13.1 31.7s-4.7 23.2-13.2 31.7zM235.9 177.5l95.8 145.8 50-50-145.8-95.8zM803.8 502.6l-32.1 32.1-218.1-218.2 3.2-130.7-299.1 299.1 128.5-0.8 218.1 218-32.1 32.1 20 20 231.6-231.6-20-20z" />
<glyph unicode="&#x40;" glyph-name="RechercheBFMTV" d="M873 129.4l-190.6 190.5c42.7 51.8 68.4 118.3 68.4 190.7 0 165.6-134.3 299.9-299.9 299.9s-299.9-134.3-299.9-299.9c0-165.6 134.3-299.9 299.9-299.9 70.9 0 136 24.6 187.3 65.7l190.9-190.9 43.9 43.9zM450.9 272.7c-32.1 0-63.3 6.3-92.6 18.7-28.3 12-53.8 29.1-75.6 51-21.9 21.9-39 47.3-51 75.6-12.4 29.3-18.7 60.4-18.7 92.6 0 32.1 6.3 63.3 18.7 92.6 12 28.3 29.1 53.8 51 75.6 21.9 21.9 47.3 39 75.6 51 29.3 12.4 60.4 18.7 92.6 18.7 32.1 0 63.3-6.3 92.6-18.7 28.3-12 53.8-29.1 75.6-51 21.9-21.9 39-47.3 51-75.6 12.4-29.3 18.7-60.4 18.7-92.6 0-32.1-6.3-63.3-18.7-92.6-12-28.3-29.1-53.8-51-75.6-21.9-21.9-47.3-39-75.6-51-29.3-12.4-60.4-18.7-92.6-18.7z" />
<glyph unicode="&#x41;" glyph-name="alerte-info" d="M170.543 569.552h-58.462l-12.139-38.892h-37.777l60.816 180.34h37.034l60.568-180.34h-37.778l-12.262 38.892zM120.999 597.916h40.75l-19.94 63.54h-0.744l-20.066-63.54zM274.091 558.404h80.757v-27.744h-116.925v180.34h36.168v-152.596zM481.929 609.93h-66.884v-51.526h79.518v-27.744h-115.687v180.34h115.438v-27.868h-79.27v-45.333h66.884v-27.869zM556.123 602.746v-72.086h-36.17v180.34h62.428c20.561 0 36.641-4.688 48.243-14.058 11.6-9.373 17.4-22.44 17.4-39.203 0-9.249-2.455-17.237-7.367-23.967-4.915-6.73-12.078-12.16-21.491-16.287 10.653-3.139 18.311-8.382 22.978-15.73 4.661-7.35 6.996-16.433 6.996-27.25v-13.252c0-5.038 0.682-10.302 2.046-15.792 1.36-5.493 3.691-9.559 6.996-12.201v-2.601h-37.28c-3.305 2.642-5.431 7.018-6.381 13.129-0.95 6.11-1.421 12.015-1.421 17.712v12.757c0 8.999-2.461 15.998-7.372 20.995-4.912 4.995-11.872 7.493-20.87 7.493h-28.735zM556.123 630.615h25.638c10.157 0 17.71 2.146 22.667 6.44 4.955 4.293 7.432 10.653 7.432 19.075 0 8.256-2.501 14.821-7.492 19.693-5.001 4.872-12.328 7.308-21.986 7.308h-26.258v-52.516zM801.118 683.132h-51.525v-152.472h-36.165v152.472h-50.784v27.868h138.475v-27.868zM923.988 609.93h-66.884v-51.526h79.517v-27.744h-115.683v180.34h115.438v-27.868h-79.271v-45.333h66.884v-27.869zM62 499.488h84.329v-309.584h-84.329v309.584zM357.308 335.515l-95.516 163.973h-81.024v-309.584h84.53v164.149l95.514-164.149h80.826v309.584h-84.33zM471.849 189.904h84.53v117.962h107.293v68.829h-107.293v53.965h127.826v68.828h-212.356zM925.011 466.023c-24.585 25.011-56.771 37.693-95.66 37.693-39.163 0-71.451-12.686-95.97-37.702-24.473-24.969-36.881-56.916-36.881-94.948v-52.74c0-38.177 12.449-70.159 36.997-95.064 24.579-24.939 56.964-37.585 96.256-37.585 39.037 0 71.194 12.654 95.578 37.611 24.331 24.902 36.669 56.878 36.669 95.038v52.74c0 38.035-12.445 69.984-36.989 94.957zM780.829 371.469c0 19.188 4.378 34.927 13.012 46.779 8.159 11.196 19.774 16.64 35.51 16.64 15.341 0 26.831-5.485 35.128-16.769 8.754-11.911 13.192-27.606 13.192-46.65v-53.143c0-19.319-4.41-35.157-13.108-47.075-8.228-11.268-19.613-16.745-34.81-16.745-15.749 0-27.437 5.485-35.731 16.769-8.754 11.911-13.192 27.74-13.192 47.052v53.142z" />
<glyph unicode="&#x42;" glyph-name="antenne" d="M107.333 593.914c0-108.041 42.121-209.643 118.619-286.086l-65.989-65.988c-94.131 94.064-145.963 219.119-145.963 352.074 0 132.958 51.775 258.021 145.839 351.961l65.997-65.988c-76.45-76.328-118.503-177.92-118.503-285.973v0zM368.753 736.963l-65.989 65.997c-55.79-55.905-86.535-130.161-86.535-209.036 0-78.997 30.754-153.254 86.66-209.035l65.987 65.988c-38.283 38.159-59.303 88.964-59.303 143.047 0 53.951 21.020 104.757 59.18 143.039v0zM863.639 946l-65.998-65.997c76.509-76.444 118.618-178.045 118.618-286.089 0-108.041-42.053-209.643-118.429-286.086l65.989-65.988c94.007 94.064 145.782 219.119 145.782 352.074 0.001 133.079-51.841 258.137-145.962 352.086v0zM511.801 687.258c-51.527 0-93.344-41.814-93.344-93.344 0-34.514 18.905-64.289 46.679-80.392v-563.124h93.333v563.068c27.772 16.159 46.667 45.934 46.667 80.448-0.001 51.53-41.75 93.344-93.335 93.344v0zM720.714 802.951l-65.988-65.987c38.216-38.283 59.304-89.088 59.304-143.049 0-54.082-21.030-104.878-59.189-143.037l65.998-65.998c55.781 55.781 86.525 130.039 86.525 209.035s-30.745 153.13-86.65 209.036v0z" />
<glyph unicode="&#x43;" glyph-name="audio-direct" d="M434.734 798.281l-224.328-234.937h-189.359v-232.641h189.359l224.328-234.937zM549.578 287.953c-10.641 0-20.531 6.656-24.188 17.297-4.594 13.359 2.531 27.891 15.891 32.484 46.531 15.938 77.812 59.625 77.812 108.719 0 50.422-32.344 94.531-80.406 109.719-13.5 4.234-20.938 18.609-16.656 32.078 4.203 13.484 18.625 20.938 32.047 16.672 69.453-21.938 116.109-85.578 116.109-158.469 0-70.984-45.094-134.078-112.359-157.094-2.719-0.937-5.531-1.406-8.25-1.406zM645.281 144.094c-8.75 0-17.234 4.453-22.016 12.516-7.219 12.141-3.203 27.844 8.953 35.016 91.969 54.594 146.859 150.047 146.859 255.422 0 105.344-54.891 200.812-146.828 255.391-12.172 7.172-16.188 22.859-8.969 35.016 7.203 12.141 22.906 16.141 35.047 8.953 107.625-63.875 171.891-175.812 171.891-299.359 0-123.562-64.266-235.5-171.906-299.391-4.093-2.408-8.562-3.564-13.031-3.564zM742.719 7.078c-8.688 0-17.188 4.453-21.953 12.516-7.234 12.094-3.281 27.797 8.859 35.016 137.578 81.938 223.031 232.297 223.031 392.438 0 160.125-85.406 310.469-223.031 392.406-12.125 7.188-16.094 22.922-8.859 35.031 7.219 12.141 22.891 16.109 35.062 8.891 152.953-91.094 247.984-258.297 247.984-436.328 0-178.078-95.031-345.266-248-436.359-4.109-2.47-8.609-3.611-13.093-3.611z" />
<glyph unicode="&#x44;" glyph-name="camera-of-reporter" d="M247.938 434.25v-326.312l-15.625-20-200.313-20.25v397.124l200.312-12.125 15.626-18.437zM763.562 531.688l109.376-17.188h106.562c0 0 11.25 23.75 12.5 78.812 0.938 54.938-12.5 81.188-12.5 81.188h-108.75l-101.25-41.562h-102.188v146.25h-131.25v9.375c-9.062 36.875-59.625 38.188-66.188 38.188l-383.812-7.562c-2.25 0-49.312-0.625-51.938-59.375v-18.438c2.625-58.438 49.688-59.062 51.938-59.062l384.124-7.5c5.875 0 56.812 0.938 65.875 40.312v7.188h39.688v-89.375h-9.062l-85-216.812h-20.312v-328.188h344.688l34.375 44.375h95c0 0 28.438 40.688 30.312 138.75 1.875 98.5-30.312 145.062-30.312 145.062h-285.626v115.562h113.75zM442.312 404.25v-261.562h-41.312l-42.75-34.438h-91v326h91l42.75-30.312h41.312v0.312zM270.688 375.438c0-4.625 3.75-8.375 8.5-8.375h77.25l38-19.125c1.312-0.562 2.5-0.875 3.812-0.875 3.125 0 6.25 1.5 7.5 4.625 2.188 4.062 0.688 9.125-3.75 11.312l-40 20c-1 0.625-2.5 0.938-3.75 0.938h-79.062c-4.75 0-8.5-3.75-8.5-8.5v0zM270.688 326.75c0-4.75 3.75-8.5 8.5-8.5h77.75l39.125-11.5c0.688-0.312 1.5-0.312 2.188-0.312 3.75 0 7.188 2.125 8.188 5.875 1.5 4.438-1.312 9.062-5.75 10.375l-40 11.812c-0.812 0.312-1.5 0.312-2.438 0.312h-79.062c-4.751 0-8.501-3.75-8.501-8.062v0zM405.75 196.438c-2.438 4.062-7.5 5.562-11.625 3.125l-38.062-21.625h-76.875c-4.75 0-8.5-3.688-8.5-8.375 0-4.75 3.75-8.5 8.5-8.5h79.062c1.625 0 2.75 0.312 4.062 1.25l40.312 22.5c4.126 2.562 5.314 7.499 3.126 11.625v0zM406.75 237.062c-1 4.312-5.75 7.75-10 6.562l-38.5-8.5h-79.062c-4.75 0-8.5-3.75-8.5-8.375 0-4.75 3.75-8.5 8.5-8.5l81 0.312 40 8.5c4.624 0.877 7.374 5.251 6.562 10.001v0zM406.75 273.938c0 4.625-3.75 8.375-8.5 8.375h-119.062c-4.75 0-8.5-3.75-8.5-8.375 0-4.75 3.75-8.5 8.5-8.5h119.062c4.75 0 8.5 3.75 8.5 8.5v0z" />
<glyph unicode="&#x45;" glyph-name="close" d="M1002 839.312l-98.688 98.688-391.312-391.312-391.312 391.312-98.688-98.688 391.312-391.312-391.312-391.312 98.688-98.688 391.312 391.312 391.312-391.312 98.688 98.688-391.312 391.312 391.312 391.312z" />
<glyph unicode="&#x46;" glyph-name="doc" d="M953.176-52h-882.352v1000h659.408l222.943-226.506v-773.494zM129.646 6.822h764.707v690.604l-188.707 191.75h-576v-882.354zM563.414 627.715h-257.238c-16.258 0-29.412 13.156-29.412 29.412 0 16.258 13.154 29.412 29.412 29.412h257.238c16.256 0 29.41-13.154 29.41-29.412 0-16.256-13.154-29.412-29.41-29.412zM717.939 418.588h-411.763c-16.258 0-29.412 13.154-29.412 29.412 0 16.256 13.154 29.41 29.412 29.41h411.764c16.258 0 29.412-13.154 29.412-29.41 0-16.258-13.155-29.412-29.413-29.412zM717.939 209.373h-411.763c-16.258 0-29.412 13.154-29.412 29.412s13.154 29.412 29.412 29.412h411.764c16.258 0 29.412-13.154 29.412-29.412s-13.155-29.412-29.413-29.412z" />
<glyph unicode="&#x47;" glyph-name="down" d="M12 650.467l500-500 500 500-95.062 95.065-404.938-404.94-404.94 404.94z" />
<glyph unicode="&#x48;" glyph-name="headphones" d="M512.588 884.010c-241.005 0-436.588-200.694-436.588-447.965v-226.965c1.172-108.698 88.489-197.097 194.447-197.097h25.596c22.102 0 40.751 19.108 40.751 41.809v316.561c0 22.688-18.622 41.784-40.751 41.784h-25.596c-41.927 0-81.507-14.307-114.112-38.201v62.105c0 200.695 159.488 364.358 355.098 364.358 195.597 0 356.253-163.663 356.253-364.358v-62.105c-32.596 23.869-71.016 38.201-114.099 38.201h-25.596c-22.116 0-40.751-19.103-40.751-41.784v-316.561c0-22.7 18.612-41.809 40.751-41.809h25.596c107.12 0 193.265 88.399 194.415 197.097v226.965c1.208 247.271-194.415 447.965-435.406 447.965z" />
<glyph unicode="&#x49;" glyph-name="menu" d="M11.025 114.017h1001.949v111.329h-1001.949v-111.329zM11.025 392.337h1001.949v111.326h-1001.949v-111.326zM11.025 670.654h1001.949v111.329h-1001.949v-111.329z" />
<glyph unicode="&#x4a;" glyph-name="partage" d="M623 644.062c-391.812-56.062-560-336.062-615.75-616.062 140 196.062 335.75 285.5 615.75 285.5v-229.438l392.125 391.812-392.125 392.126v-223.938z" />
<glyph unicode="&#x4b;" glyph-name="photo-camera" d="M512 549c-83.69 0-151.5-67.859-151.5-151.5 0-83.689 67.81-151.5 151.5-151.5 83.641 0 151.5 67.811 151.5 151.5 0 83.641-67.859 151.5-151.5 151.5v0zM916 700.5h-121.22c-16.669 0-34.62 12.915-39.848 28.745l-31.365 94.010c-5.276 15.83-23.178 28.745-39.847 28.745h-343.446c-16.663 0-34.62-12.915-39.841-28.745l-31.365-94.010c-5.277-15.831-23.179-28.745-39.841-28.745h-121.227c-55.524 0-101-45.476-101-101v-454.5c0-55.53 45.476-101 101-101h808c55.53 0 101 45.47 101 101v454.5c0 55.524-45.47 101-101 101v0zM512 145c-139.467 0-252.5 113.033-252.5 252.5 0 139.417 113.033 252.5 252.5 252.5 139.418 0 252.5-113.083 252.5-252.5 0-139.467-113.082-252.5-252.5-252.5v0zM880.641 528.879c-19.48 0-35.36 15.831-35.36 35.36 0 19.48 15.88 35.311 35.36 35.311 19.529 0 35.359-15.831 35.359-35.311 0-19.53-15.83-35.36-35.359-35.36v0z" />
<glyph unicode="&#x4c;" glyph-name="play" d="M862.728 798.729c-93.69 93.676-218.239 145.271-350.728 145.271s-257.038-51.595-350.729-145.271c-93.676-93.691-145.271-218.241-145.271-350.729s51.595-257.038 145.271-350.728c93.691-93.678 218.241-145.272 350.729-145.272s257.038 51.594 350.728 145.272c93.678 93.69 145.272 218.239 145.272 350.728s-51.594 257.038-145.272 350.729v0zM512 13.361c-239.661 0-434.639 194.978-434.639 434.639s194.978 434.639 434.639 434.639c239.661 0 434.639-194.979 434.639-434.639s-194.978-434.639-434.639-434.639v0zM386.333 255.578l333.149 192.422-333.149 192.423v-384.845z" />
<glyph unicode="&#x4d;" glyph-name="search" d="M432.963 842.513c164.61 0 298.52-133.919 298.52-298.433 0-164.6-133.908-298.485-298.52-298.485-164.513 0-298.41 133.888-298.41 298.485 0 164.514 133.897 298.433 298.41 298.433zM980.094 36.932l-237.983 247.476c61.21 72.806 94.729 164.363 94.729 259.672 0 222.648-181.145 403.804-403.879 403.804-222.626 0-403.771-181.155-403.771-403.804 0-222.701 181.146-403.846 403.771-403.846 83.597 0 163.324 25.183 231.394 73.104l239.869-249.448c10.030-10.479 23.489-16.202 37.979-16.202 13.631 0 26.555 5.229 36.435 14.724 21.003 20.146 21.602 53.516 1.456 74.52z" />
<glyph unicode="&#x4e;" glyph-name="social-group" d="M511.555 447.667c88.275 0 156.941 91.557 156.941 186.338v29.705c0 94.764-68.666 162.023-156.941 162.023-88.292 0-156.938-67.243-156.938-162.023v-29.705c-0.001-94.781 68.646-186.338 156.938-186.338v0zM197.121 417.018c25.246 0 94.319 32.745 94.319 100.707v50.345c0 67.962-49.825 100.707-94.319 100.707-43.013 0-94.319-32.745-94.319-100.707v-50.345c0-67.963 70.42-100.707 94.319-100.707v0zM762.23 291.104c-0.051 0.493-0.188 0.961-0.24 1.442-0.738 5.94-1.871 11.728-3.434 17.411 0 0.052 0 0.103-0.052 0.154-3.297 12.071-8.86 23.695-17.171 35.148v0.052c-13.616 18.854-34.17 38.084-67.566 56.853-17.652 9.907-25.413 14.458-36.334 14.458-17.359 0-32.504-13.497-58.020-36.935h-0.052l-23.215-21.344c-0.824-0.79-25.859-36.145-44.593-36.145s-43.766 35.354-44.593 36.145l-23.215 21.344h-0.051c-25.518 23.438-40.661 36.935-58.020 36.935-10.918 0-20.656-4.551-36.336-14.458-32.364-20.434-53.948-37.965-67.513-56.802l-0.052-0.017c-0.049-0.052-0.049-0.12-0.103-0.172-8.206-11.367-13.717-22.923-16.997-34.908-0.054-0.103-0.105-0.224-0.159-0.343-1.526-5.649-2.659-11.367-3.381-17.24-0.051-0.549-0.206-1.064-0.259-1.597-0.685-6.25-1.082-12.62-1.082-19.231 0-0.738-0.017-137.83 0-138.465 0-44.747 16.864-62.948 62.953-62.948h377.635c46.481 0 62.948 17.223 62.948 62.948 0 0.635-0.018 137.727-0.018 138.465 0.002 6.613-0.392 12.983-1.080 19.25v0zM826.535 417.018c25.241 0 94.319 32.745 94.319 100.707v50.345c0 67.962-49.829 100.707-94.319 100.707-43.013 0-94.318-32.745-94.318-100.707v-50.345c0-67.963 70.417-100.707 94.318-100.707v0zM79.624 348.85c-58.57-33.329-71.603-86.49-71.603-121.054 0-0.55-0.051-62.45 0-62.948 0-45.675 15.351-62.932 62.948-62.932h125.879v188.828l-31.473 31.456c-33.292 29.362-61.369 40.524-85.751 26.65v0zM196.849 290.744c0.687-0.601 0 14.938 0 0v0zM1015.088 227.796c0 34.564-13.033 87.726-71.603 121.054-24.382 13.874-52.456 2.713-85.751-26.649l-31.474-31.474v-188.827h125.88c47.598 0 62.948 17.273 62.948 62.948 0.052 0.498 0 62.398 0 62.948v0zM826.261 290.744c0 14.938-0.687-0.601 0 0v0z" />
<glyph unicode="&#x4f;" glyph-name="tv-light" d="M245.969 106h532v-38h-532v38zM17.969 828v-646h988v646h-988zM967.969 220h-912v570h912v-570zM626.562 505.625l-228-133v266z" />
<glyph unicode="&#x50;" glyph-name="tv" d="M784.984 45h-546v78h546v-78zM1018.982 864v-663h-1013.998v663h1013.998zM940.982 786h-857.998v-507h858l-0.002 507zM395.594 669.609v-273l234 136.5-234 136.5z" />
<glyph unicode="&#x51;" glyph-name="twitter" d="M1016.723 760.244c-39.78-17.099-79.561-27.784-119.302-32.098 44.892 26.953 75.255 65.003 91.091 114.157-41.087-24.373-84.902-41.010-131.486-50.004-41.049 43.59-91.475 65.411-151.356 65.411-57.269 0-106.118-20.207-146.552-60.607-40.396-40.39-60.569-89.241-60.569-146.509 0-15.417 1.681-31.209 5.107-47.477-84.667 4.271-164.083 25.564-238.263 63.812-74.175 38.271-137.131 89.241-188.865 152.971-18.795-32.055-28.211-66.916-28.211-104.543 0-35.48 8.335-68.414 25.021-98.778 16.681-30.325 39.122-54.923 67.343-73.728-33.366 1.273-64.575 10.041-93.632 26.294v-2.57c0-50.004 15.725-93.935 47.122-131.793 31.439-37.868 71.109-61.698 118.956-71.499-17.944-4.718-36.129-7.062-54.496-7.062-11.958 0-25.026 1.076-39.131 3.19 13.26-41.472 37.623-75.573 73.103-102.284 35.514-26.713 75.673-40.512 120.57-41.356-75.217-58.988-160.97-88.507-257.129-88.507-18.411 0-35.086 0.846-50.042 2.576 96.198-61.996 202.25-92.975 318.087-92.975 73.526 0 142.588 11.637 207.125 34.928 64.57 23.301 119.725 54.501 165.463 93.637 45.736 39.127 85.209 84.135 118.341 135.022 33.131 50.849 57.806 103.966 74.063 159.346 16.258 55.39 24.368 110.851 24.368 166.423 0 11.958-0.23 20.947-0.653 26.943 40.624 29.475 75.255 65.186 103.927 107.080v0z" />
<glyph unicode="&#x52;" glyph-name="user" d="M975.314 416.047c0 259.15-210.183 469.286-469.333 469.286-259.197 0-469.333-210.136-469.333-469.286 0-136.92 58.667-260.12 152.189-345.946l-0.282-0.282 15.175-12.891c0.188-0.172 0.422-0.36 0.626-0.454 72.168-60.622 162.812-99.905 262.295-108.072 0.36-0.047 0.72-0.063 1.095-0.11 0.172-0.016 0.344 0 0.485-0.016 12.453-1.001 25.047-1.627 37.766-1.627 13.298 0 26.408 0.688 39.471 1.768 1.095 0.078 2.19 0.172 3.207 0.235 0.11 0 0.25 0.047 0.344 0.047 97.324 8.855 185.981 47.34 256.976 106.414 0.172 0.125 0.407 0.25 0.485 0.391l15.566 13.079-0.313 0.25c94.399 85.841 153.597 209.62 153.597 347.197zM89.984 416.047c0 229.347 186.623 415.954 416.001 415.954s416.001-186.607 416.001-415.954c0-125.859-56.43-238.672-145.040-315.048l-142.13 71.088c-12.907 6.508-20.995 19.493-20.995 34.011v50.5c3.332 4.005 6.915 8.745 10.497 13.908 18.758 26.345 33.745 55.773 44.665 87.421 21.746 10.216 35.591 31.837 35.591 56.163v60.497c0 14.737-5.413 29.083-15.081 40.425v79.662c0.829 8.839 4.005 58.839-32.165 100.078-31.43 35.841-82.321 54.098-151.344 54.098-68.992 0-119.915-18.257-151.344-54.098-36.154-41.239-33.010-91.238-32.165-100.078v-79.662c-9.668-11.264-15.081-25.688-15.081-40.425v-60.497c0-18.836 8.432-36.326 22.841-48.169 13.83-54.161 42.24-95.165 52.816-108.995v-49.405c0-13.845-7.666-26.752-19.822-33.338l-130.412-71.057c-87.312 76.22-142.849 188.093-142.849 312.936z" />
<glyph unicode="&#x53;" glyph-name="play-light" d="M862.727 798.727c-93.698 93.677-218.241 145.273-350.727 145.273s-257.029-51.596-350.727-145.273c-93.677-93.698-145.273-218.241-145.273-350.727s51.596-257.029 145.273-350.727c93.698-93.697 218.241-145.273 350.727-145.273s257.029 51.576 350.727 145.273 145.273 218.241 145.273 350.727-51.576 257.029-145.273 350.727v0zM512 13.381c-239.668 0-434.639 194.951-434.639 434.619s194.971 434.639 434.639 434.639 434.619-194.971 434.619-434.639-194.951-434.619-434.619-434.619v0zM427.99 303.695l249.86 144.305-249.86 144.324v-288.629z" />
<glyph unicode="&#x54;" glyph-name="replay" d="M862.727 798.727c-93.698 93.677-218.241 145.273-350.727 145.273s-257.029-51.596-350.727-145.273c-93.677-93.698-145.273-218.241-145.273-350.727s51.596-257.029 145.273-350.727c93.698-93.697 218.241-145.273 350.727-145.273s257.029 51.576 350.727 145.273 145.273 218.241 145.273 350.727-51.576 257.029-145.273 350.727v0zM512 13.381c-239.668 0-434.639 194.951-434.639 434.619s194.971 434.639 434.639 434.639 434.619-194.971 434.619-434.639-194.951-434.619-434.619-434.619v0zM683.508 592.324l-249.86-144.324 249.859-144.305v288.629zM510.992 592.324l-249.859-144.324 249.859-144.305v288.629z" />
<glyph unicode="&#x55;" glyph-name="email" d="M514.26 381.004h0.217c7.574 0 15.062 2.199 21.117 6.2l1.644 1.055c0.359 0.234 0.732 0.446 1.109 0.697l19.135 15.832 456.753 376.919c-0.945 1.305-2.557 2.199-4.271 2.199h-993.945c-1.232 0-2.376-0.446-3.288-1.197l477.871-393.876c6.023-4.987 14.615-7.829 23.658-7.829zM10.712 730.497v-558.704l342.327 276.539-342.327 282.165zM673.318 446.454l341.97-274.806v556.99l-341.97-282.184zM564.592 356.759c-13.631-11.185-31.463-17.351-50.188-17.351-18.798 0-36.612 6.13-50.208 17.263l-78.405 64.663-375.080-302.95v-0.963c0-2.879 2.465-5.325 5.377-5.325h993.891c2.858 0 5.306 2.446 5.306 5.343v0.893l-374.754 301.106-75.939-62.679z" />
<glyph unicode="&#x56;" glyph-name="facebook" d="M736.302 894.519l-115.867 0.189c-130.185 0-214.31-86.31-214.31-219.897v-101.388h-116.5c-10.069 0-18.22-8.162-18.22-18.231v-146.903c0-10.069 8.162-18.22 18.22-18.22h116.501v-370.676c0-10.070 8.151-18.222 18.22-18.222h152.012c10.059 0 18.211 8.162 18.211 18.222v370.675h136.222c10.080 0 18.232 8.151 18.232 18.22l0.054 146.903c0 4.831-1.927 9.466-5.334 12.879-3.415 3.425-8.064 5.345-12.89 5.345h-136.277v85.949c0 41.306 9.841 62.279 63.651 62.279l78.069 0.028c10.058 0 18.21 8.167 18.21 18.226v136.404c0.001 10.049-8.151 18.201-18.19 18.221z" />
<glyph unicode="&#x57;" glyph-name="youtube" d="M940.601 462.258c-5.176 23.534-16.659 43.273-34.394 59.221-17.755 15.947-38.193 25.321-61.329 28.116-73.374 7.974-184.042 11.963-332.008 11.963-147.961 0-258.432-3.991-331.421-11.963-23.523-2.795-44.064-12.17-61.618-28.116-17.551-15.953-29.119-35.695-34.703-59.221-10.369-46.272-15.552-116.057-15.552-209.384 0-94.916 5.183-164.706 15.552-209.38 5.189-23.518 16.662-43.272 34.409-59.215 17.749-15.952 38.187-25.124 61.313-27.52 73.387-8.375 184.062-12.567 332.022-12.567 147.944 0 258.638 4.192 332.001 12.567 23.135 2.396 43.473 11.568 61.029 27.52 17.553 15.941 29.12 35.697 34.698 59.215 10.369 46.272 15.558 116.057 15.558 209.38 0 94.92-5.189 164.714-15.552 209.384zM322.645 401.826h-64.006v-340.376h-59.82v340.376h-62.818v56.229h186.645v-56.229h-0.001zM484.156 61.45h-53.243v32.31c-21.533-24.336-41.883-36.5-61.026-36.5-18.345 0-29.909 7.384-34.691 22.133-3.189 9.571-4.787 24.133-4.787 43.674v233.898h53.244v-217.749c0-12.754 0.201-19.742 0.603-20.941 1.197-8.375 5.379-12.559 12.566-12.559 10.767 0 22.136 8.375 34.099 25.124v226.125h53.243v-295.521h-0.002zM687.55 149.986c0-29.108-1.792-49.063-5.362-59.836-6.795-21.919-20.947-32.891-42.478-32.891-19.146 0-37.681 10.971-55.638 32.891v-28.713h-53.237v396.617h53.237v-129.809c17.158 21.522 35.697 32.294 55.638 32.294 21.531 0 35.683-11.172 42.478-33.5 3.569-10.367 5.362-30.105 5.362-59.221v-117.833zM889.75 199.039h-107.076v-52.046c0-27.52 9.166-41.271 27.516-41.271 13.154 0 21.142 7.17 23.927 21.537 0.789 3.981 1.198 16.146 1.198 36.486h54.433v-7.774c0-19.548-0.406-31.104-1.198-34.704-1.19-10.757-5.364-21.522-12.559-32.294-14.356-21.142-35.91-31.706-64.617-31.706-27.508 0-49.045 10.174-64.603 30.5-11.563 14.757-17.34 37.892-17.34 69.399v103.499c0 31.504 5.577 54.632 16.737 69.394 15.56 20.331 36.899 30.502 64.028 30.502 26.725 0 47.88-10.171 63.406-30.502 10.784-14.755 16.156-37.884 16.156-69.394v-61.625h-0.001zM610.971 312.097c-9.177 0-18.142-4.403-26.919-13.162v-180.052c8.776-8.772 17.742-13.154 26.919-13.154 15.546 0 23.341 13.349 23.341 40.081v126.213c-0.002 26.726-7.781 40.081-23.341 40.081zM809.593 312.097c-17.946 0-26.92-13.571-26.92-40.669v-27.521h53.838v27.521c0 27.118-8.976 40.669-26.919 40.669zM287.962 777.508v-162.123h59.819v162.123l72.371 238.684h-61.019l-40.668-157.33-42.477 157.33h-63.405c11.17-33.503 24.129-70.791 38.884-111.871 18.747-55.030 30.902-97.31 36.495-126.819zM500.315 611.2c27.522 0 48.65 10.172 63.405 30.507 11.174 14.755 16.751 38.286 16.751 70.591v104.694c0 31.9-5.589 55.236-16.751 69.997-14.755 20.341-35.889 30.507-63.405 30.507-26.728 0-47.665-10.171-62.819-30.507-11.163-14.755-16.746-38.097-16.746-69.997v-104.692c0-31.9 5.576-55.433 16.746-70.591 15.155-20.343 36.090-30.509 62.819-30.509zM474.587 827.758c0 27.521 8.576 41.278 25.728 41.278s25.72-13.757 25.72-41.278v-125.623c0-27.926-8.568-41.874-25.72-41.874s-25.728 13.955-25.728 41.874v125.623zM664.81 611.2c19.953 0 40.495 12.367 61.629 37.099v-32.902h54.434v298.505h-54.434v-227.919c-11.97-17.152-23.325-25.72-34.108-25.72-7.184 0-11.374 4.382-12.567 13.156-0.4 0.799-0.601 7.783-0.601 20.942v219.54h-54.434v-235.701c0-20.331 1.607-35.286 4.787-44.865 5.186-14.755 16.95-22.136 35.293-22.136z" />
<glyph unicode="&#x58;" glyph-name="user-log" horiz-adv-x="1472" d="M1226.522 955.938c-103.426 0-190.343-67.404-219.485-160.916-76.891 55.472-171.196 88.236-273.209 88.236-258.209 0-467.524-209.315-467.524-467.476 0-136.381 58.443-259.114 151.604-344.601l-0.27-0.27 15.111-12.807c0.191-0.175 0.429-0.318 0.62-0.445 71.885-60.397 162.187-99.502 261.275-107.685 0.366-0.048 0.715-0.064 1.080-0.112 0.175-0.016 0.333 0 0.493-0.016 12.41-1.001 24.947-1.621 37.611-1.621 13.268 0 26.329 0.683 39.311 1.764 1.065 0.079 2.13 0.175 3.194 0.239 0.112 0 0.206 0.048 0.333 0.048 96.928 8.819 185.275 47.161 255.984 106.001 0.175 0.127 0.366 0.254 0.493 0.381l15.508 13.030-0.318 0.254c94.036 85.519 153.002 208.807 153.002 345.856 0 28.299-2.653 55.995-7.515 82.897 10.71-1.494 21.546-2.542 32.622-2.542 127.499 0.016 229.893 102.425 229.893 229.893 0.016 127.499-102.361 229.908-229.829 229.908zM1148.233 415.781c0-125.386-56.202-237.759-144.486-313.839l-141.578 70.804c-12.855 6.483-20.911 19.417-20.911 33.877v50.307c3.321 4.036 6.88 8.707 10.455 13.856 18.687 26.281 33.623 55.599 44.508 87.092 21.61 10.186 35.45 31.7 35.45 55.947v60.27c0 14.697-5.403 28.967-15.032 40.264v79.354c0.826 8.803 3.988 58.618-32.050 99.693-31.303 35.704-82.007 53.898-150.762 53.898-68.723 0-119.46-18.194-150.762-53.898-36.022-41.075-32.876-90.889-32.050-99.693v-79.354c-9.629-11.218-15.032-25.567-15.032-40.264v-60.27c0-18.766 8.389-36.197 22.754-47.987 13.777-53.962 42.076-94.798 52.611-108.575v-49.21c0-13.84-7.627-26.647-19.735-33.257l-129.915-70.789c-86.981 75.969-142.292 187.42-142.292 311.773 0 228.462 185.911 414.357 414.388 414.357 99.851 0 191.599-35.514 263.229-94.559-0.143-3.194-0.493-6.308-0.493-9.533 0-95.227 57.187-176.424 139.273-211.429 7.754-31.732 12.362-64.703 12.362-98.818zM1359.265 798.184l-167.224-173.516c-2.13-2.097-4.178-3.162-7.388-3.162-3.098 0-6.213 1.065-7.294 3.162l-81.483 87.776-2.097 2.097c-2.097 2.097-3.146 5.276-3.146 7.309 0 2.081 1.080 5.276 3.146 7.325l14.618 14.634c4.147 4.147 10.44 4.147 14.618 0l1.080-1.065 57.489-61.62c2.097-2.097 5.18-2.097 7.294 0l140.084 145.217h1.049c4.163 4.178 10.44 4.178 14.618 0l14.634-14.603c4.099-3.162 4.099-9.454 0-13.554z" />
<glyph unicode="&#x59;" glyph-name="plus" d="M1024 587.637h-372.363v372.363h-279.274v-372.363h-372.363v-279.274h372.363v-372.363h279.274v372.363h372.363z" />
<glyph unicode="&#x5a;" glyph-name="moins" d="M0 587.637h1024v-279.273h-1024v279.273z" />
<glyph unicode="&#x61;" glyph-name="more" d="M136.533 584.533c-75.281 0-136.533-61.252-136.533-136.533s61.252-136.533 136.533-136.533 136.533 61.252 136.533 136.533-61.252 136.533-136.533 136.533zM887.467 584.533c-75.281 0-136.533-61.252-136.533-136.533s61.252-136.533 136.533-136.533 136.533 61.252 136.533 136.533-61.252 136.533-136.533 136.533zM512 584.533c-75.281 0-136.533-61.252-136.533-136.533s61.252-136.533 136.533-136.533 136.533 61.252 136.533 136.533-61.252 136.533-136.533 136.533z" />
<glyph unicode="&#x62;" glyph-name="messenger" d="M192.853-54.613l239.36 119.68-239.36 119.68zM512 942.72c-264.371 0-478.72-205.408-478.72-458.773s214.349-458.773 478.72-458.773 478.72 205.408 478.72 458.773c0 253.366-214.349 458.773-478.72 458.773zM557.439 352.256l-115.011 123.549-215.862-120.72 239.996 254.243 117.763-117.883 210.274 117.883-237.168-257.071z" />
<glyph unicode="&#x63;" glyph-name="googleplus" horiz-adv-x="1216" d="M919.586 454.104h-411.535v-137.179h251.074c-37.443-119.261-148.852-205.766-280.477-205.766-162.353 0-293.949 131.612-293.949 293.951s131.608 293.949 293.949 293.949c81.752 0 155.698-33.384 208.982-87.249l99.577 108.234c-79.526 77.926-188.423 125.991-308.553 125.991-243.515 0.002-440.928-197.411-440.928-440.926s197.413-440.932 440.93-440.932c213.312 0 400.076 151.479 440.932 352.744v137.179l-0.002 0.002zM1186.82 454.336h-84.175v84.175h-72.156v-84.175h-84.175v-72.149h84.175v-84.177h72.156v84.177h84.175z" />
<glyph unicode="&#x64;" glyph-name="linkedin" d="M285.496 599.12h-170.161c-7.551 0-13.672-6.12-13.672-13.672v-546.642c0-7.551 6.117-13.672 13.672-13.672h170.161c7.551 0 13.672 6.117 13.672 13.672v546.642c0 7.547-6.117 13.672-13.672 13.672zM200.477 870.874c-61.917 0-112.286-50.314-112.286-112.16 0-61.865 50.369-112.205 112.286-112.205 61.865 0 112.188 50.34 112.188 112.205 0.003 61.846-50.33 112.16-112.188 112.16zM718.309 612.707c-68.341 0-118.848-29.377-149.507-62.779v35.488c0 7.547-6.117 13.672-13.672 13.672h-162.956c-7.551 0-13.672-6.12-13.672-13.672v-546.642c0-7.551 6.117-13.672 13.672-13.672h169.788c7.551 0 13.672 6.117 13.672 13.672v270.451c0 91.142 24.757 126.646 88.291 126.646 69.192 0 74.691-56.92 74.691-131.323v-265.779c0-7.551 6.117-13.672 13.672-13.672h169.853c7.551 0 13.672 6.117 13.672 13.672v299.841c0 135.52-25.84 274.061-217.485 274.061z" />
<glyph unicode="&#x65;" glyph-name="commentaire" d="M116.114 875.749h791.772c53.643 0 98.972-45.329 98.972-98.972v-544.345c0-53.643-45.329-98.972-98.972-98.972h-471.072l-160.037-176.055c-3.196-3.501-7.658-5.39-12.219-5.39-2 0-4.021 0.363-5.955 1.105-6.351 2.462-10.545 8.582-10.545 15.378v164.953h-131.945c-53.643 0-98.972 45.329-98.972 98.972v544.345c0 53.643 45.329 98.972 98.972 98.972z" />
<glyph unicode="&#x66;" glyph-name="sms" d="M131.356 187.585h352.617l300.251-246.363v246.363h108.42c54.707 0 99.197 45.278 99.197 100.958v511.734c0 55.675-44.498 100.958-99.197 100.958h-761.288c-54.707 0-99.197-45.278-99.197-100.958v-511.732c0-55.675 44.498-100.958 99.197-100.958zM744.979 520.815c-38.618 13.002-53.506 34.001-53.138 56.173 0 34.778 29.814 61.121 76.031 61.121 21.791 0 41.265-4.958 52.748-10.69l-10.309-40.121c-8.406 4.598-24.458 10.718-40.505 10.718-14.146 0-22.178-5.739-22.178-15.287 0-8.798 7.262-13.385 30.196-21.408 35.526-12.218 50.438-30.196 50.814-57.698 0-34.778-27.501-60.36-81.009-60.36-24.458 0-46.244 5.331-60.36 12.974l10.309 41.647c10.69-6.518 32.859-14.146 50.053-14.146 17.571 0 24.836 6.12 24.836 15.669-0.002 9.578-5.741 14.146-27.518 21.41zM416.802 633.92l2.678-25.217h1.142c8.023 11.832 24.458 29.404 56.558 29.404 24.075 0 43.178-12.218 51.195-31.69h0.761c6.881 9.548 15.287 17.198 24.075 22.538 10.34 6.12 21.789 9.165 35.558 9.165 35.918 0 63.054-25.217 63.054-80.978v-110.078h-56.558v101.625c0 27.158-8.815 42.818-27.528 42.818-13.358 0-22.933-9.165-26.738-20.266-1.538-4.186-2.284-10.309-2.284-14.918v-109.271h-56.558v104.701c0 23.694-8.406 39.758-26.77 39.758-14.879 0-23.694-11.498-27.12-21.038-1.903-4.57-2.284-9.938-2.284-14.527v-108.89h-56.558v127.251c0 23.283-0.761 43.178-1.538 59.601h48.907zM250.642 520.815c-38.618 13.002-53.506 34.001-53.138 56.173 0 34.778 29.814 61.121 76.031 61.121 21.791 0 41.297-4.958 52.745-10.69l-10.309-40.121c-8.406 4.598-24.458 10.718-40.505 10.718-14.146 0-22.178-5.739-22.178-15.287 0-8.798 7.262-13.385 30.196-21.408 35.526-12.218 50.438-30.196 50.814-57.698 0-34.778-27.501-60.36-81.009-60.36-24.458 0-46.244 5.331-60.36 12.974l10.309 41.647c10.69-6.518 32.859-14.146 50.053-14.146 17.571 0 24.836 6.12 24.836 15.669 0 9.578-5.739 14.146-27.518 21.41z" />
<glyph unicode="&#x67;" glyph-name="whatsapp" d="M1024 461.14c0-275.329-225.004-498.923-502.572-498.923-88.020 0-170.9 22.676-242.945 62.060l-278.484-88.276 90.88 267.776c-45.932 75.092-72.319 163.199-72.319 257.3 0 275.455 225.044 498.923 502.867 498.923 277.588 0 502.572-223.444 502.572-498.86zM521.428 880.532c-233.004 0-422.783-188.032-422.783-419.455 0-91.903 29.951-176.896 80.468-246.016l-52.628-155.372 162.432 51.328c66.668-43.86 146.604-69.164 232.532-69.164 232.832 0 422.572 188.14 422.572 419.564 0 231.040-189.74 419.092-422.572 419.092zM775.060 346.196c-2.964 4.992-11.156 8.020-23.316 14.592-12.671 6.124-72.98 35.329-84.607 39.34-11.052 4.097-19.244 6.124-27.412-6.060-8.577-12.076-31.916-39.892-39.040-47.872-7.596-8.108-14.7-9.132-26.88-3.073-12.031 6.016-51.968 18.964-98.945 60.8-36.524 32.236-61.396 72.193-68.524 84.607-7.34 12.308-0.852 18.9 5.292 24.916 5.761 5.524 12.372 14.42 18.476 21.503 6.356 7.039 8.364 12.052 12.417 20.18 4.097 8.34 2.004 15.404-1.024 21.716-3.028 6.124-27.86 66.132-38.016 90.668-10.367 24.448-20.46 20.372-27.564 20.372-7.425 0-15.444 1.024-23.807 1.024-8.084 0-21.503-2.964-32.916-15.404-11.136-12.116-43.116-41.708-43.116-101.932 0-60.052 44.14-118.42 50.433-126.463 6.144-8.084 85.119-135.316 210.54-184.321 125.228-48.98 125.228-32.812 148.012-30.764 22.252 2.047 72.959 29.696 83.116 58.004 9.979 28.803 9.979 53.037 6.932 58.114z" />
<glyph unicode="&#x68;" glyph-name="arrow" d="M512 872l-74.2-74.2 296.8-296.8h-646.6v-106h646.6l-296.8-296.8 74.2-74.2 424 424z" />
<glyph unicode="&#x69;" glyph-name="next-right" d="M356.113 856l-96.214-96.217 311.783-311.783-311.783-311.783 96.214-96.217 408 408z" />
<glyph unicode="&#x6a;" glyph-name="next-left" d="M773.999 772.009l-99.982 99.991-424-424 424-424 99.982 99.991-324.009 324.009z" />
<glyph unicode="&#x6b;" glyph-name="house" d="M1014.518 369.487l-188.434 188.434v282.667h-125.641v-157.037l-188.434 188.434-502.518-502.518v-31.408h125.641v-314.074h314.074v188.434h125.641v-188.434h314.074v314.074h125.641v31.408z" />
<glyph unicode="&#x6c;" glyph-name="info" d="M612-51.999h-200.001v600h200.001v-600zM512 948c-55.229 0-100-44.771-100-100s44.771-100 100-100 100 44.771 100 100-44.771 100-100 100z" />
<glyph unicode="&#x6d;" glyph-name="up" d="M1012 245.532l-500 500-500-500 95.062-95.065 404.938 404.941 404.94-404.941z" />
<glyph unicode="&#x6e;" glyph-name="alerte" d="M879.934 113.512h-234.14c0-73.692-60.102-133.794-133.794-133.794s-133.794 60.102-133.794 133.794h-234.14c-36.584 0-66.897 30.313-66.897 66.897 77.352 65.33 167.244 182.4 167.244 434.831 0 100.347 83.098 210.101 221.596 230.482-2.611 6.272-4.183 13.066-4.183 20.383 0 27.701 22.474 50.174 50.174 50.174s50.174-22.473 50.174-50.174c0-7.317-1.567-14.111-4.183-20.383 138.499-20.384 221.596-130.137 221.596-230.482 0-252.433 89.892-369.503 167.244-434.831 0-36.584-30.312-66.897-66.897-66.897zM512 38.254c-41.289 0-75.258 33.973-75.258 75.258 0 4.705-3.658 8.362-8.362 8.362s-8.362-3.658-8.362-8.362c0-50.696 41.29-91.986 91.986-91.986 4.705 0 8.362 3.658 8.362 8.362s-3.658 8.362-8.362 8.362z" />
<glyph unicode="&#x6f;" glyph-name="screening-graph" d="M1024.006 54.007h-1024v768h64v-704h960v-64zM320.005 182.007h-128v256h128v-256zM512.005 182.007h-128v512h128v-512zM704.006 182.007h-128v384h128v-384zM896.006 182.007h-128v576h128v-576z" />
<glyph unicode="&#x70;" glyph-name="rss" d="M999.141-37.758c-8.522-9.232-19.885-14.204-32.668-14.204h-101.555c-24.146 0-44.031 18.465-45.451 42.61-23.436 412.611-352.246 741.422-764.856 765.567-24.146 1.421-42.611 21.306-42.611 44.741v101.555c0 12.783 4.972 24.146 14.204 32.668 8.522 8.522 19.885 12.783 31.248 12.783 0.71 0 1.42 0 2.131 0 248.561-12.783 482.207-117.179 658.33-294.012 176.833-176.123 281.229-409.77 294.012-658.33 0.709-12.073-3.552-24.146-12.784-33.378zM636.242-37.048c-8.522-9.942-20.595-14.914-33.378-14.914h-95.874c-23.436 0-42.61 17.755-44.741 41.19-20.595 216.603-192.457 388.465-409.060 409.060-23.434 2.13-41.189 21.305-41.189 44.742v95.873c0 12.783 4.972 24.856 14.914 33.378 7.812 7.812 19.174 12.073 30.537 12.073 1.42 0 2.131 0 3.551 0 151.267-12.073 294.012-78.119 401.248-186.065 107.947-107.237 173.992-249.982 186.066-401.249 0.71-12.783-3.552-24.856-12.074-34.088zM148.354-51.962c-75.279 0-136.354 61.076-136.354 136.354s61.075 136.353 136.354 136.353 136.353-61.074 136.353-136.353-61.075-136.354-136.353-136.354z" />
<glyph unicode="&#x71;" glyph-name="android" d="M887 635.5c-34.376 0-62.5-28.126-62.5-62.5v-250c0-34.376 28.124-62.5 62.5-62.5 34.374 0 62.5 28.124 62.5 62.5v250c0 34.374-28.126 62.5-62.5 62.5zM137 635.5c-34.376 0-62.5-28.126-62.5-62.5v-250c0-34.376 28.124-62.5 62.5-62.5 34.374 0 62.5 28.124 62.5 62.5v250c0 34.374-28.128 62.5-62.5 62.5zM230.75 229.25c0-51.779 41.973-93.75 93.75-93.75h31.25v-125c0-34.376 28.124-62.5 62.5-62.5 34.374 0 62.5 28.124 62.5 62.5v125h62.5v-125c0-34.376 28.126-62.5 62.5-62.5 34.372 0 62.5 28.124 62.5 62.5v125h31.25c51.777 0 93.75 41.971 93.75 93.75v343.75h-562.5v-343.75zM627.819 860.604l39.555 75.981c1.983 3.811 0.488 8.555-3.323 10.538s-8.553 0.488-10.536-3.323l-40.155-77.135c-31.444 12.158-65.62 18.835-101.36 18.835-35.738 0-69.914-6.678-101.364-18.835l-40.151 77.133c-1.986 3.811-6.726 5.307-10.538 3.323-3.811-1.983-5.307-6.725-3.321-10.538l39.551-75.983c-88.507-40.056-152.579-124.594-163.692-225.102h559.023c-11.109 100.512-75.182 185.048-163.689 225.106v0zM387 683.937c-25.026 0-45.313 20.287-45.313 45.313 0 25.024 20.287 45.313 45.313 45.313 25.024 0 45.313-20.289 45.313-45.313-0.002-25.026-20.288-45.313-45.313-45.313zM637 683.937c-25.026 0-45.314 20.287-45.314 45.313 0 25.024 20.29 45.313 45.314 45.313 25.022 0 45.311-20.289 45.311-45.313 0-25.026-20.286-45.313-45.311-45.313z" />
<glyph unicode="&#x72;" glyph-name="apple" d="M784.948 416.662c-1.265 126.641 103.279 187.377 107.95 190.394-58.743 85.957-150.244 97.732-182.854 99.094-77.873 7.885-151.949-45.847-191.469-45.847-39.423 0-100.409 44.682-164.993 43.506-84.879-1.261-163.143-49.353-206.848-125.37-88.186-153.025-22.583-379.727 63.37-503.834 42-60.745 92.083-128.98 157.839-126.543 63.322 2.527 87.267 40.976 163.823 40.976s98.074-40.976 165.087-39.717c68.138 1.265 111.311 61.913 153.019 122.847 48.233 70.477 68.093 138.71 69.262 142.214-1.512 0.69-132.87 51.013-134.186 202.28v0zM659.031 788.31c34.902 42.343 58.459 101.087 52.034 159.69-50.272-2.046-111.21-33.487-147.276-75.733-32.365-37.476-60.691-97.29-53.098-154.722 56.118-4.379 113.405 28.519 148.343 70.765h-0.003z" />
<glyph unicode="&#x73;" glyph-name="play2" d="M165.73 48l692.54 400-692.54 400v-800z" />
<glyph unicode="&#x74;" glyph-name="arrowleft" d="M88 448l424-424 74.2 74.2-296.8 296.8h646.6v106h-646.6l296.8 296.8-74.2 74.2-424-424z" />
<glyph unicode="&#x75;" glyph-name="clock" d="M511.994 93.763c-195.301 0-354.235 158.895-354.235 354.246 0 195.346 158.935 354.235 354.235 354.235 195.357 0 354.297-158.89 354.297-354.235 0-195.352-158.939-354.246-354.297-354.246zM511.994 898.003c-248.124 0-449.994-201.87-449.994-449.994 0-248.147 201.87-450.012 449.994-450.012 248.142 0 450.006 201.864 450.006 450.012 0 248.124-201.864 449.994-450.006 449.994zM746.521 461.889h-202.226v243.16c0 20.45-16.555 37.044-37.044 37.044-20.438 0-37.043-16.594-37.043-37.044v-280.198c0-20.502 16.605-37.058 37.043-37.058h239.27c20.49 0 37.089 16.556 37.089 37.058-0.001 20.432-16.599 37.038-37.089 37.038z" />
<glyph unicode="&#x76;" glyph-name="link" d="M507.169 73.539c-33.034-33.063-72.333-55.575-116.736-66.975-44.628-11.454-89.712-11.454-134.342 0-44.403 11.399-83.984 34.253-117.643 67.883-33.656 33.626-56.48 73.21-67.878 117.671-11.428 44.571-11.428 89.71 0 134.283 11.397 44.433 33.938 83.731 66.973 116.764l68.957 68.958c3.401 3.402 5.927 3.827 7.741 3.827s3.94-0.51 6.294-1.503c6.606-2.777 9.556-6.691 10.179-12.559 1.276-33.998 7.656-67.769 18.884-100.232 1.56-4.681 1.532-8.905-4.112-14.576l-23.221-25.009c-28.043-28.069-42.617-62.265-43.27-101.677-0.651-39.584 13.242-74.175 41.342-102.928 28.126-28.752 62.748-43.382 102.925-43.382 40.123 0 74.714 14.289 102.814 42.361l121.584 121.585c28.068 28.070 42.36 62.663 42.36 102.812 0 40.121-14.292 74.714-42.36 102.812-6.664 6.663-14.121 12.762-22.175 18.146-2.297 1.532-4.423 3.773-4.45 10.521-0.992 17.607 4.168 31.786 15.508 43.126l40.15 38.335c2.439 2.468 5.047 3.686 9.812 4.025 2.948 0 5.841-0.822 7.712-1.871 12.703-9.299 25.18-19.366 36.18-29.204 33.119-34.281 55.688-74.231 67.144-118.721 11.454-44.571 11.454-89.768 0-134.312-11.399-44.461-33.912-83.702-66.974-116.766l-123.398-123.394zM793.265 394.085c0.623-5.87 3.573-9.783 10.208-12.562 4.648-1.985 7.201-4.479 14.007 2.324l68.956 68.957c33.062 33.034 55.575 72.333 66.973 116.736 11.456 44.573 11.456 89.768 0 134.342-11.454 44.488-34.023 84.439-67.143 118.72-33.91 32.806-73.891 55.376-118.406 66.804-22.287 5.727-44.915 8.62-67.145 8.62s-44.855-2.893-67.143-8.62c-44.459-11.399-83.728-33.942-116.762-66.973l-123.4-123.399c-33.031-33.033-55.574-72.332-66.974-116.733-11.424-44.574-11.424-89.771 0-134.344 11.428-44.487 33.999-84.439 67.146-118.717 11.001-9.869 23.449-19.906 36.208-29.208 1.843-1.077 4.705-1.87 7.711-1.87v-13.724h0.087l1.417 13.78c3.26 0.284 5.813 1.531 8.279 3.971l40.149 38.333c11.342 11.343 16.501 25.521 15.511 43.129-0.029 6.747-2.156 8.988-4.453 10.519-8.053 5.388-15.508 11.482-22.172 18.146-28.1 28.101-42.361 62.692-42.361 102.814 0 40.12 14.262 74.712 42.361 102.812l121.583 121.582c28.072 28.1 62.663 42.362 102.812 42.362s74.799-14.603 102.927-43.381c28.071-28.752 42.022-63.372 41.34-102.955-0.68-39.383-15.197-73.608-43.267-101.649l-23.196-25.009c-5.669-5.67-5.669-9.896-4.14-14.574 11.23-32.467 17.64-66.239 18.887-100.233z" />
<glyph unicode="&#x77;" glyph-name="alerte-info-h" d="M143.1 399.5h-30.2l-6.6 19.5h-38.7l-6.6-19.5h-29l35.2 97h40.7l35.2-97zM86.4 475.1l-11.9-35h24.8l-11.9 35h-1zM218.1 399.5h-71.3v97h27v-73.8h44.3v-23.2zM299.8 399.5h-76.3v97h76.3v-21.2h-49.3v-16.6h49.3v-21.2h-49.3v-16.8h49.3v-21.2zM334.8 399.5h-27v97h51c28.3 0 37.3-6.6 37.3-26.3v-1.8c0-13.7-4.3-21.2-15.9-23v-1c11.1-1.9 15.9-4.9 15.9-22.6v-22.3h-27.2v21.5c0 9-2.9 11.5-14.5 11.5h-19.5v-33zM334.8 475.6v-22.3h23c7.8 0 11.1 2.6 11.1 10.4v0.5c0 8.9-3.2 11.4-13.7 11.4h-20.4zM454.5 399.5h-27.3v73.8h-28.1v23.1h84.1v-23.1h-28.7v-73.8zM564.1 399.5h-76.3v97h76.3v-21.2h-49.3v-16.6h49.3v-21.2h-49.3v-16.8h49.3v-21.2zM623.2 399.5h-27v97h27v-97zM733.2 399.5h-40.9l-32.7 67h-1v-67h-26.2v97h40.9l32.8-67h0.8v67h26.2v-97zM769.5 399.5h-27v97h76.3v-21.2h-49.3v-16.6h49.3v-21.2h-49.3v-38zM872.5 398.1c-33.9 0-47.9 13.3-47.9 46.4v6.8c0 33.2 14 46.5 47.9 46.5h2.4c33.7 0 47.9-13.3 47.9-46.5v-6.8c0-33.1-14.3-46.4-47.9-46.4h-2.4zM874.7 420.3c17.6 0 20.5 9.7 20.5 25.2v5c0 15.7-2.9 25.2-20.5 25.2h-2.1c-17.6 0-20.6-9.6-20.6-25.2v-5c0-15.5 3.1-25.2 20.6-25.2h2.1zM992 432.7h-34.6v-34.6h34.6v34.6z" />
<glyph unicode="&#x78;" glyph-name="carre" d="M12 948h1000v-1000h-1000v1000z" />
<glyph unicode="&#x79;" glyph-name="citation" d="M455.5 15h-443.5v304.4c0 154.6 33.4 280.4 99.4 373.8 73.4 104.1 186.6 166.9 336.3 186.8l7.8 1v-175.4l-4.7-1.6c-81.6-26.8-128.2-57.7-156-103.4-26-42.8-35.5-99-42.5-180.7h203.3l-0.1-404.9zM1012 15h-443.5v304.4c0 154.6 33.4 280.4 99.4 373.8 73.4 104 186.6 166.9 336.3 186.8l7.8 1v-175.4l-4.7-1.6c-81.6-26.8-128.2-57.7-156-103.4-26-42.8-35.5-99-42.5-180.7h203.2v-404.9z" />
<glyph unicode="&#x7a;" glyph-name="TV-sport" d="M1012 832.861c0-211.626 0-422.692 0-634.388-115.775 0-231.31 0-347.328 0 0-21.483 0-42.347 0-63.985 73.594 0 147.308 0 221.323 0 0-24.146 0-47.525 0-71.35-250.305 0-500.602 0-751.28 0 0 23.518 0 47.041 0 71.135 74.812 0 149.409 0 224.411 0 0 21.438 0 42.31 0 63.929-115.694 0-231.216 0-347.125 0 0 211.942 0 423.141 0 634.659 333.349 0 666.415 0 999.999 0zM946.648 767.17c-290.112 0-579.512 0-869.317 0 0-167.738 0-335.114 0-502.704 289.889 0 579.614 0 869.317 0 0 167.746 0 334.985 0 502.704zM598.428 134.486c0 21.447 0 42.31 0 63.489-57.827 0-115.278 0-173.050 0 0-21.337 0-42.338 0-63.489 57.83 0 115.155 0 173.050 0zM443.565 618.112c17.902 0 35.135 0.114 52.359-0.22 1.348-0.026 3.426-3.005 3.837-4.899 15.8-72.884 31.438-145.804 47.116-218.715 2.875-13.366 5.834-26.716 8.687-39.766 24.555 0 48.343 0 72.195 0 22.643 105.358 45.203 210.333 67.89 315.894-19.958 0-38.986 0-58.411 0-0.527-2.605-1.091-5.181-1.566-7.773-3.113-16.979-6.472-33.917-9.265-50.948-11.527-70.317-29.068-139.653-34.803-211.241-0.301 1.729-0.664 3.255-0.82 4.803-1.602 15.746-2.162 31.675-4.921 47.214-12.534 70.61-25.769 141.096-38.455 211.68-0.996 5.543-3.025 6.797-8.258 6.785-67.902-0.161-135.804-0.106-203.706-0.106-2.221 0-4.442 0-6.902 0 0-17.821 0-34.982 0-52.873 19.757 0 39.176 0 59.154 0 0-88.285 0-175.842 0-263.621 18.622 0 36.664 0 55.87 0-0.001 88.070-0.001 175.618-0.001 263.786z" />
<glyph unicode="&#xe0;" glyph-name="direct-rmcs" d="M286 340.8v214.9h102.2l20.8-21.2v-172.5l-21.7-21.2h-101.3zM324.4 522.9v-149h46.5v149h-46.5zM433.6 340.8v214.9h38.4v-214.9h-38.4zM496.5 340.8v214.9h98.6l20.8-21.4v-63.8l-17.8-18.5 17.9-17.3v-93.9h-37.8v95.4h-43.5v-95.4h-38.2zM534.9 524.1v-56.3h43.2v56.3h-43.2zM640.5 340.8v214.9h103.4v-35.2h-65v-51h60.2v-34.9h-60.5v-57.5h65.2v-36.3h-103.3zM763.9 362v172.5l21.1 21.2h75.7l21.7-21.2v-49.8l-38.1-5.4v43.2h-42.3v-149h42.3v50.1l38.5 5.7v-67.6l-20.9-20.9h-76.9l-21.1 21.2zM893.3 519.9v35.8h119.2v-35.8h-40.5v-179.1h-38.1v179.1h-40.6zM186.4 448.3c0-48.049-38.951-87-87-87s-87 38.951-87 87c0 48.049 38.951 87 87 87s87-38.951 87-87z" />
<glyph unicode="&#xe7;" glyph-name="alerte-info-rmcs" d="M622.2 381.3l23.1 162.8h34.8l-23.1-162.8h-34.8zM675.5 381.3l23.1 162.8h40.2l22.7-86.5c0.3-1.1 0.7-6.1 2-14.5 0-1.4 0.3-2.7 0.5-4.5l1.4-9c0.2 6.3 0.4 11.1 0.4 14.2 0 7.7 0 12.7 0.3 14.9l12.1 85.4h31.6l-23.1-162.8h-40l-22.4 87.2c-0.3 0.9-1.7 5.6-2.5 14.5l-0.7 7.7-1.2 7.7-0.2-6.1v-9.5c0-11.3-0.7-14.2-0.8-15.4l-12.2-86h-31.2zM805.1 381.3l23.1 162.8h82.9l-4.6-32.3h-47.9l-4.4-30.7h44l-4.5-31.8h-44.3l-9.7-68h-34.6zM900.9 399.6l17.9 126.2 20.9 18.3h59.2l15.9-18.3-17.9-126.2-21.1-18.3h-59.2l-15.7 18.3zM952 514.1l-14.6-103h26.2l14.6 103h-26.2zM14.9 381.3l62.1 162.8h24.2l15.9-162.8h-18.7l-4.7 46.3h-42.5l-17.4-46.3h-18.9zM80.9 509.5l-24.7-65.5h37.3l-6 65.5c-0.1 0.5-0.1 1.4-0.2 2.8 0 1.4 0 3.1-0.1 5.1-0.1 1.2-0.2 2.7-0.1 4.5 0 1.8-0.1 4-0.3 6.5-0.7-2.6-1.3-4.7-1.8-6.5-0.6-1.8-1-3.3-1.3-4.5-0.7-2-1.3-3.6-1.7-5.1-0.5-1.4-0.8-2.3-1.1-2.8zM128.9 381.3l23.1 162.8h17.8l-20.7-145.9h51l-2.4-16.9h-68.8zM211.5 381.3l23.1 162.8h70.7l-2.3-16.5h-52.6l-7.5-53.1h49l-2.2-15.8h-49.2l-8.6-60.5h52.8l-2.4-16.9h-70.8zM303 381.3l23.1 162.8h70l9.8-12.2-7.8-54.9-12.3-10.6 9.4-9.9-10.7-75.2h-17.8l11 77.7h-45.8l-11-77.7h-17.9zM342 528.7l-7.8-54.9h45.6l7.8 54.9h-45.6zM414.9 527.2l2.4 16.9h88.5l-2.4-16.9h-35.4l-20.7-145.9h-17.8l20.7 145.9h-35.3zM492.4 381.3l23.1 162.8h70.7l-2.3-16.5h-52.6l-7.5-53.1h49l-2.2-15.8h-49.2l-8.6-60.5h52.8l-2.4-16.9h-70.8z" />
<glyph unicode="&#xe8;" glyph-name="replay1" d="M284.7 93.2l-139.4-87.3v174.7l139.4-87.4zM441.9 137.8c-7.3 13.2-18.1 24.2-31.2 31.7-13.3 7.6-28.3 11.4-44.9 11.4-24.1 0-44.3-8.2-60.5-24.6l-6.5 20.6h-23.4v-51.2l33.9-21.2c1.1 5.8 3.1 11.3 6 16.4 4.6 8.4 11.5 15.2 19.8 19.8 8.7 4.8 18.4 7.3 28.4 7.2 15.8 0 28.9-5.2 39.3-15.7s15.6-23.7 15.6-39.5c0-15.8-5.2-28.9-15.6-39.5-10.4-10.5-23.6-15.7-39.5-15.7s-29.1 5.2-39.5 15.7c-7.6 7.6-12.7 17.4-14.6 28l-33.8-21.1v-112.1h34.6v76.7c15.6-13.5 34.2-20.3 55.8-20.3 25.1 0 46 8.4 62.5 25.1 16.5 16.8 24.8 37.8 24.8 63.1 0.1 16.7-3.6 31.7-11.2 45.2zM471.7 8.3v207.6l34.8 21.6v-229.1l-34.8-0.1zM677.8 176.9h26.8v-168.3h-28.1l-3.5 20.6c-16.2-16.4-36.4-24.6-60.8-24.6-25.1 0-46.1 8.4-62.8 25.2s-25.1 37.9-25.1 63.1c0 25.2 8.4 46.3 25.1 63s37.6 25.1 62.8 25.1c24.7 0 45.2-8.3 61.4-25l4.2 20.9zM575.5 53.4c10.5-10.5 23.6-15.7 39.6-15.7 15.9 0 29 5.2 39.3 15.7s15.4 23.7 15.4 39.6-5.1 29-15.4 39.4-23.4 15.6-39.5 15.6c-9.9 0.1-19.6-2.3-28.3-7.2-8.3-4.7-15.2-11.5-19.8-19.8-4.8-8.6-7.3-18.4-7.2-28.3 0.1-15.8 5.3-28.9 15.9-39.3zM847.9 177.3h33.2l-95.1-227.8h-33.2l31.5 75.3-61 152.4h35.7l43.6-118.1 45.3 118.2zM340.4 854.7c0 84.7-63.7 84.7-70.8 84.7h-150.5l-37.1-307.8h95.5l7.1 96.8c0 0 1.7 8.6 10.6 8.6 8.8 0 10.6-6.9 10.6-6.9l22.9-98.6h92.1l-33.5 119.5c0 0 53.1 19 53.1 103.7zM248.4 832.2c-1.7-34.6-30.1-38-30.1-38h-26.5l7.1 81.2h21.1c7.2 1.7 30.1-8.6 28.4-43.2zM388.3 937.6h79.7l46-148.6 77.9 148.7h81.4l-30.1-306.1h-83.2l8.8 115.8-56.6-115.8h-28.2l-35.4 109-12.4-108.9h-83.2l35.3 305.9zM888.1 827h14.1l38.9 62.2c0 0 3.6 8.6-5.3 17.3-8.8 8.6-33.6 41.5-97.4 41.5s-132.7-51.9-146.9-145.3c-12.4-79.6 14.1-155.7 90.3-174.7 76.1-19 131 31.1 138.1 50.1 1.7 6.9 1.7 8.6 0 12.1s-24.8 46.7-24.8 46.7h-14.1c0 0-3.6 0-8.8-3.5-3.6-3.5-17.7-19-24.8-20.7-10.6-10.4-70.8-8.6-67.3 65.7 7.1 81.2 65.5 81.2 65.5 81.2s17.8 3.7 42.5-32.6zM232.5 356.6h-54.6v57.9h59.5c23.1 0 33-9.9 33-28.1-1.6-24.9-18.1-29.8-37.9-29.8zM176.2 517h49.7c19.8 0 31.4-5 31.4-21.5 0-19.8-13.2-24.8-31.4-24.8h-49.7v46.3zM808 589.8l-43-180.2h-1.7l-44.6 180.2h-360.5v-180.2c-9.9 23.1-28.1 36.3-47.9 43 23.1 13.2 38 29.7 38 59.6 0 31.4-16.5 76.1-97.6 76.1h-168.7v-306h173.6c43 0 86 21.5 100.9 61.2v-61.2h94.3v117.2h86v71.1h-86v46.4h132.3l0.3-235.3h89.3l-0.3 197.3h1.7l53-196.8h71.1l53 196.8h1.7v-196.8h89.3v307.6h-134.2z" />
<glyph unicode="&#xe9;" glyph-name="endirect" d="M118.8 380.2h-106.8v135.6h106.8v-29.6h-69v-23.3h69v-29.7h-69v-23.4h69v-29.6zM270.9 380.2h-57.2l-45.7 93.8h-1.4v-93.8h-36.6v135.6h57.2l45.9-93.8h1.2v93.8h36.6v-135.6zM447.1 445.1c0-46.3-19.6-64.9-67.1-64.9h-62.6v135.6h62.6c46.9 0 67.1-18.6 67.1-65.1v-5.6zM355.3 485.2v-74.4h24.2c24.2 0 29.1 14 29.1 35.7v3.1c0 21.9-4.8 35.7-29.1 35.7h-24.2zM495.5 380.2h-37.8v135.6h37.8v-135.6zM546.3 380.2h-37.8v135.6h71.3c39.5 0 52.1-9.3 52.1-36.8v-2.5c0-19.2-6-29.7-22.3-32.2v-1.3c15.5-2.7 22.3-6.8 22.3-31.6v-31.2h-38v30c0 12.6-4.1 16.1-20.3 16.1h-27.3v-46.1zM546.3 486.6v-31.2h32.2c10.9 0 15.5 3.7 15.5 14.5v0.8c0 12.4-4.5 15.9-19.2 15.9h-28.5zM749.9 380.2h-106.8v135.6h106.8v-29.6h-69v-23.3h69v-29.7h-69v-23.4h69v-29.6zM823.9 378.2c-47.3 0-65.3 18.6-65.3 64.9v9.7c0 46.3 18 64.9 65.3 64.9h3.5c41.3 0 58.9-15.1 64.3-47.1h-38.8c-3.7 11.6-11.6 16.1-26.4 16.1h-1.7c-24.6 0-27.9-13.6-27.9-35.3v-7c0-21.7 3.3-35.3 27.9-35.3h1.7c14.7 0 22.7 4.5 26.4 16.1h38.8c-5.4-32-23.1-47.1-64.3-47.1h-3.5zM971.9 380.2h-38.2v103.3h-39.3v32.4h117.6v-32.4h-40.1v-103.3z" />
<glyph unicode="&#xf9;" glyph-name="meteo" d="M615.3 387.2h-2.7l-0.8 2.5c-27.6 98.2-117.4 166.9-218.4 166.9-81.1 0-153.3-42.7-193.3-114.1l-1.1-1.9-2.1 0.2c-4.8 0.4-9.7 0.7-14.6 0.7-93.8-0.1-170.2-77.4-170.3-172.2 0.1-95 76.5-172.2 170.4-172.2h433c79.1 0 143.5 65.1 143.5 145.1 0 79.9-64.4 145-143.6 145zM615.3 156.9h-433c-61.1 0.1-110.9 50.4-111 112.3 0.1 61.9 49.9 112.3 111.2 112.4 38.8 0 74.2-20.2 94.6-53.9 4-6.6 10.7-11.5 18.4-13.4 7.8-1.9 15.7-0.7 22.5 3.3 6.7 4.2 11.4 10.7 13.3 18.5 1.8 7.8 0.6 15.7-3.5 22.6-16.1 26.7-39 48.5-66.3 63l-3.4 1.8 2.2 3.2c30.8 45 78.1 69.8 133 70 82.1 0 153.4-62 165.8-144.1 2.1-14.5 14.7-25.4 29.3-25.4l26.8 0.2c46.4 0 84.1-38.3 84.2-85.2 0.1-47-37.7-85.2-84.1-85.3zM644 708.8v54.8c0 19.5 15.7 35.3 35 35.3 9.3 0 18.1-3.7 24.7-10.3 6.7-6.7 10.4-15.6 10.4-25.1v-54.8c0-19.5-15.7-35.3-35-35.3-19.4 0-35.1 15.9-35.1 35.4zM443.5 650.4c-13.6 13.7-13.6 36.1 0 49.9 6.6 6.7 15.5 10.4 24.8 10.4 0 0 0 0 0 0 9.4 0 18.2-3.7 24.8-10.4l38.3-38.7c13.6-13.8 13.6-36.2 0-49.9-6.6-6.7-15.4-10.4-24.8-10.4 0 0 0 0 0 0-9.4 0-18.2 3.7-24.8 10.4l-38.3 38.7zM826.6 611.6c-13.6 13.7-13.6 36.1 0 49.9l38.3 38.7c6.6 6.7 15.4 10.4 24.8 10.4 0 0 0 0 0 0 9.4 0 18.2-3.7 24.8-10.4 13.6-13.8 13.5-36.2 0-49.9l-38.3-38.8c-6.6-6.7-15.4-10.4-24.8-10.4s-18.2 3.8-24.8 10.5zM1012 462.2c0-19.5-15.7-35.3-35-35.3h-54.2c-19.3 0-35 15.8-35 35.3s15.7 35.3 35 35.3h54.2c19.3 0 35-15.8 35-35.3zM914.5 274.1c13.6-13.8 13.6-36.1 0-49.9-6.6-6.7-15.4-10.4-24.8-10.4 0 0 0 0 0 0-9.4 0-18.2 3.7-24.8 10.4l-38.3 38.8c-13.6 13.8-13.6 36.1 0 49.9 6.6 6.7 15.4 10.4 24.8 10.4 0 0 0 0 0 0 9.4 0 18.2-3.7 24.8-10.3v0l38.3-38.9zM849.5 462.2c0-54.3-24.7-104.4-67.8-137.3l-7.5-5.8-4.3 8.5c-8.2 15.9-18.6 30-31 42l-6.6 6.4 7.3 5.6c25.4 19.6 40 49 40 80.7 0 56-45 101.6-100.4 101.6-35.6 0-68.9-19.7-86.8-51.5l-5.2-9.2-7.4 7.6c-11.8 12.2-25.4 23.2-41.5 33.6l-6.6 4.3 4.2 6.6c31.6 49.7 85.2 79.3 143.4 79.3 93.7-0.1 170.2-77.4 170.2-172.4z" />
</font>
</defs>
</svg>
