<?xml version="1.0" standalone="no"?>
<!DOCTYPE svg PUBLIC "-//W3C//DTD SVG 1.1//EN" "http://www.w3.org/Graphics/SVG/1.1/DTD/svg11.dtd" >
<svg xmlns="http://www.w3.org/2000/svg" xmlns:xlink="http://www.w3.org/1999/xlink" version="1.1">
<metadata></metadata>
<defs>
<font id="copyright_gennotfordesktopuse" horiz-adv-x="925" >
<font-face units-per-em="2048" ascent="1536" descent="-512" />
<missing-glyph horiz-adv-x="292" />
<glyph horiz-adv-x="0" />
<glyph unicode="&#xd;" horiz-adv-x="681" />
<glyph unicode=" "  horiz-adv-x="292" />
<glyph unicode="&#x09;" horiz-adv-x="292" />
<glyph unicode="&#xa0;" horiz-adv-x="292" />
<glyph unicode="!" horiz-adv-x="438" d="M57 782v652h324v-652l-74 -311h-176zM70 0v319h299v-319h-299z" />
<glyph unicode="&#x22;" horiz-adv-x="686" d="M45 776v658h254v-658h-254zM385 776v658h254v-658h-254z" />
<glyph unicode="#" d="M31 383v227h147l31 215h-119v228h150l55 381h199l-56 -381h137l56 381h198l-55 -381h119v-228h-150l-30 -215h123v-227h-154l-53 -383h-197l53 383h-139l-53 -383h-199l56 383h-119zM369 602h153l33 232h-154z" />
<glyph unicode="$" d="M47 410h313q6 -104 34 -132t73 -28q55 0 79.5 26.5t24.5 88.5v57q0 90 -29.5 123t-109.5 41l-90 10q-121 14 -183.5 68.5t-84 137.5t-21.5 181v29q0 193 72 286t233 111v240h207v-240q158 -16 231.5 -103t80.5 -274h-314q-6 96 -27.5 124t-74.5 28q-51 0 -73.5 -29 t-22.5 -113v-24q0 -86 28.5 -118t108.5 -42l92 -10q121 -14 183.5 -68.5t84 -136.5t21.5 -182v-17q0 -197 -76 -298t-240 -119v-242h-207v240q-158 16 -229.5 105t-83.5 280z" />
<glyph unicode="%" horiz-adv-x="1423" d="M41 993v137q0 131 30.5 201t91 96.5t148.5 26.5h23q90 0 149.5 -26.5t89 -96t29.5 -201.5v-137q0 -129 -29.5 -198.5t-89 -96t-149.5 -26.5h-23q-88 0 -148.5 26.5t-91 96t-30.5 198.5zM258 985q0 -86 12.5 -111.5t51.5 -25.5t51 25.5t12 111.5v156q0 84 -12.5 109.5 t-50.5 25.5q-39 0 -51.5 -25.5t-12.5 -109.5v-156zM274 0l687 1434h188l-686 -1434h-189zM819 303v135q0 131 31 201t91 96.5t149 26.5h22q90 0 149.5 -26.5t90 -96.5t30.5 -201v-135q0 -129 -30.5 -199.5t-90 -97t-149.5 -26.5h-22q-88 0 -148.5 26.5t-91.5 97t-31 199.5z M1038 293q0 -86 12.5 -111.5t51.5 -25.5t50 25.5t11 111.5v156q0 84 -11 109.5t-50 25.5t-51.5 -26t-12.5 -109v-156z" />
<glyph unicode="&#x26;" horiz-adv-x="1112" d="M31 383v14q0 145 40 235.5t148 153.5v9q-55 66 -78.5 132t-23.5 181v12q0 96 36.5 172t121.5 119t231 43h18q139 0 225.5 -38t127.5 -128t45 -250h-308q-4 104 -24.5 134t-67.5 30h-4q-45 0 -64.5 -21.5t-19.5 -72.5v-8q0 -51 12.5 -88t51.5 -86l247 -318l68 246h283 l-166 -481l61 -78q18 -18 31.5 -24.5t40.5 -6.5h29v-264h-82q-61 0 -97 5t-59 20.5t-47 44.5l-39 49q-53 -78 -126 -108.5t-196 -30.5h-26q-207 0 -298 90t-91 313zM334 356q0 -70 28 -97.5t89 -27.5h22q37 0 65.5 16.5t61.5 80.5l-207 258q-31 -12 -45 -40t-14 -83v-107z " />
<glyph unicode="'" horiz-adv-x="344" d="M45 776v658h254v-658h-254z" />
<glyph unicode="(" horiz-adv-x="540" d="M82 543v164q0 266 41 418.5t127 222t219 86.5v-183q-66 -16 -111 -68.5t-66.5 -167t-21.5 -325.5v-131q0 -209 21.5 -324.5t66.5 -167t111 -69.5v-182q-133 18 -219 86.5t-127 221t-41 419.5z" />
<glyph unicode=")" horiz-adv-x="540" d="M70 -2q68 18 111.5 69.5t65 167t21.5 324.5v131q0 211 -21.5 325.5t-65.5 167t-111 68.5v183q135 -16 220 -86t126 -222.5t41 -418.5v-164q0 -266 -41 -419t-126 -221.5t-220 -86.5v182z" />
<glyph unicode="*" horiz-adv-x="862" d="M29 1071l67 201l244 -103l6 5l-14 260h200l-16 -260l6 -5l246 103l66 -201l-254 -67l-2 -7l167 -211l-163 -127l-144 224h-12l-145 -224l-160 127l166 211l-2 7z" />
<glyph unicode="+" horiz-adv-x="954" d="M59 561v225h306v406h225v-406h305v-225h-305v-405h-225v405h-306z" />
<glyph unicode="," horiz-adv-x="397" d="M47 0v319h303v-192q0 -102 -15.5 -178t-55.5 -178l-23 -58h-170l90 269v18h-129z" />
<glyph unicode="-" horiz-adv-x="421" d="M27 477v244h366v-244h-366z" />
<glyph unicode="." horiz-adv-x="397" d="M49 0v319h299v-319h-299z" />
<glyph unicode="/" horiz-adv-x="794" d="M0 -205l612 1639h183l-613 -1639h-182z" />
<glyph unicode="0" horiz-adv-x="956" d="M49 508v418q0 207 43 321.5t135 160.5t240 46h22q150 0 242 -46t134 -160.5t42 -321.5v-418q0 -207 -43 -321.5t-134 -160.5t-241 -46h-22q-147 0 -239.5 46t-135.5 160.5t-43 321.5zM356 461q0 -92 11.5 -140.5t38 -65.5t73.5 -17t74 17t37 65.5t10 140.5v510 q0 94 -11 142t-37 65.5t-73 17.5t-74.5 -17.5t-38 -65.5t-10.5 -142v-510z" />
<glyph unicode="1" horiz-adv-x="677" d="M47 1012v317l219 105h344v-1434h-307v1151h-12z" />
<glyph unicode="2" d="M51 0v248q0 113 16.5 183.5t59.5 125.5t121 115l227 180q61 49 79.5 86t18.5 111v12q0 84 -23.5 110.5t-78.5 26.5q-37 0 -60.5 -12t-34.5 -51t-14 -121h-309q8 176 53.5 271t132.5 132t218 37h22q217 0 308.5 -90t91.5 -270v-17q0 -98 -16.5 -167.5t-59.5 -125 t-123 -114.5l-236 -187q-47 -39 -67.5 -81t-20.5 -119v-19h525v-264h-830z" />
<glyph unicode="3" d="M45 432h309q2 -88 15.5 -130t39 -54t60.5 -12q59 0 81.5 29.5t22.5 123.5v64q0 96 -21.5 122.5t-80.5 26.5h-131v270h125q59 0 79.5 28t20.5 118v39q0 90 -24.5 115.5t-73.5 25.5q-33 0 -55.5 -11t-33.5 -48t-16 -117h-307q8 166 53.5 260t131.5 133t217 39h20 q207 0 301 -82t94 -270v-17q0 -139 -42 -206.5t-123 -94.5v-10q90 -18 132 -88t42 -217v-43q0 -168 -40 -265.5t-128.5 -139t-233.5 -41.5h-22q-131 0 -221.5 39.5t-137.5 138t-53 274.5z" />
<glyph unicode="4" d="M31 332v368l362 734h422v-842h103v-260h-103v-332h-307v332h-477zM254 592h254v485h-10l-244 -471v-14z" />
<glyph unicode="5" d="M47 412h307q4 -78 17.5 -116t38 -49t57.5 -11q59 0 82.5 33.5t23.5 142.5v141q0 111 -25.5 143.5t-88.5 32.5q-45 0 -76 -23.5t-47 -107.5h-281l45 836h754v-265h-475l-19 -309h11q27 55 74 87t143 32q145 0 219 -86t74 -293v-147q0 -176 -41 -279.5t-129.5 -148.5 t-231.5 -45h-20q-133 0 -223.5 38.5t-136.5 134t-52 259.5z" />
<glyph unicode="6" d="M49 510v414q0 217 43 331.5t133 156.5t234 42h18q201 0 294 -92t108 -305h-310q-6 90 -29.5 116.5t-72.5 26.5q-41 0 -65.5 -16.5t-35 -62.5t-10.5 -136v-176h9q23 47 71.5 81t136.5 34q174 0 240 -93.5t66 -310.5v-74q0 -176 -41 -278t-129.5 -145t-227.5 -43h-18 q-139 0 -231.5 41.5t-137.5 156.5t-45 332zM356 408q0 -106 23 -140.5t84 -34.5q63 0 85.5 34t22.5 141v120q0 106 -23.5 140t-84.5 34t-84 -33.5t-23 -140.5v-120z" />
<glyph unicode="7" d="M33 1169v265h868v-267l-442 -1167h-348l458 1155v14h-536z" />
<glyph unicode="8" d="M49 412v20q0 150 34 231.5t118 108.5v10q-82 27 -115 103t-33 194v15q0 180 89 270t313 90h16q223 0 312 -90t89 -270v-15q0 -119 -32.5 -194.5t-114.5 -102.5v-10q84 -27 118 -108.5t34 -231.5v-20q0 -162 -42 -257.5t-131.5 -135t-230.5 -39.5h-20q-139 0 -229.5 39.5 t-132.5 135t-42 257.5zM354 389q0 -98 25 -127t84 -29t82.5 29t23.5 127v105q0 100 -21.5 130.5t-74.5 30.5h-20q-55 0 -77 -30.5t-22 -130.5v-105zM362 1024q0 -92 20.5 -121t70.5 -29h18q53 0 72.5 29t19.5 121v31q0 92 -23.5 118.5t-76.5 26.5q-55 0 -78 -26.5 t-23 -118.5v-31z" />
<glyph unicode="9" d="M47 377h309q6 -90 30 -117t73 -27q43 0 66.5 16.5t33.5 62.5t10 137v176h-8q-20 -45 -69.5 -80t-139.5 -35q-174 0 -239.5 93t-65.5 310v74q0 178 41 279.5t129 144.5t227 43h19q139 0 231 -42t137.5 -156.5t45.5 -331.5v-414q0 -217 -43 -332t-133.5 -156.5 t-233.5 -41.5h-18q-201 0 -294.5 92t-107.5 305zM354 905q0 -106 23.5 -140t85.5 -34q61 0 83.5 34t22.5 140v121q0 106 -22.5 140t-83.5 34q-63 0 -86 -33.5t-23 -140.5v-121z" />
<glyph unicode=":" horiz-adv-x="397" d="M49 0v319h299v-319h-299zM49 764v319h299v-319h-299z" />
<glyph unicode=";" horiz-adv-x="397" d="M47 0v319h303v-192q0 -102 -15.5 -178t-55.5 -178l-23 -58h-170l90 269v18h-129zM49 764v319h299v-319h-299z" />
<glyph unicode="&#x3c;" horiz-adv-x="954" d="M66 561v223l823 361v-246l-533 -221v-12l533 -222v-243z" />
<glyph unicode="=" horiz-adv-x="954" d="M72 313v226h811v-226h-811zM72 807v227h811v-227h-811z" />
<glyph unicode="&#x3e;" horiz-adv-x="954" d="M68 201v245l532 222v12l-532 221v244l823 -361v-223z" />
<glyph unicode="?" horiz-adv-x="868" d="M31 995q4 182 48 281.5t132 138.5t217 39h21q207 0 298 -90t91 -266v-21q0 -96 -15.5 -162.5t-55.5 -120t-116 -112.5q-41 -33 -63.5 -60.5t-31.5 -61.5t-11 -91h-287v61q0 78 11.5 126.5t45 88t97.5 89.5q51 39 76.5 66.5t33.5 62t8 88.5v12q0 82 -20.5 108.5 t-73.5 26.5q-35 0 -56.5 -13.5t-30.5 -56.5t-11 -133h-307zM252 0v319h297v-319h-297z" />
<glyph unicode="@" horiz-adv-x="1529" d="M63 422v65q0 293 91.5 497t258.5 310.5t396 106.5q197 0 347.5 -68.5t236.5 -222.5t86 -414v-34q0 -190 -42 -332t-131 -220.5t-235 -78.5q-109 0 -163 41t-60 125h-10q-20 -49 -66.5 -88t-132.5 -39h-16q-82 0 -140.5 34.5t-82 127t-5.5 262.5l8 67q20 166 58.5 258 t99 128t144.5 36h16q84 0 128 -37t52 -88h10l15 109h252l-80 -666q-8 -70 5 -94.5t52 -24.5q78 0 126 124t48 351v35q0 219 -65.5 345t-184 178.5t-276.5 52.5q-195 0 -327 -100.5t-198.5 -276.5t-66.5 -406v-67q0 -309 151.5 -455.5t446.5 -146.5q61 0 133 10t158 39v-131 q-35 -16 -116 -32.5t-183 -16.5q-225 0 -391 74.5t-256.5 236.5t-90.5 426zM666 432q-10 -94 8 -122.5t59 -28.5q47 0 68.5 33.5t36.5 131.5l20 177q12 92 -7.5 120.5t-59.5 28.5q-45 0 -68 -32.5t-35 -133.5z" />
<glyph unicode="A" horiz-adv-x="1073" d="M12 0l287 1434h473l289 -1434h-344l-47 270h-279l-45 -270h-334zM436 547h191l-90 559h-13z" />
<glyph unicode="B" horiz-adv-x="995" d="M66 0v1434h475q147 0 234 -32t125 -115t38 -234v-13q0 -129 -41 -200.5t-133 -91.5v-11q98 -16 139 -93t41 -234v-21q0 -156 -39 -239.5t-126 -116.5t-232 -33h-481zM387 262h125q43 0 66.5 10.5t34 44t10.5 103.5v41q0 72 -10.5 104.5t-35 41.5t-67.5 9h-123v-354z M387 854h131q37 0 58.5 9t30.5 41t9 102v8q0 104 -22.5 129.5t-81.5 25.5h-125v-315z" />
<glyph unicode="C" horiz-adv-x="1007" d="M51 520v393q0 209 43 327t140.5 166t259.5 48h28q152 0 245 -43t139 -151.5t55 -307.5h-326q-4 102 -18.5 151.5t-40 66t-64.5 16.5h-10q-82 0 -104.5 -51.5t-22.5 -190.5v-455q0 -139 22.5 -190t104.5 -51h10q39 0 64.5 16.5t40 66.5t18.5 150h326q-8 -199 -54.5 -307 t-139.5 -151t-245 -43h-28q-162 0 -259.5 48t-140.5 165.5t-43 326.5z" />
<glyph unicode="D" horiz-adv-x="1015" d="M66 0v1434h448q162 0 260 -48.5t143.5 -166t45.5 -328.5v-350q0 -209 -45.5 -327t-143.5 -166t-260 -48h-448zM387 268h119q80 0 106.5 52.5t26.5 189.5v414q0 139 -26.5 190t-106.5 51h-119v-897z" />
<glyph unicode="E" horiz-adv-x="813" d="M66 0v1434h698v-277h-377v-301h377v-276h-377v-304h377v-276h-698z" />
<glyph unicode="F" horiz-adv-x="808" d="M66 0v1434h698v-277h-377v-299h377v-276h-377v-582h-321z" />
<glyph unicode="G" horiz-adv-x="1021" d="M51 520v391q0 213 44 331t143.5 165t261.5 47h26q147 0 241.5 -41t144 -138t57.5 -269h-330q-8 115 -36 147.5t-85 32.5h-12q-82 0 -106.5 -51.5t-24.5 -190.5v-459q0 -137 24.5 -188t106.5 -51h16q51 0 78 15t37 60.5t10 131.5v125h-151v276h475v-334q0 -211 -44 -328.5 t-141.5 -164.5t-259.5 -47h-26q-162 0 -261.5 47t-143.5 164.5t-44 328.5z" />
<glyph unicode="H" horiz-adv-x="1040" d="M66 0v1434h321v-574h264v574h324v-1434h-324v575h-264v-575h-321z" />
<glyph unicode="I" horiz-adv-x="452" d="M66 0v1434h321v-1434h-321z" />
<glyph unicode="J" horiz-adv-x="647" d="M16 0v285h80q74 0 111 12t49 53t12 127v957h324v-949q0 -156 -17.5 -251t-62.5 -146t-128 -69.5t-212 -18.5h-156z" />
<glyph unicode="K" horiz-adv-x="1050" d="M66 0v1434h321v-621h10l279 621h360l-311 -592l319 -842h-364l-182 500h-11l-100 -183v-317h-321z" />
<glyph unicode="L" horiz-adv-x="724" d="M66 0v1434h321v-1149h315v-285h-636z" />
<glyph unicode="M" horiz-adv-x="1437" d="M66 0v1434h514l145 -791h10l144 791h491v-1434h-307v1061h-12l-203 -1061h-260l-203 1061h-12v-1061h-307z" />
<glyph unicode="N" horiz-adv-x="1101" d="M66 0v1434h411l256 -869h10v869h293v-1434h-411l-256 866h-11v-866h-292z" />
<glyph unicode="O" horiz-adv-x="1024" d="M51 520v391q0 213 44 331t143.5 165t261.5 47h26q162 0 259.5 -47t142.5 -165t45 -331v-391q0 -211 -45 -328.5t-142.5 -164.5t-259.5 -47h-26q-162 0 -261.5 47t-143.5 164.5t-44 328.5zM375 489q0 -139 24.5 -190t106.5 -51h12q82 0 106.5 52t24.5 189v455 q0 139 -24.5 190.5t-106.5 51.5h-12q-82 0 -106.5 -51.5t-24.5 -190.5v-455z" />
<glyph unicode="P" horiz-adv-x="983" d="M66 0v1434h473q147 0 236 -34t129 -130t40 -287v-92q0 -186 -41 -283.5t-130 -131.5t-234 -34h-152v-442h-321zM387 698h127q41 0 64.5 12.5t34 50.5t10.5 116v116q0 80 -10.5 118t-34 49t-64.5 11h-127v-473z" />
<glyph unicode="Q" horiz-adv-x="1024" d="M51 541v370q0 213 44 331t141.5 165t259.5 47h32q162 0 259.5 -47t141.5 -163t44 -324v-213q0 -150 -16.5 -232t-51.5 -120t-92 -60v-10h178v-285h-495q-162 0 -259.5 47t-141.5 165t-44 329zM375 510q0 -139 24.5 -190.5t106.5 -51.5h14q82 0 105.5 52.5t23.5 189.5v434 q0 139 -24.5 190.5t-106.5 51.5h-12q-82 0 -106.5 -51.5t-24.5 -190.5v-434z" />
<glyph unicode="R" horiz-adv-x="999" d="M66 0v1434h466q152 0 242 -31t130 -114t40 -245v-18q0 -115 -18.5 -181.5t-55 -99t-96.5 -47.5v-10q59 -12 96 -37.5t55.5 -92t18.5 -200.5v-358h-321v385q0 76 -10.5 110.5t-36 45t-68.5 10.5h-121v-551h-321zM387 803h135q53 0 77 26.5t24 133.5v43q0 74 -10.5 108.5 t-35 44.5t-67.5 10h-123v-366z" />
<glyph unicode="S" horiz-adv-x="958" d="M37 412h330q4 -76 19 -113t40 -48t59 -11q59 0 85 29.5t26 123.5v39q0 72 -22.5 104.5t-96.5 41.5l-98 10q-125 14 -197.5 55t-104.5 125t-32 227v17q0 168 43 264t135 137t240 41h22q145 0 239.5 -41t141.5 -139t52 -268h-330q-4 82 -17.5 120.5t-36 52t-59.5 13.5 q-59 0 -82.5 -28.5t-23.5 -125.5v-32q0 -72 22.5 -105t95.5 -41l99 -10q125 -12 197.5 -54t105.5 -126t33 -228v-18q0 -170 -46.5 -267.5t-140.5 -137t-239 -39.5h-23q-217 0 -322.5 95t-113.5 337z" />
<glyph unicode="T" horiz-adv-x="843" d="M14 1149v285h815v-285h-249v-1149h-324v1149h-242z" />
<glyph unicode="U" horiz-adv-x="993" d="M53 500v934h326v-942q0 -94 10 -141.5t33.5 -63t66.5 -15.5h15q43 0 67.5 16.5t34.5 63.5t10 140v942h324v-934q0 -209 -41 -321.5t-135 -155.5t-254 -43h-25q-160 0 -255 43t-136 155.5t-41 321.5z" />
<glyph unicode="V" horiz-adv-x="1050" d="M12 1434h346l166 -1074h15l166 1074h333l-286 -1434h-453z" />
<glyph unicode="W" horiz-adv-x="1531" d="M12 1434h336l103 -1053h12l143 1053h334l141 -1053h13l102 1053h322l-207 -1434h-414l-123 817l-139 -817h-414z" />
<glyph unicode="X" horiz-adv-x="1048" d="M18 0l283 739l-266 695h360l133 -455h11l139 455h340l-268 -699l282 -735h-364l-144 498h-10l-154 -498h-342z" />
<glyph unicode="Y" horiz-adv-x="997" d="M10 1434h344l152 -553h8l154 553h319l-328 -875v-559h-325v555z" />
<glyph unicode="Z" horiz-adv-x="856" d="M39 0v274l403 877h-381v283h750v-275l-405 -878h421v-281h-788z" />
<glyph unicode="[" horiz-adv-x="589" d="M152 -184v1618h366v-160h-180v-1299h180v-159h-366z" />
<glyph unicode="\" horiz-adv-x="794" d="M0 1434h182l613 -1639h-183z" />
<glyph unicode="]" horiz-adv-x="589" d="M72 -25h180v1299h-180v160h366v-1618h-366v159z" />
<glyph unicode="^" horiz-adv-x="1103" d="M57 453l410 981h170l407 -981h-249l-240 598h-6l-242 -598h-250z" />
<glyph unicode="_" horiz-adv-x="841" d="M0 -111h842v-157h-842v157z" />
<glyph unicode="`" horiz-adv-x="1024" d="M307 1434h297l111 -246h-234z" />
<glyph unicode="a" horiz-adv-x="841" d="M33 324v16q0 156 63.5 225.5t218.5 83.5l193 17v82q0 94 -19.5 117.5t-68.5 23.5q-43 0 -63.5 -22.5t-24.5 -108.5h-281q12 195 97 271.5t272 76.5h10q133 0 214 -34t118 -118t37 -231v-723h-277v139h-10q-23 -86 -76 -122.5t-145 -36.5q-137 0 -197.5 78.5t-60.5 265.5z M324 315q0 -78 20.5 -102.5t58.5 -24.5q55 0 80 36t25 128v125l-98 -8q-51 -2 -68.5 -27.5t-17.5 -85.5v-41z" />
<glyph unicode="b" horiz-adv-x="862" d="M45 0v1434h291v-465h8q20 66 63.5 101.5t133.5 35.5h8q84 0 145.5 -35t95 -128t33.5 -269v-262q0 -174 -33.5 -267.5t-95 -129t-145.5 -35.5h-8q-90 0 -133 36.5t-64 100.5h-8v-117h-291zM336 412q0 -82 8 -123t29.5 -54.5t60.5 -13.5t60.5 13.5t29.5 54.5t8 123v262 q0 84 -8 124t-29.5 52t-60.5 12t-60.5 -12t-29.5 -52t-8 -124v-262z" />
<glyph unicode="c" horiz-adv-x="821" d="M39 434v215q0 178 40 277.5t124 139.5t211 40h14q129 0 207 -39t114.5 -127t43.5 -240h-283q-4 74 -14.5 109t-27.5 44t-46 9q-35 0 -55.5 -13t-28.5 -52t-8 -121v-266q0 -121 20.5 -155t71.5 -34q29 0 46 10.5t27.5 45t14.5 108.5h283q-6 -150 -43 -239t-115 -127.5 t-207 -38.5h-20q-125 0 -207 39.5t-122 139t-40 275.5z" />
<glyph unicode="d" horiz-adv-x="862" d="M39 412v262q0 176 33.5 269t95 128t145.5 35h9q90 0 133 -36t63 -101h8v465h291v-1434h-291v117h-8q-20 -63 -63 -100t-133 -37h-9q-84 0 -145.5 35.5t-95 129t-33.5 267.5zM330 412q0 -82 8 -123t29.5 -54.5t60.5 -13.5t60.5 13.5t29.5 54.5t8 123v262q0 84 -8 124 t-29.5 52t-60.5 12t-60.5 -12t-29.5 -52t-8 -124v-262z" />
<glyph unicode="e" horiz-adv-x="845" d="M39 436v213q0 178 41 277.5t125 139.5t213 40h16q131 0 213 -40t121 -138.5t39 -276.5v-172h-477v-73q0 -82 9 -123t29.5 -54.5t57.5 -13.5q41 0 61.5 22.5t26.5 106.5h291q-14 -184 -94 -274t-271 -90h-30q-125 0 -207 39.5t-123 140t-41 276.5zM330 662h186v63 q0 109 -22.5 136.5t-69.5 27.5q-37 0 -57.5 -12.5t-28.5 -53.5t-8 -125v-36z" />
<glyph unicode="f" horiz-adv-x="573" d="M4 844v241h109v72q0 152 78.5 214.5t254.5 62.5h109v-232h-66q-47 0 -66.5 -15.5t-19.5 -60.5v-41h152v-241h-152v-844h-290v844h-109z" />
<glyph unicode="g" horiz-adv-x="858" d="M39 446v238q0 170 32.5 261t93 126t142.5 35h6q88 0 133.5 -35t63.5 -96h10v110h291v-1030q0 -152 -36 -239.5t-117 -125.5t-220 -38h-12q-172 0 -265 62.5t-116 213.5h287q6 -35 27.5 -48t66.5 -13q53 0 73.5 29.5t20.5 132.5v127h-10q-16 -61 -59 -96t-132 -35h-6 q-84 0 -146.5 34.5t-95 125.5t-32.5 261zM330 444q0 -80 9 -117.5t30.5 -49t56.5 -11.5q37 0 57.5 11.5t28.5 49.5t8 117v240q0 82 -9 120t-29.5 48t-55.5 10t-56.5 -10t-30.5 -48t-9 -120v-240z" />
<glyph unicode="h" horiz-adv-x="854" d="M45 0v1434h291v-516h8q23 100 72 144t145 44q125 0 186.5 -62.5t61.5 -216.5v-827h-291v737q0 72 -19.5 92.5t-66.5 20.5q-51 0 -73.5 -31t-22.5 -108v-711h-291z" />
<glyph unicode="i" horiz-adv-x="380" d="M45 0v1085h291v-1085h-291zM45 1182v252h291v-252h-291z" />
<glyph unicode="j" horiz-adv-x="380" d="M-35 -348q31 57 48.5 119.5t24.5 145.5t7 200v968h291v-1009q0 -150 -17.5 -244t-62.5 -180h-291zM45 1182v252h291v-252h-291z" />
<glyph unicode="k" horiz-adv-x="890" d="M45 0v1434h291v-781h8l215 432h313l-260 -399l275 -686h-326l-137 371h-10l-78 -127v-244h-291z" />
<glyph unicode="l" horiz-adv-x="380" d="M45 0v1434h291v-1434h-291z" />
<glyph unicode="m" horiz-adv-x="1314" d="M45 0v1085h291v-167h8q23 100 71 144t144 44q102 0 162.5 -44t75.5 -147h6q20 100 72.5 145.5t150.5 45.5q123 0 184.5 -62.5t61.5 -214.5v-829h-291v737q0 72 -19.5 92.5t-64.5 20.5q-51 0 -72.5 -29.5t-21.5 -107.5v-713h-291v737q0 72 -18.5 92.5t-63.5 20.5 q-51 0 -72.5 -29.5t-21.5 -107.5v-713h-291z" />
<glyph unicode="n" horiz-adv-x="854" d="M45 0v1085h291v-167h8q23 100 72 144t145 44q125 0 186.5 -62.5t61.5 -216.5v-827h-291v737q0 72 -19.5 92.5t-66.5 20.5q-51 0 -73.5 -31t-22.5 -108v-711h-291z" />
<glyph unicode="o" horiz-adv-x="858" d="M39 436v213q0 172 37 271.5t121 142.5t221 43h22q137 0 220 -43t120 -142.5t37 -271.5v-213q0 -170 -37 -270t-120 -143t-222 -43h-20q-137 0 -221 43t-121 143t-37 270zM330 412q0 -84 9 -125t31.5 -53.5t57.5 -12.5q37 0 58.5 12.5t30.5 53.5t9 125v262q0 86 -9 126 t-30.5 51t-58.5 11t-58.5 -11t-30.5 -51t-9 -126v-262z" />
<glyph unicode="p" horiz-adv-x="862" d="M45 -348v1433h291v-116h8q20 66 63.5 101.5t133.5 35.5h8q84 0 145.5 -36t95 -129t33.5 -267v-262q0 -174 -33.5 -268.5t-95 -129t-145.5 -34.5h-8q-90 0 -133 36.5t-64 100.5h-8v-465h-291zM336 412q0 -82 8 -123t29.5 -53.5t60.5 -12.5t60.5 12.5t29.5 53.5t8 123v262 q0 84 -8 124t-29.5 53t-60.5 13t-60.5 -13t-29.5 -53t-8 -124v-262z" />
<glyph unicode="q" horiz-adv-x="862" d="M39 412v262q0 174 33.5 267t95 129t145.5 36h9q90 0 133 -36t63 -101h8v116h291v-1433h-291v465h-8q-20 -63 -63 -100t-133 -37h-9q-84 0 -145.5 34.5t-95 129t-33.5 268.5zM330 412q0 -82 8 -123t29.5 -53.5t60.5 -12.5t60.5 12.5t29.5 53.5t8 123v262q0 84 -8 124 t-29.5 53t-60.5 13t-60.5 -13t-29.5 -53t-8 -124v-262z" />
<glyph unicode="r" horiz-adv-x="579" d="M45 0v1085h291v-167h8q18 90 60 128.5t145 38.5h20v-309h-43q-76 0 -117.5 -15.5t-57 -59.5t-15.5 -130v-571h-291z" />
<glyph unicode="s" horiz-adv-x="835" d="M39 301h295q4 -70 27.5 -88t62.5 -18q49 0 67.5 22.5t18.5 97.5v15q0 45 -17.5 67.5t-82.5 30.5l-86 6q-102 12 -164 45t-88.5 99.5t-26.5 179.5v12q0 170 87 253t282 83h12q195 0 276.5 -78t90.5 -244h-291q-4 72 -23.5 89.5t-60.5 17.5q-45 0 -63.5 -21.5t-18.5 -93.5 v-10q0 -45 18.5 -67.5t81.5 -30.5l86 -9q104 -12 165 -44.5t87.5 -98t26.5 -178.5v-19q0 -168 -85 -253.5t-286 -85.5h-12q-201 0 -284 83.5t-95 237.5z" />
<glyph unicode="t" horiz-adv-x="573" d="M6 844v241h105v349h290v-349h143v-241h-143v-475q0 -76 19.5 -97.5t83.5 -21.5h40v-250h-122q-135 0 -201.5 31.5t-88 104.5t-21.5 196v512h-105z" />
<glyph unicode="u" horiz-adv-x="854" d="M45 258v827h291v-737q0 -72 20.5 -92t65.5 -20q51 0 73.5 31.5t22.5 107.5v710h291v-1085h-291v168h-8q-20 -100 -70.5 -144t-146.5 -44q-125 0 -186.5 62t-61.5 216z" />
<glyph unicode="v" horiz-adv-x="843" d="M4 1085h303l117 -770h10l121 770h285l-238 -1085h-360z" />
<glyph unicode="w" horiz-adv-x="1212" d="M6 1085h279l90 -704h10l119 704h235l113 -704h10l86 704h260l-166 -1085h-313l-115 614l-112 -614h-332z" />
<glyph unicode="x" horiz-adv-x="864" d="M4 0l223 553l-207 532h306l108 -348h8l109 348h295l-213 -528l227 -557h-307l-121 385h-8l-125 -385h-295z" />
<glyph unicode="y" horiz-adv-x="829" d="M4 1085h299l109 -727h8l125 727h286l-382 -1433h-295l100 323z" />
<glyph unicode="z" horiz-adv-x="702" d="M31 0v233l315 611h-301v241h619v-233l-316 -612h330v-240h-647z" />
<glyph unicode="{" horiz-adv-x="624" d="M33 510v229q80 6 115.5 22.5t46 57.5t10.5 121v147q0 139 31.5 214t102.5 104t185 29h33v-160h-27q-51 0 -81.5 -17.5t-44 -69.5t-13.5 -157v-153q0 -82 -14.5 -133.5t-58.5 -78t-132 -36.5v-8q88 -8 132 -36t58.5 -79t14.5 -133v-154q0 -104 13.5 -156.5t44 -70 t81.5 -17.5h27v-159h-33q-115 0 -185.5 28.5t-102 103.5t-31.5 214v147q0 80 -10.5 121t-46 57.5t-115.5 22.5z" />
<glyph unicode="|" horiz-adv-x="567" d="M205 -205v1639h157v-1639h-157z" />
<glyph unicode="}" horiz-adv-x="624" d="M68 -25h26q51 0 82 17.5t44 70t13 156.5v154q0 82 14.5 133t58.5 78.5t132 36.5v8q-88 10 -132 36.5t-58.5 78t-14.5 133.5v153q0 104 -13 156.5t-44 70t-82 17.5h-26v160h32q115 0 185.5 -29t102.5 -103.5t32 -214.5v-147q0 -80 10 -121t46 -57.5t116 -22.5v-229 q-80 -6 -116 -22.5t-46 -57.5t-10 -121v-147q0 -139 -32 -214t-102.5 -103.5t-185.5 -28.5h-32v159z" />
<glyph unicode="~" horiz-adv-x="954" d="M72 502v241q23 35 76 73t135 38q61 0 110 -20.5t94 -47t91.5 -47t99.5 -20.5q72 0 124 44t79 83v-242q-23 -33 -76 -71.5t-135 -38.5q-61 0 -110.5 20.5t-94.5 47t-91 47t-100 20.5q-72 0 -124 -43t-78 -84z" />
<glyph unicode="&#xa2;" horiz-adv-x="856" d="M53 434v215q0 231 67.5 330.5t211.5 120.5v200h205v-200q139 -18 199.5 -111.5t70.5 -288.5h-285q-4 74 -13 109t-27.5 44t-47.5 9q-33 0 -53.5 -13t-28.5 -52t-8 -121v-266q0 -121 20.5 -155t69.5 -34q29 0 47.5 10.5t27.5 45t13 108.5h285q-10 -195 -70.5 -288 t-199.5 -111v-201h-205v201q-141 18 -210 118.5t-69 329.5z" />
<glyph unicode="&#xa3;" d="M18 0v264h111v357h-111v192h111v154q0 188 39 294.5t123 149.5t219 43h10q125 0 203 -37t117 -129t47 -258h-275q-4 109 -22.5 138.5t-63.5 29.5q-55 0 -73.5 -37t-18.5 -153v-195h316v-192h-316v-357h447v-264h-863z" />
<glyph unicode="&#xa5;" d="M12 1434h330l127 -504h8l131 504h305l-184 -506h150v-160h-207l-39 -102h246v-158h-265v-508h-307v508h-260v158h240l-37 102h-203v160h146z" />
<glyph unicode="&#xa8;" horiz-adv-x="1024" d="M213 1184v237h256v-237h-256zM555 1184v237h256v-237h-256z" />
<glyph unicode="&#xa9;" horiz-adv-x="1253" d="M45 557v320q0 295 134 436t396 141h105q262 0 395 -141.5t133 -435.5v-320q0 -295 -133 -436t-395 -141h-105q-262 0 -396 141t-134 436zM127 602q0 -178 41 -301t142.5 -186.5t283.5 -63.5h65q184 0 286 63.5t142.5 186.5t40.5 301v229q0 178 -40.5 301t-142 186.5 t-286.5 63.5h-65q-182 0 -283.5 -63.5t-142.5 -186t-41 -301.5v-229zM324 637v160q0 139 28.5 218t93 111.5t172.5 32.5h29q158 0 223.5 -67.5t73.5 -237.5l2 -18h-233l-4 32q-4 66 -20.5 83.5t-49.5 17.5h-6q-45 0 -60.5 -29t-15.5 -119v-211q0 -88 15.5 -116.5t60.5 -28.5 h6q33 0 49.5 17.5t20.5 80.5l4 35h233l-2 -20q-8 -168 -73.5 -236t-223.5 -68h-29q-109 0 -173 33t-92.5 113t-28.5 217z" />
<glyph unicode="&#xab;" horiz-adv-x="768" d="M53 592v12l172 449h197l-180 -455l180 -455h-197zM344 592v12l172 449h197l-181 -455l181 -455h-197z" />
<glyph unicode="&#xad;" horiz-adv-x="421" d="M27 477v244h366v-244h-366z" />
<glyph unicode="&#xae;" horiz-adv-x="1253" d="M45 557v320q0 295 134 436t396 141h105q262 0 395 -141.5t133 -435.5v-320q0 -295 -133 -436t-395 -141h-105q-262 0 -396 141t-134 436zM127 602q0 -178 41 -301t142.5 -186.5t283.5 -63.5h65q184 0 286 63.5t142.5 186.5t40.5 301v229q0 178 -40.5 301t-142 186.5 t-286.5 63.5h-65q-182 0 -283.5 -63.5t-142.5 -186t-41 -301.5v-229zM340 287v860h356q139 0 195.5 -57.5t56.5 -174.5v-14q0 -90 -24.5 -135t-83.5 -59v-9q61 -12 84.5 -54t23.5 -163v-194h-233v223q0 63 -13.5 79.5t-60.5 16.5h-66v-319h-235zM575 774h76q35 0 49.5 15.5 t14.5 70.5v25q0 53 -15.5 68.5t-58.5 15.5h-66v-195z" />
<glyph unicode="&#xb4;" horiz-adv-x="1024" d="M307 1188l109 246h299l-174 -246h-234z" />
<glyph unicode="&#xb8;" horiz-adv-x="1024" d="M344 -287l109 287h237l-67 -287h-279z" />
<glyph unicode="&#xbb;" horiz-adv-x="768" d="M53 143l180 455l-180 455h197l172 -449v-12l-172 -449h-197zM346 143l180 455l-180 455h197l172 -449v-12l-172 -449h-197z" />
<glyph unicode="&#xc0;" horiz-adv-x="1073" d="M12 0l287 1434h473l289 -1434h-344l-47 270h-279l-45 -270h-334zM250 1761h297l110 -245h-233zM436 547h191l-90 559h-13z" />
<glyph unicode="&#xc1;" horiz-adv-x="1073" d="M12 0l287 1434h473l289 -1434h-344l-47 270h-279l-45 -270h-334zM424 1516l108 245h299l-174 -245h-233zM436 547h191l-90 559h-13z" />
<glyph unicode="&#xc2;" horiz-adv-x="1073" d="M12 0l287 1434h473l289 -1434h-344l-47 270h-279l-45 -270h-334zM229 1516l138 245h346l139 -245h-213l-98 133l-99 -133h-213zM436 547h191l-90 559h-13z" />
<glyph unicode="&#xc6;" horiz-adv-x="1390" d="M8 0l373 1434h960v-277h-376v-301h376v-276h-376v-304h376v-276h-698v299h-221l-74 -299h-340zM487 575h156v586h-12z" />
<glyph unicode="&#xc7;" horiz-adv-x="1007" d="M51 520v393q0 209 43 327t140.5 166t259.5 48h28q152 0 245 -43t139 -151.5t55 -307.5h-326q-4 102 -18.5 151.5t-40 66t-64.5 16.5h-10q-82 0 -104.5 -51.5t-22.5 -190.5v-455q0 -139 22.5 -190t104.5 -51h10q39 0 64.5 16.5t40 66.5t18.5 150h326q-8 -174 -44 -279.5 t-108 -155.5t-186 -62l-64 -271h-278l102 273q-119 14 -192.5 69.5t-106.5 168t-33 296.5z" />
<glyph unicode="&#xc8;" horiz-adv-x="813" d="M66 0v1434h698v-277h-377v-301h377v-276h-377v-304h377v-276h-698zM125 1761h297l110 -245h-233z" />
<glyph unicode="&#xc9;" horiz-adv-x="813" d="M66 0v1434h698v-277h-377v-301h377v-276h-377v-304h377v-276h-698zM299 1516l109 245h299l-175 -245h-233z" />
<glyph unicode="&#xca;" horiz-adv-x="813" d="M66 0v1434h698v-277h-377v-301h377v-276h-377v-304h377v-276h-698zM104 1516l138 245h346l139 -245h-213l-98 133l-99 -133h-213z" />
<glyph unicode="&#xcb;" horiz-adv-x="813" d="M66 0v1434h698v-277h-377v-301h377v-276h-377v-304h377v-276h-698zM117 1528v237h256v-237h-256zM459 1528v237h256v-237h-256z" />
<glyph unicode="&#xce;" horiz-adv-x="452" d="M-84 1516l137 245h346l140 -245h-213l-99 133l-98 -133h-213zM66 0v1434h321v-1434h-321z" />
<glyph unicode="&#xcf;" horiz-adv-x="452" d="M-72 1528v237h256v-237h-256zM66 0v1434h321v-1434h-321zM270 1528v237h256v-237h-256z" />
<glyph unicode="&#xd4;" horiz-adv-x="1024" d="M51 520v391q0 213 44 331t143.5 165t261.5 47h26q162 0 259.5 -47t142.5 -165t45 -331v-391q0 -211 -45 -328.5t-142.5 -164.5t-259.5 -47h-26q-162 0 -261.5 47t-143.5 164.5t-44 328.5zM201 1516l137 245h346l139 -245h-213l-98 133l-98 -133h-213zM375 489 q0 -139 24.5 -190t106.5 -51h12q82 0 106.5 52t24.5 189v455q0 139 -24.5 190.5t-106.5 51.5h-12q-82 0 -106.5 -51.5t-24.5 -190.5v-455z" />
<glyph unicode="&#xd9;" horiz-adv-x="995" d="M53 500v934h326v-942q0 -94 10 -141.5t33.5 -63t66.5 -15.5h15q43 0 67.5 16.5t34.5 63.5t10 140v942h324v-934q0 -209 -41 -321.5t-135 -155.5t-254 -43h-25q-160 0 -255 43t-136 155.5t-41 321.5zM209 1761h297l110 -245h-233z" />
<glyph unicode="&#xdb;" horiz-adv-x="995" d="M53 500v934h326v-942q0 -94 10 -141.5t33.5 -63t66.5 -15.5h15q43 0 67.5 16.5t34.5 63.5t10 140v942h324v-934q0 -209 -41 -321.5t-135 -155.5t-254 -43h-25q-160 0 -255 43t-136 155.5t-41 321.5zM188 1516l138 245h346l139 -245h-213l-98 133l-99 -133h-213z" />
<glyph unicode="&#xdc;" horiz-adv-x="995" d="M53 500v934h326v-942q0 -94 10 -141.5t33.5 -63t66.5 -15.5h15q43 0 67.5 16.5t34.5 63.5t10 140v942h324v-934q0 -209 -41 -321.5t-135 -155.5t-254 -43h-25q-160 0 -255 43t-136 155.5t-41 321.5zM201 1528v237h256v-237h-256zM543 1528v237h256v-237h-256z" />
<glyph unicode="&#xe0;" horiz-adv-x="841" d="M33 324v16q0 156 63.5 225.5t218.5 83.5l193 17v82q0 94 -19.5 117.5t-68.5 23.5q-43 0 -63.5 -22.5t-24.5 -108.5h-281q12 195 97 271.5t272 76.5h10q133 0 214 -34t118 -118t37 -231v-723h-277v139h-10q-23 -86 -76 -122.5t-145 -36.5q-137 0 -197.5 78.5t-60.5 265.5z M143 1434h297l111 -246h-234zM324 315q0 -78 20.5 -102.5t58.5 -24.5q55 0 80 36t25 128v125l-98 -8q-51 -2 -68.5 -27.5t-17.5 -85.5v-41z" />
<glyph unicode="&#xe1;" horiz-adv-x="841" d="M33 324v16q0 156 63.5 225.5t218.5 83.5l193 17v82q0 94 -19.5 117.5t-68.5 23.5q-43 0 -63.5 -22.5t-24.5 -108.5h-281q12 195 97 271.5t272 76.5h10q133 0 214 -34t118 -118t37 -231v-723h-277v139h-10q-23 -86 -76 -122.5t-145 -36.5q-137 0 -197.5 78.5t-60.5 265.5z M315 1188l109 246h299l-174 -246h-234zM324 315q0 -78 20.5 -102.5t58.5 -24.5q55 0 80 36t25 128v125l-98 -8q-51 -2 -68.5 -27.5t-17.5 -85.5v-41z" />
<glyph unicode="&#xe2;" horiz-adv-x="841" d="M33 324v16q0 156 63.5 225.5t218.5 83.5l193 17v82q0 94 -19.5 117.5t-68.5 23.5q-43 0 -63.5 -22.5t-24.5 -108.5h-281q12 195 97 271.5t272 76.5h10q133 0 214 -34t118 -118t37 -231v-723h-277v139h-10q-23 -86 -76 -122.5t-145 -36.5q-137 0 -197.5 78.5t-60.5 265.5z M121 1188l137 246h346l139 -246h-213l-98 133l-98 -133h-213zM324 315q0 -78 20.5 -102.5t58.5 -24.5q55 0 80 36t25 128v125l-98 -8q-51 -2 -68.5 -27.5t-17.5 -85.5v-41z" />
<glyph unicode="&#xe6;" horiz-adv-x="1314" d="M33 324v16q0 156 62.5 225.5t219.5 83.5l193 17v82q0 96 -19.5 118.5t-68.5 22.5q-43 0 -63.5 -22.5t-24.5 -108.5h-281q12 195 98.5 271.5t266.5 76.5h10q94 0 148.5 -18.5t82.5 -53.5h9q29 37 93 54.5t134 17.5h18q127 0 208 -40t120 -138.5t39 -276.5v-172h-479v-73 q0 -82 9 -123t29.5 -54.5t57.5 -13.5q41 0 62.5 22.5t27.5 106.5h291q-14 -184 -94 -274t-273 -90h-28q-100 0 -185.5 33.5t-120.5 117.5h-8q-57 -152 -260 -151q-147 0 -210.5 76.5t-63.5 267.5zM324 315q0 -78 20.5 -102.5t61.5 -24.5q53 0 77.5 36t24.5 128v125l-98 -8 q-51 -2 -68.5 -27.5t-17.5 -85.5v-41zM799 662h188v63q0 109 -23.5 136.5t-70.5 27.5q-35 0 -56.5 -12.5t-29.5 -53.5t-8 -125v-36z" />
<glyph unicode="&#xe7;" horiz-adv-x="821" d="M41 434v215q0 178 40 277.5t124 139.5t211 40h14q129 0 207 -39t114.5 -127t43.5 -240h-283q-4 74 -14.5 109t-27.5 44t-46 9q-35 0 -55.5 -13t-28.5 -52t-8 -121v-266q0 -121 20.5 -155t71.5 -34q29 0 46 10.5t27.5 45t14.5 108.5h283q-8 -186 -64.5 -279.5 t-183.5 -115.5l-66 -277h-278l104 275q-135 23 -200.5 123t-65.5 323z" />
<glyph unicode="&#xe8;" horiz-adv-x="845" d="M39 436v213q0 178 41 277.5t125 139.5t213 40h16q131 0 213 -40t121 -138.5t39 -276.5v-172h-477v-73q0 -82 9 -123t29.5 -54.5t57.5 -13.5q41 0 61.5 22.5t26.5 106.5h291q-14 -184 -94 -274t-271 -90h-30q-125 0 -207 39.5t-123 140t-41 276.5zM133 1434h297l111 -246 h-234zM330 662h186v63q0 109 -22.5 136.5t-69.5 27.5q-37 0 -57.5 -12.5t-28.5 -53.5t-8 -125v-36z" />
<glyph unicode="&#xe9;" horiz-adv-x="845" d="M39 436v213q0 178 41 277.5t125 139.5t213 40h16q131 0 213 -40t121 -138.5t39 -276.5v-172h-477v-73q0 -82 9 -123t29.5 -54.5t57.5 -13.5q41 0 61.5 22.5t26.5 106.5h291q-14 -184 -94 -274t-271 -90h-30q-125 0 -207 39.5t-123 140t-41 276.5zM307 1188l109 246h299 l-174 -246h-234zM330 662h186v63q0 109 -22.5 136.5t-69.5 27.5q-37 0 -57.5 -12.5t-28.5 -53.5t-8 -125v-36z" />
<glyph unicode="&#xea;" horiz-adv-x="845" d="M39 436v213q0 178 41 277.5t125 139.5t213 40h16q131 0 213 -40t121 -138.5t39 -276.5v-172h-477v-73q0 -82 9 -123t29.5 -54.5t57.5 -13.5q41 0 61.5 22.5t26.5 106.5h291q-14 -184 -94 -274t-271 -90h-30q-125 0 -207 39.5t-123 140t-41 276.5zM111 1188l137 246h346 l139 -246h-213l-98 133l-98 -133h-213zM330 662h186v63q0 109 -22.5 136.5t-69.5 27.5q-37 0 -57.5 -12.5t-28.5 -53.5t-8 -125v-36z" />
<glyph unicode="&#xeb;" horiz-adv-x="845" d="M39 436v213q0 178 41 277.5t125 139.5t213 40h16q131 0 213 -40t121 -138.5t39 -276.5v-172h-477v-73q0 -82 9 -123t29.5 -54.5t57.5 -13.5q41 0 61.5 22.5t26.5 106.5h291q-14 -184 -94 -274t-271 -90h-30q-125 0 -207 39.5t-123 140t-41 276.5zM123 1184v237h256v-237 h-256zM330 662h186v63q0 109 -22.5 136.5t-69.5 27.5q-37 0 -57.5 -12.5t-28.5 -53.5t-8 -125v-36zM465 1184v237h256v-237h-256z" />
<glyph unicode="&#xee;" horiz-adv-x="380" d="M-121 1188l137 246h346l140 -246h-213l-99 133l-98 -133h-213zM45 0v1085h291v-1085h-291z" />
<glyph unicode="&#xef;" horiz-adv-x="380" d="M-109 1184v237h256v-237h-256zM45 0v1085h291v-1085h-291zM233 1184v237h256v-237h-256z" />
<glyph unicode="&#xf4;" horiz-adv-x="858" d="M39 436v213q0 172 37 271.5t121 142.5t221 43h22q137 0 220 -43t120 -142.5t37 -271.5v-213q0 -170 -37 -270t-120 -143t-222 -43h-20q-137 0 -221 43t-121 143t-37 270zM117 1188l137 246h346l139 -246h-213l-98 133l-98 -133h-213zM330 412q0 -84 9 -125t31.5 -53.5 t57.5 -12.5q37 0 58.5 12.5t30.5 53.5t9 125v262q0 86 -9 126t-30.5 51t-58.5 11t-58.5 -11t-30.5 -51t-9 -126v-262z" />
<glyph unicode="&#xf9;" horiz-adv-x="854" d="M45 258v827h291v-737q0 -72 20.5 -92t65.5 -20q51 0 73.5 31.5t22.5 107.5v710h291v-1085h-291v168h-8q-20 -100 -70.5 -144t-146.5 -44q-125 0 -186.5 62t-61.5 216zM141 1434h297l111 -246h-234z" />
<glyph unicode="&#xfb;" horiz-adv-x="854" d="M45 258v827h291v-737q0 -72 20.5 -92t65.5 -20q51 0 73.5 31.5t22.5 107.5v710h291v-1085h-291v168h-8q-20 -100 -70.5 -144t-146.5 -44q-125 0 -186.5 62t-61.5 216zM119 1188l137 246h346l139 -246h-213l-98 133l-98 -133h-213z" />
<glyph unicode="&#xfc;" horiz-adv-x="854" d="M45 258v827h291v-737q0 -72 20.5 -92t65.5 -20q51 0 73.5 31.5t22.5 107.5v710h291v-1085h-291v168h-8q-20 -100 -70.5 -144t-146.5 -44q-125 0 -186.5 62t-61.5 216zM131 1184v237h256v-237h-256zM473 1184v237h256v-237h-256z" />
<glyph unicode="&#xff;" horiz-adv-x="829" d="M4 1085h299l109 -727h8l125 727h286l-382 -1433h-295l100 323zM123 1184v237h256v-237h-256zM465 1184v237h256v-237h-256z" />
<glyph unicode="&#x152;" horiz-adv-x="1376" d="M53 543v350q0 211 45 327.5t144.5 165t259.5 48.5h823v-277h-375v-301h375v-276h-375v-304h375v-276h-823q-160 0 -259.5 48t-144.5 167t-45 328zM377 510q0 -137 26.5 -189.5t106.5 -52.5h117v897h-117q-80 0 -106.5 -51t-26.5 -190v-414z" />
<glyph unicode="&#x153;" horiz-adv-x="1333" d="M39 436v213q0 172 38 271.5t121 142.5t218 43h18q168 0 236 -86h8q35 45 93 65.5t140 20.5h15q127 0 209 -40t120.5 -138.5t38.5 -276.5v-172h-477v-73q0 -82 9.5 -123t30 -54.5t56.5 -13.5q41 0 61.5 22.5t26.5 106.5h291q-14 -184 -94 -274t-270 -90h-19q-78 0 -137 20 t-94 66h-8q-33 -43 -93.5 -64.5t-142.5 -21.5h-20q-135 0 -218 43t-120 143t-37 270zM330 412q0 -84 9 -125t31.5 -53.5t57.5 -12.5q37 0 58.5 12.5t30.5 53.5t9 125v262q0 86 -9 126t-30.5 51t-58.5 11t-58.5 -11t-30.5 -51t-9 -126v-262zM817 662h187v63q0 109 -23 136.5 t-70 27.5q-37 0 -57 -12.5t-28.5 -53.5t-8.5 -125v-36z" />
<glyph unicode="&#x178;" horiz-adv-x="1001" d="M12 1434h344l152 -553h8l154 553h319l-327 -875v-559h-326v555zM203 1528v237h256v-237h-256zM545 1528v237h256v-237h-256z" />
<glyph unicode="&#x2c6;" horiz-adv-x="1024" d="M201 1188l137 246h346l139 -246h-213l-98 133l-98 -133h-213z" />
<glyph unicode="&#x2da;" horiz-adv-x="1024" d="M264 1372q0 227 248 227q246 0 246 -227t-246 -227q-248 0 -248 227zM453 1372q0 -51 13 -71.5t46 -20.5t45 20.5t12 71.5q0 49 -12 70.5t-45 21.5t-46 -21.5t-13 -70.5z" />
<glyph unicode="&#x2dc;" horiz-adv-x="1024" d="M209 1196q6 129 46 187.5t134 58.5q43 0 82 -18.5t73 -37t58 -18.5q23 0 32 13.5t13 43.5h168q-8 -129 -48 -187t-134 -58q-43 0 -82 18.5t-72 36.5t-59 18q-39 0 -45 -57h-166z" />
<glyph unicode="&#x2000;" horiz-adv-x="882" />
<glyph unicode="&#x2001;" horiz-adv-x="1765" />
<glyph unicode="&#x2002;" horiz-adv-x="882" />
<glyph unicode="&#x2003;" horiz-adv-x="1765" />
<glyph unicode="&#x2004;" horiz-adv-x="588" />
<glyph unicode="&#x2005;" horiz-adv-x="441" />
<glyph unicode="&#x2006;" horiz-adv-x="294" />
<glyph unicode="&#x2007;" horiz-adv-x="294" />
<glyph unicode="&#x2008;" horiz-adv-x="220" />
<glyph unicode="&#x2009;" horiz-adv-x="353" />
<glyph unicode="&#x200a;" horiz-adv-x="98" />
<glyph unicode="&#x2010;" horiz-adv-x="421" d="M27 477v244h366v-244h-366z" />
<glyph unicode="&#x2011;" horiz-adv-x="421" d="M27 477v244h366v-244h-366z" />
<glyph unicode="&#x2012;" horiz-adv-x="421" d="M27 477v244h366v-244h-366z" />
<glyph unicode="&#x2013;" horiz-adv-x="841" d="M27 520v158h788v-158h-788z" />
<glyph unicode="&#x2014;" horiz-adv-x="1263" d="M27 520v158h1210v-158h-1210z" />
<glyph unicode="&#x2018;" horiz-adv-x="393" d="M43 827v193q0 102 16.5 179t55.5 177l22 58h170l-90 -269v-18h129v-320h-303z" />
<glyph unicode="&#x2019;" horiz-adv-x="393" d="M47 1112v320h303v-193q0 -102 -15.5 -178t-55.5 -178l-23 -58h-170l90 269v18h-129z" />
<glyph unicode="&#x201a;" horiz-adv-x="397" d="M47 0v319h303v-192q0 -102 -15.5 -178t-55.5 -178l-23 -58h-170l90 269v18h-129z" />
<glyph unicode="&#x201c;" horiz-adv-x="765" d="M43 827v193q0 102 16.5 179t55.5 177l22 58h170l-90 -269v-18h129v-320h-303zM414 827v193q0 102 16 179t55 177l23 58h170l-90 -269v-18h129v-320h-303z" />
<glyph unicode="&#x201d;" horiz-adv-x="765" d="M47 1112v320h303v-193q0 -102 -15.5 -178t-55.5 -178l-23 -58h-170l90 269v18h-129zM418 1112v320h303v-193q0 -102 -15.5 -178t-56.5 -178l-22 -58h-170l90 269v18h-129z" />
<glyph unicode="&#x201e;" horiz-adv-x="765" d="M47 0v319h303v-192q0 -102 -15.5 -178t-55.5 -178l-23 -58h-170l90 269v18h-129zM418 0v319h303v-192q0 -102 -15.5 -178t-56.5 -178l-22 -58h-170l90 269v18h-129z" />
<glyph unicode="&#x2026;" horiz-adv-x="1189" d="M49 0v319h299v-319h-299zM446 0v319h297v-319h-297zM844 0v319h297v-319h-297z" />
<glyph unicode="&#x202f;" horiz-adv-x="353" />
<glyph unicode="&#x2039;" horiz-adv-x="475" d="M53 592v12l172 449h197l-180 -455l180 -455h-197z" />
<glyph unicode="&#x203a;" horiz-adv-x="475" d="M53 143l180 455l-180 455h197l172 -449v-12l-172 -449h-197z" />
<glyph unicode="&#x205f;" horiz-adv-x="441" />
<glyph unicode="&#x20ac;" d="M4 508v158h92v102h-92v160h92q0 217 43 329.5t132 154.5t225 42h16q121 0 198.5 -38t119.5 -130t53 -256h-285q-8 109 -27.5 138.5t-66.5 29.5q-39 0 -61.5 -16.5t-31 -63.5t-8.5 -143v-47h342v-160h-342v-102h342v-158h-342v-49q0 -94 8.5 -142.5t31 -64.5t61.5 -16 q47 0 66.5 29.5t27.5 137.5h285q-10 -164 -51 -256t-119 -129.5t-201 -37.5h-16q-133 0 -222.5 41.5t-133.5 155.5t-44 329v2h-92z" />
<glyph unicode="&#x2122;" horiz-adv-x="1562" d="M29 1245v189h528v-189h-151v-528h-228v528h-149zM606 717v717h373l84 -381h8l84 381h356v-717h-221v518h-8l-111 -518h-227l-110 518h-9v-518h-219z" />
<glyph unicode="&#x25fc;" horiz-adv-x="1085" d="M0 0v1085h1085v-1085h-1085z" />
</font>
</defs>
</svg>
