<svg xmlns="http://www.w3.org/2000/svg" width="17" height="19" viewBox="0 0 17 19"><g><g><path fill="#fff" d="M5.938 5.017a.862.862 0 1 0-.001-1.723.862.862 0 0 0 .001 1.723zm4.575-3.357a5.35 5.35 0 0 1 3.11 4.277H3.003A5.35 5.35 0 0 1 6.11 1.66L5.361.217a.151.151 0 0 1 .063-.2.148.148 0 0 1 .2.063l.762 1.465a5.338 5.338 0 0 1 1.927-.358 5.33 5.33 0 0 1 1.925.358L11.001.08a.149.149 0 0 1 .2-.064.15.15 0 0 1 .063.201zM2.97 7.125h10.687v6.531c0 .984-.798 1.781-1.782 1.781h-.593v2.375c0 .653-.535 1.188-1.188 1.188a1.191 1.191 0 0 1-1.187-1.188v-2.375H7.718v2.375c0 .653-.534 1.188-1.187 1.188a1.191 1.191 0 0 1-1.187-1.188v-2.375h-.593a1.78 1.78 0 0 1-1.782-1.78zM1.19 5.937c.651 0 1.186.535 1.186 1.188v4.75a1.19 1.19 0 0 1-1.187 1.187A1.191 1.191 0 0 1 0 11.875v-4.75c0-.653.535-1.188 1.188-1.188zm9.5-.92a.861.861 0 1 1-.002-1.722.861.861 0 0 1 .001 1.722m4.75.92c-.653 0-1.188.535-1.188 1.188v4.75c0 .653.535 1.187 1.188 1.187a1.19 1.19 0 0 0 1.186-1.187v-4.75a1.19 1.19 0 0 0-1.186-1.188"/></g></g></svg>