<svg xmlns="http://www.w3.org/2000/svg" width="13" height="15" viewBox="0 0 13 15"><g><g><path fill="#fff" d="M8.312 2.396C8.836 1.76 9.19.88 9.093 0c-.754.031-1.668.503-2.21 1.137-.484.562-.91 1.46-.796 2.32.842.066 1.701-.428 2.225-1.061zm1.89 5.575c-.02-1.9 1.548-2.81 1.619-2.857-.882-1.289-2.254-1.465-2.744-1.485-1.168-.119-2.279.687-2.872.687-.59 0-1.506-.67-2.475-.652-1.273.018-2.446.74-3.102 1.88-1.323 2.295-.339 5.696.95 7.557.63.912 1.382 1.935 2.369 1.898.949-.038 1.308-.614 2.456-.614 1.149 0 1.472.614 2.477.596 1.021-.02 1.67-.93 2.295-1.843.723-1.057 1.021-2.08 1.04-2.133-.024-.01-1.994-.765-2.014-3.034"/></g></g></svg>