<?xml version="1.0" encoding="utf-8"?>
<!-- Generator: Adobe Illustrator 27.0.0, SVG Export Plug-In . SVG Version: 6.00 Build 0)  -->
<svg version="1.1" xmlns="http://www.w3.org/2000/svg" xmlns:xlink="http://www.w3.org/1999/xlink" x="0px" y="0px"
	 viewBox="0 0 32 32" style="enable-background:new 0 0 32 32;" xml:space="preserve">
<style type="text/css">
	.st0{fill:url(#SVGID_1_);}
	.st1{fill:#BF9858;}
	.st2{fill:url(#SVGID_00000003069690800104588570000011841849771722643632_);}
	.st3{fill:url(#SVGID_00000083048327957001483710000010949390889910161078_);}
	.st4{fill:url(#SVGID_00000155827768306314994090000006623653477356749463_);}
	.st5{fill:url(#SVGID_00000044158163549502511090000003055177566578900152_);}
	.st6{fill:#FFFFFF;}
	.st7{fill:url(#SVGID_00000024708868148531761080000014888687858433532554_);}
	.st8{fill:url(#SVGID_00000067236864213470095780000006889408945256148393_);}
	.st9{display:none;fill:#BF9858;}
</style>
<g id="Calque_2">
	<g>
		<g>
			<rect width="32" height="32"/>
			<linearGradient id="SVGID_1_" gradientUnits="userSpaceOnUse" x1="30.4893" y1="-1.2676" x2="1.5107" y2="33.2676">
				<stop  offset="0" style="stop-color:#41414C"/>
				<stop  offset="0.1839" style="stop-color:#333339"/>
				<stop  offset="0.4196" style="stop-color:#272728"/>
				<stop  offset="0.6781" style="stop-color:#1F1F1E"/>
				<stop  offset="1" style="stop-color:#1D1D1B"/>
			</linearGradient>
			<rect class="st0" width="32" height="32"/>
		</g>
	</g>
</g>
<g id="Calque_3">
	<g>
		<g>
			<path class="st1" d="M21.3,17.7h-0.7c-0.8,0-0.8-0.5-1-0.9L18,12v5.7h-1.5V6.5h0.7c0.7,0,0.9,1.2,1.1,1.9l1.5,4.2V6.5h1.5V17.7z"
				/>
			<path class="st1" d="M21.3,17.7h-0.7c-0.8,0-0.8-0.5-1-0.9L18,12v5.7h-1.5V6.5h0.7c0.7,0,0.9,1.2,1.1,1.9l1.5,4.2V6.5h1.5V17.7z"
				/>
			
				<linearGradient id="SVGID_00000004542674106376498650000009218420682850592949_" gradientUnits="userSpaceOnUse" x1="18.8628" y1="8.0151" x2="18.8628" y2="15.8544">
				<stop  offset="0" style="stop-color:#F3C170"/>
				<stop  offset="1" style="stop-color:#C19A59"/>
			</linearGradient>
			<path style="fill:url(#SVGID_00000004542674106376498650000009218420682850592949_);" d="M21.3,17.7h-0.7c-0.8,0-0.8-0.5-1-0.9
				L18,12v5.7h-1.5V6.5h0.7c0.7,0,0.9,1.2,1.1,1.9l1.5,4.2V6.5h1.5V17.7z"/>
		</g>
		<g>
			<path class="st1" d="M29.9,16c0,1-0.8,1.8-1.8,1.9h-0.9c-1,0-1.9-0.8-1.9-1.9V8.2c0-1,0.8-1.9,1.9-1.9h0.9c1,0,1.8,0.9,1.8,1.9
				v2.2c0,0.5-0.2,0.7-0.4,0.8l-1.1,0.5V8.5c0-0.7-0.8-1.2-1.6-0.4v7.7c0,0.7,0.9,1.2,1.6,0.4v-2.4c0-0.5,0.2-0.7,0.4-0.8
				c0.1-0.1,0.7-0.3,1.1-0.5V16z"/>
			<path class="st1" d="M29.9,16c0,1-0.8,1.8-1.8,1.9h-0.9c-1,0-1.9-0.8-1.9-1.9V8.2c0-1,0.8-1.9,1.9-1.9h0.9c1,0,1.8,0.9,1.8,1.9
				v2.2c0,0.5-0.2,0.7-0.4,0.8l-1.1,0.5V8.5c0-0.7-0.8-1.2-1.6-0.4v7.7c0,0.7,0.9,1.2,1.6,0.4v-2.4c0-0.5,0.2-0.7,0.4-0.8
				c0.1-0.1,0.7-0.3,1.1-0.5V16z"/>
			
				<linearGradient id="SVGID_00000010278541251005690960000015876340299823011237_" gradientUnits="userSpaceOnUse" x1="27.5969" y1="8.0151" x2="27.5969" y2="15.8544">
				<stop  offset="0" style="stop-color:#F3C170"/>
				<stop  offset="1" style="stop-color:#C19A59"/>
			</linearGradient>
			<path style="fill:url(#SVGID_00000010278541251005690960000015876340299823011237_);" d="M29.9,16c0,1-0.8,1.8-1.8,1.9h-0.9
				c-1,0-1.9-0.8-1.9-1.9V8.2c0-1,0.8-1.9,1.9-1.9h0.9c1,0,1.8,0.9,1.8,1.9v2.2c0,0.5-0.2,0.7-0.4,0.8l-1.1,0.5V8.5
				c0-0.7-0.8-1.2-1.6-0.4v7.7c0,0.7,0.9,1.2,1.6,0.4v-2.4c0-0.5,0.2-0.7,0.4-0.8c0.1-0.1,0.7-0.3,1.1-0.5V16z"/>
		</g>
		<g>
			<path class="st1" d="M9.2,16c0,1-0.8,1.8-1.8,1.9H6.5c-1,0-1.9-0.8-1.9-1.9V8.2c0-1,0.8-1.9,1.9-1.9h0.9c1,0,1.8,0.9,1.8,1.9v2.2
				c0,0.5-0.2,0.7-0.4,0.8l-1.1,0.5V8.5c0-0.7-0.8-1.2-1.6-0.4l0,7.7c0,0.7,0.9,1.2,1.6,0.4l0-2.4c0-0.5,0.2-0.7,0.4-0.8
				c0.1-0.1,0.7-0.3,1.1-0.5V16z"/>
			<path class="st1" d="M9.2,16c0,1-0.8,1.8-1.8,1.9H6.5c-1,0-1.9-0.8-1.9-1.9V8.2c0-1,0.8-1.9,1.9-1.9h0.9c1,0,1.8,0.9,1.8,1.9v2.2
				c0,0.5-0.2,0.7-0.4,0.8l-1.1,0.5V8.5c0-0.7-0.8-1.2-1.6-0.4l0,7.7c0,0.7,0.9,1.2,1.6,0.4l0-2.4c0-0.5,0.2-0.7,0.4-0.8
				c0.1-0.1,0.7-0.3,1.1-0.5V16z"/>
			
				<linearGradient id="SVGID_00000080886400101747281660000002397165106389514135_" gradientUnits="userSpaceOnUse" x1="6.9142" y1="8.0151" x2="6.9142" y2="15.8544">
				<stop  offset="0" style="stop-color:#F3C170"/>
				<stop  offset="1" style="stop-color:#C19A59"/>
			</linearGradient>
			<path style="fill:url(#SVGID_00000080886400101747281660000002397165106389514135_);" d="M9.2,16c0,1-0.8,1.8-1.8,1.9H6.5
				c-1,0-1.9-0.8-1.9-1.9V8.2c0-1,0.8-1.9,1.9-1.9h0.9c1,0,1.8,0.9,1.8,1.9v2.2c0,0.5-0.2,0.7-0.4,0.8l-1.1,0.5V8.5
				c0-0.7-0.8-1.2-1.6-0.4l0,7.7c0,0.7,0.9,1.2,1.6,0.4l0-2.4c0-0.5,0.2-0.7,0.4-0.8c0.1-0.1,0.7-0.3,1.1-0.5V16z"/>
		</g>
		
			<linearGradient id="SVGID_00000009567842039998072850000006057317415174680503_" gradientUnits="userSpaceOnUse" x1="12.74" y1="6.3419" x2="12.74" y2="17.8335">
			<stop  offset="0" style="stop-color:#F3C170"/>
			<stop  offset="1" style="stop-color:#C19A59"/>
		</linearGradient>
		<path style="fill:url(#SVGID_00000009567842039998072850000006057317415174680503_);" d="M13.3,6.3c1,0,1.8,0.9,1.8,1.9V16
			c0,1-0.8,1.8-1.8,1.8h-1.2c-1,0-1.9-0.8-1.9-1.8V8.2c0-1,0.8-1.9,1.9-1.9H13.3z M12.8,16.5c0.4,0,0.8-0.4,0.8-0.8V8.5
			c0-0.5-0.4-0.8-0.8-0.8h-0.2c-0.4,0-0.8,0.4-0.8,0.8v7.2c0,0.4,0.4,0.8,0.8,0.8H12.8z"/>
		<path class="st6" d="M1.9,18.9h1.5c0.4,0,0.7,0.1,1.1,0.2c0.3,0.1,0.6,0.3,0.8,0.6c0.2,0.3,0.3,0.6,0.3,1c0,0.3-0.1,0.6-0.2,0.9
			c-0.1,0.2-0.3,0.4-0.5,0.5v0c0.1,0.1,0.2,0.1,0.4,0.3c0.1,0.1,0.2,0.2,0.3,0.4c0.1,0.1,0.1,0.3,0.2,0.5c0,0.2,0.1,0.4,0.1,0.6
			c0,0.6-0.2,1-0.5,1.3c-0.3,0.3-0.8,0.5-1.5,0.5H1.9V18.9z M3.3,20.2v1.4h0.3c0.2,0,0.4-0.1,0.5-0.2c0.1-0.1,0.2-0.3,0.2-0.5
			c0-0.2-0.1-0.4-0.2-0.5c-0.1-0.1-0.3-0.2-0.5-0.2H3.3z M3.3,22.9v1.4h0.4c0.5,0,0.8-0.2,0.8-0.7c0-0.3-0.1-0.5-0.2-0.6
			c-0.1-0.1-0.3-0.1-0.6-0.1H3.3z"/>
		<path class="st6" d="M10.3,18.9v4.4c0,0.5-0.1,0.9-0.3,1.3c-0.2,0.4-0.5,0.7-0.8,0.9c-0.3,0.2-0.7,0.3-1.2,0.3
			c-0.4,0-0.8-0.1-1.1-0.3c-0.3-0.2-0.6-0.4-0.7-0.8C6.1,24.4,6,23.9,6,23.4v-4.5l1.3,0v4c0,0.3,0,0.5,0.1,0.7
			c0,0.2,0.1,0.4,0.3,0.5c0.1,0.1,0.3,0.2,0.5,0.2c0.4,0,0.6-0.1,0.8-0.4C8.9,23.5,9,23.1,9,22.6v-3.7L10.3,18.9z"/>
		<path class="st6" d="M13.1,20.7c-0.2-0.2-0.3-0.3-0.4-0.4c-0.1-0.1-0.3-0.1-0.4-0.1c-0.1,0-0.2,0-0.3,0.1
			c-0.1,0.1-0.2,0.2-0.2,0.4c0,0.2,0.1,0.4,0.4,0.5c0.2,0.1,0.5,0.3,0.8,0.4c0.3,0.1,0.5,0.3,0.7,0.6c0.2,0.3,0.3,0.7,0.3,1.3
			c0,0.7-0.2,1.3-0.5,1.6c-0.3,0.4-0.8,0.6-1.3,0.6c-0.3,0-0.6-0.1-0.9-0.2c-0.3-0.1-0.5-0.3-0.7-0.6l0.7-1.3
			c0.2,0.4,0.5,0.5,0.9,0.5c0.1,0,0.3-0.1,0.4-0.2c0.1-0.1,0.2-0.2,0.2-0.4c0-0.2-0.1-0.4-0.4-0.5c-0.1-0.1-0.2-0.1-0.4-0.2
			l-0.2-0.1l-0.2-0.1c-0.3-0.1-0.5-0.3-0.7-0.6c-0.2-0.3-0.3-0.7-0.3-1.2c0-0.4,0.1-0.8,0.2-1.1c0.2-0.3,0.4-0.6,0.6-0.7
			c0.3-0.2,0.5-0.2,0.8-0.2c0.3,0,0.5,0.1,0.8,0.2c0.3,0.1,0.5,0.3,0.7,0.6L13.1,20.7z"/>
		<polygon class="st6" points="14.1,19.5 15.4,18.8 15.4,25.6 14.1,25.6 		"/>
		<polygon class="st6" points="20,25.6 17,22.4 17.1,25.6 15.8,25.6 15.8,18.8 18.7,22 18.7,18.9 20,18.9 		"/>
		<polygon class="st6" points="23,25.6 20.4,25.6 20.4,18.9 23.2,18.9 23.2,20.3 21.6,20.3 21.6,21.5 23,21.5 23,22.9 21.6,22.9 
			21.6,24.2 23,24.2 		"/>
		<path class="st6" d="M26,20.7c-0.2-0.2-0.3-0.3-0.4-0.4c-0.1-0.1-0.3-0.1-0.4-0.1c-0.1,0-0.2,0-0.3,0.1c-0.1,0.1-0.2,0.2-0.2,0.4
			c0,0.2,0.1,0.4,0.4,0.5c0.2,0.1,0.5,0.3,0.8,0.4c0.3,0.1,0.5,0.3,0.7,0.6c0.2,0.3,0.3,0.7,0.3,1.3c0,0.7-0.2,1.3-0.5,1.6
			c-0.3,0.4-0.8,0.6-1.3,0.6c-0.3,0-0.6-0.1-0.9-0.2c-0.3-0.1-0.5-0.3-0.7-0.6l0.7-1.3c0.2,0.4,0.5,0.5,0.9,0.5
			c0.1,0,0.3-0.1,0.4-0.2c0.1-0.1,0.2-0.2,0.2-0.4c0-0.2-0.1-0.4-0.4-0.5C25,23,24.9,23,24.8,22.9l-0.2-0.1l-0.2-0.1
			c-0.3-0.1-0.5-0.3-0.7-0.6c-0.2-0.3-0.3-0.7-0.3-1.2c0-0.4,0.1-0.8,0.2-1.1c0.2-0.3,0.4-0.6,0.6-0.7c0.3-0.2,0.5-0.2,0.8-0.2
			c0.3,0,0.5,0.1,0.8,0.2c0.3,0.1,0.5,0.3,0.7,0.6L26,20.7z"/>
		<path class="st6" d="M29.4,20.7c-0.2-0.2-0.3-0.3-0.4-0.4c-0.1-0.1-0.3-0.1-0.4-0.1c-0.1,0-0.2,0-0.3,0.1
			c-0.1,0.1-0.2,0.2-0.2,0.4c0,0.2,0.1,0.4,0.4,0.5c0.2,0.1,0.5,0.3,0.8,0.4c0.3,0.1,0.5,0.3,0.7,0.6c0.2,0.3,0.3,0.7,0.3,1.3
			c0,0.7-0.2,1.3-0.5,1.6c-0.3,0.4-0.8,0.6-1.3,0.6c-0.3,0-0.6-0.1-0.9-0.2c-0.3-0.1-0.5-0.3-0.7-0.6l0.7-1.3
			c0.2,0.4,0.5,0.5,0.9,0.5c0.1,0,0.3-0.1,0.4-0.2c0.1-0.1,0.2-0.2,0.2-0.4c0-0.2-0.1-0.4-0.4-0.5c-0.1-0.1-0.2-0.1-0.4-0.2
			l-0.2-0.1l-0.2-0.1c-0.3-0.1-0.5-0.3-0.7-0.6c-0.2-0.3-0.3-0.7-0.3-1.2c0-0.4,0.1-0.8,0.2-1.1c0.2-0.3,0.4-0.6,0.6-0.7
			c0.3-0.2,0.5-0.2,0.8-0.2c0.3,0,0.5,0.1,0.8,0.2c0.3,0.1,0.5,0.3,0.7,0.6L29.4,20.7z"/>
		
			<linearGradient id="SVGID_00000033345141989961361540000016234956526435196857_" gradientUnits="userSpaceOnUse" x1="23.3363" y1="8.0151" x2="23.3363" y2="15.8544">
			<stop  offset="0" style="stop-color:#F3C170"/>
			<stop  offset="1" style="stop-color:#C19A59"/>
		</linearGradient>
		<path style="fill:url(#SVGID_00000033345141989961361540000016234956526435196857_);" d="M24.1,6.3v11.1c0,0.1-0.1,0.3-0.4,0.3
			h-1.1V7.9c0-0.4,0.1-0.5,0.6-0.9L24.1,6.3z"/>
		
			<linearGradient id="SVGID_00000084496689231759492040000007909971810757758865_" gradientUnits="userSpaceOnUse" x1="2.6535" y1="8.0151" x2="2.6535" y2="15.8544">
			<stop  offset="0" style="stop-color:#F3C170"/>
			<stop  offset="1" style="stop-color:#C19A59"/>
		</linearGradient>
		<path style="fill:url(#SVGID_00000084496689231759492040000007909971810757758865_);" d="M3.4,6.3v11.1c0,0.1-0.1,0.3-0.4,0.3H1.9
			V7.9C1.9,7.5,2,7.4,2.5,7L3.4,6.3z"/>
		<path class="st9" d="M3.4,6.2v11.1c0,0.1-0.1,0.3-0.4,0.3H1.9V7.9C1.9,7.5,2,7.4,2.5,7L3.4,6.2z"/>
	</g>
</g>
</svg>
