<?xml version="1.0" encoding="utf-8"?>
<!-- Generator: Adobe Illustrator 24.0.3, SVG Export Plug-In . SVG Version: 6.00 Build 0)  -->
<svg version="1.1" id="Calque_1" xmlns="http://www.w3.org/2000/svg" xmlns:xlink="http://www.w3.org/1999/xlink" x="0px" y="0px"
	 viewBox="0 0 84 84" style="enable-background:new 0 0 84 84;" xml:space="preserve">
<style type="text/css">
	.st0{fill:none;}
	.st1{fill:#FFFFFF;}
</style>
<rect class="st0" width="84" height="84"/>
<path class="st1" d="M17.9,39.8h-4.8v-4.9h5.1c1.9,0,2.9,0.8,2.9,2.4C21.1,39.2,19.6,39.8,17.9,39.8 M13.1,26h4.3
	c1.7,0,2.8,0.5,2.8,1.8c0,1.7-1.1,2.2-2.8,2.2h-4.3V26z M67.4,19.6l-3.8,15.5h-0.1l-3.7-15.5H28.7v15.5c-0.8-2-2.4-3.1-4.1-3.7
	c2-1.1,3.3-2.5,3.3-5.2s-1.5-6.6-8.4-6.6H5V46h15c3.8,0,7.4-1.8,8.7-5.3V46h8.1V35.9h7.4v-6.1h-7.4v-4h11.4v20.1h7.7V29.1H56
	L60.6,46h6.1l4.6-16.9h0.1V46H79V19.6H67.4z"/>
<path class="st1" d="M14.1,64.2H10V49.2h4.1V64.2z M35.7,64.2h-4.1V52.8h-0.1l-3.8,11.2h-3.6l-3.8-11.2h-0.1v11.2h-4.1V49.2h7
	l2.9,8.9h0.1l2.9-8.9h6.7V64.2z M57.3,64.2h-4.1V52.8h-0.1l-3.8,11.2h-3.6l-3.8-11.2h-0.1v11.2h-4.1V49.2h7l2.9,8.9h0.1l2.9-8.9h6.7
	L57.3,64.2L57.3,64.2z M66.3,64.3c-5.2,0-7.3-2-7.3-7.1v-1c0-5.1,2.1-7.1,7.3-7.1h0.4c5.2,0,7.3,2,7.3,7.1v1c0,5.1-2.2,7.1-7.3,7.1
	H66.3z M66.6,60.9c2.7,0,3.1-1.5,3.1-3.9v-0.8c0-2.4-0.4-3.9-3.1-3.9h-0.3c-2.7,0-3.2,1.5-3.2,3.9V57c0,2.4,0.5,3.9,3.2,3.9H66.6z"
	/>
</svg>
