<svg xmlns="http://www.w3.org/2000/svg" width="78" height="54" viewBox="0 0 78 54"><defs><linearGradient id="7vx5a" x1="38.58" x2="38.58" y1="0" y2="32" gradientUnits="userSpaceOnUse"><stop offset="0" stop-color="#f3c170"/><stop offset="1" stop-color="#c19a59"/></linearGradient></defs><g><g><path fill="#fff" d="M77.373 36.804c-.418-.836-1.046-1.254-1.882-1.673-.837-.418-1.464-.627-2.3-.627-.837 0-1.673.209-2.301.627a4.955 4.955 0 0 0-1.673 1.882c-.418 1.046-.627 1.883-.627 3.137 0 1.464.418 2.51.837 3.346.627.627 1.254 1.255 1.882 1.673l.627.209.627.209c.418.209.837.418 1.046.628.627.418 1.045.836 1.045 1.463 0 .628-.209 1.046-.627 1.255-.418.209-.836.418-1.255.418-1.045 0-1.882-.418-2.509-1.463l-1.882 3.554c.627.837 1.255 1.255 2.091 1.673.837.419 1.673.628 2.509.628 1.464 0 2.719-.628 3.555-1.673C77.582 51.024 78 49.351 78 47.469c0-1.673-.418-2.718-.836-3.555-.628-.627-1.255-1.254-1.882-1.673-.628-.209-1.464-.627-2.091-1.045-.628-.418-1.046-.837-1.046-1.464 0-.418.209-.836.418-1.046.209-.209.418-.418.837-.418.418 0 .836.209 1.254.418l1.046 1.046zm-9.41 0c-.419-.836-1.046-1.254-1.882-1.673-.837-.418-1.464-.627-2.301-.627-.836 0-1.673.209-2.3.627a4.943 4.943 0 0 0-1.673 1.883c-.418 1.045-.627 1.882-.627 3.136 0 1.464.418 2.51.836 3.346.628.627 1.255 1.255 1.882 1.673l.628.209.627.209c.418.209.837.418 1.046.628.627.418 1.045.836 1.045 1.463 0 .628-.209 1.046-.627 1.255-.418.209-.837.418-1.255.418-1.045 0-1.882-.418-2.509-1.463l-1.882 3.554c.627.837 1.254 1.255 2.091 1.673.836.419 1.673.628 2.509.628 1.464 0 2.719-.628 3.555-1.673 1.046-1.046 1.464-2.719 1.464-4.601 0-1.673-.209-2.718-.836-3.555-.628-.627-1.255-1.254-1.882-1.673-.628-.209-1.464-.627-2.092-1.045-.627-.418-1.045-.837-1.045-1.464 0-.418.209-.836.418-1.046.418-.209.627-.418 1.046-.418.418 0 .836.209 1.254.418l1.046 1.046zm-9.829 12.547H54.37v-3.555h3.764v-3.764H54.37v-3.346h4.392v-3.764h-7.947v18.402h7.319zm-8.155-14.429h-3.555v8.365l-8.156-8.783v18.82h3.555v-8.782l8.156 8.782zm-16.52 18.402h3.555v-18.82l-3.555 1.882zm-1.046-16.52c-.418-.836-1.045-1.254-1.882-1.673-.836-.418-1.464-.627-2.3-.627-.837 0-1.673.209-2.3.627a4.935 4.935 0 0 0-1.673 1.883c-.419 1.045-.628 1.882-.628 3.136 0 1.464.419 2.51.837 3.346.627.627 1.254 1.255 1.882 1.673l1.254.418c.419.209.837.418 1.046.628.627.418 1.046.836 1.046 1.463 0 .628-.209 1.046-.628 1.255-.418.209-.836.418-1.254.418-1.046 0-1.882-.418-2.51-1.463l-1.882 3.554c.628.837 1.255 1.255 2.091 1.673.837.419 1.673.628 2.51.628 1.464 0 2.718-.628 3.555-1.673 1.045-1.046 1.463-2.719 1.463-4.601 0-1.673-.209-2.718-.836-3.555-.627-.627-1.255-1.254-1.882-1.673-.627-.209-1.464-.627-2.091-1.045-.628-.418-1.046-.837-1.046-1.464 0-.418.209-.836.418-1.046.419-.209.628-.418 1.046-.418.418 0 .837.209 1.255.418l1.045 1.046zm-13.174-1.673v10.038c0 1.464 0 2.509-.418 3.346-.419.836-1.046 1.255-2.092 1.255-.418 0-.836 0-1.254-.419-.209-.209-.418-.627-.628-1.254-.209-.628-.209-1.255-.209-1.882V35.131h-3.555v12.338c0 1.464.209 2.51.628 3.555.627.837 1.254 1.673 2.091 2.091.836.419 1.882.628 2.927.628 1.046 0 2.301-.209 3.137-.837 1.046-.418 1.673-1.254 2.3-2.3.628-1.046.837-2.091.837-3.555V34.922zM4.81 45.796c.627 0 1.255.209 1.464.209.418.419.627.837.627 1.673 0 1.255-.627 1.882-2.091 1.882H3.764v-3.764zm-1.046-7.319h.837c.418 0 .836.209 1.254.419.419.418.628.836.628 1.463 0 .628-.209 1.046-.418 1.464-.21.209-.628.418-1.255.418H3.764zM0 53.115h5.228c1.882 0 3.346-.418 4.182-1.463.837-1.046 1.255-2.301 1.255-3.764 0-.419 0-1.046-.209-1.464 0-.419-.209-.837-.418-1.255-.209-.418-.628-.836-.837-1.046-.418-.209-.627-.418-1.045-.627.627-.209 1.045-.836 1.464-1.464.418-.627.627-1.464.627-2.3 0-1.255-.209-2.3-1.046-2.928-.418-.627-1.254-1.254-2.091-1.463-.836-.21-1.882-.419-2.927-.419H0z"/></g><g><path fill="url(#7vx5a)" d="M4.182 0v30.74c0 .209-.209.836-1.255.836H0V4.391c0-1.045.209-1.463 1.463-2.509zM61.27 0v30.74c0 .209-.209.836-1.254.836h-2.928V4.391c0-1.045.209-1.463 1.464-2.509zM30.112 28.231a2.322 2.322 0 0 0 2.301-2.301V6.064c0-1.254-1.046-2.3-2.301-2.3h-.627a2.32 2.32 0 0 0-2.3 2.3V25.93a2.32 2.32 0 0 0 2.3 2.301zM31.576 0c2.719.209 5.019 2.3 5.019 5.228v21.539c0 2.718-2.3 5.019-5.019 5.019h-3.137c-2.927 0-5.228-2.301-5.228-5.019V5.228C23.211 2.3 25.512 0 28.439 0zm-16.52 31.995h-2.509c-2.928 0-5.228-2.301-5.228-5.228V5.228C7.319 2.3 9.619 0 12.547 0h2.509c2.718 0 5.019 2.3 5.019 5.228v6.273c0 1.255-.628 1.882-1.046 2.301l-2.927 1.463v-9.41c0-1.882-2.301-3.136-4.392-1.254V25.93c0 2.091 2.51 3.346 4.392 1.046v-6.483c0-1.254.627-1.882 1.045-2.3.418-.209 1.882-.836 2.928-1.255v9.829c0 2.718-2.301 5.019-5.019 5.228zm62.107-5.228c0 2.718-2.3 5.019-5.019 5.228h-2.509c-2.928 0-5.228-2.301-5.228-5.228V5.228C64.407 2.3 66.707 0 69.635 0h2.509c2.719 0 5.019 2.3 5.019 5.228v6.273c0 1.255-.627 1.882-1.045 2.301l-2.928 1.463v-9.41c0-1.882-2.3-3.136-4.391-1.254V25.93c0 2.091 2.509 3.346 4.391 1.046v-6.483c0-1.254.627-1.882 1.046-2.3.418-.209 1.882-.836 2.927-1.255zm-23.839 4.6h-1.882c-2.3 0-2.091-1.254-2.718-2.509l-4.392-12.965v15.683H40.15V.418h1.882c1.882 0 2.3 3.137 2.927 5.019l4.183 11.71V.418h4.182z"/></g></g></svg>