<?xml version="1.0" encoding="utf-8"?>
<!-- Generator: Adobe Illustrator 27.0.0, SVG Export Plug-In . SVG Version: 6.00 Build 0)  -->
<svg version="1.1" id="Calque_1" xmlns="http://www.w3.org/2000/svg" xmlns:xlink="http://www.w3.org/1999/xlink" x="0px" y="0px"
	 viewBox="0 0 40 40" style="enable-background:new 0 0 40 40;" xml:space="preserve">
<style type="text/css">
	.st0{fill:#00005A;}
	.st1{fill:#FFFFFF;}
</style>
<rect class="st0" width="40" height="40"/>
<path class="st1" d="M12,25.4l1.6,2.8h-2.2l-2.3-4.1h1.5c0.3,0,0.5-0.1,0.6-0.2c0.1-0.1,0.2-0.3,0.2-0.5c0-0.2-0.1-0.4-0.2-0.5
	c-0.1-0.1-0.3-0.2-0.6-0.2H8.4l-1-1.6h3.3c0.5,0,1,0.1,1.4,0.3c0.4,0.2,0.7,0.5,0.9,0.8c0.2,0.3,0.3,0.7,0.3,1.2
	c0,0.5-0.1,0.9-0.4,1.3C12.7,25,12.4,25.2,12,25.4z M24.3,22.2c-0.2-0.4-0.5-0.6-0.9-0.8C23,21.2,22.6,21,22,21H20l0.9,1.6H22
	c0.7,0,0.8,0.3,0.8,0.7c0,0.2-0.1,0.4-0.2,0.5C22.5,24,22.3,24,22,24h-2.6v4.1h1.9v-2.5h0.8c0.6,0,1.1-0.1,1.5-0.3
	c0.4-0.2,0.7-0.5,0.9-0.9c0.2-0.3,0.3-0.7,0.3-1.1C24.7,22.9,24.5,22.5,24.3,22.2z M29.9,21.1h-5.8c0.7,1.2,0.9,1.6,0.9,1.6H26v5.5
	h0h1.8h0v-5.5H29C29,22.7,29.2,22.3,29.9,21.1z M36,24.6c0,0.7-0.2,1.3-0.5,1.9c-0.3,0.5-0.8,1-1.3,1.3c-0.6,0.3-1.2,0.5-1.8,0.5
	c-0.7,0-1.3-0.2-1.8-0.5c-0.6-0.3-1-0.7-1.3-1.3c-0.3-0.5-0.5-1.2-0.5-1.9c0-0.7,0.2-1.3,0.5-1.9c0.3-0.5,0.8-1,1.3-1.3
	c0.6-0.3,1.2-0.5,1.8-0.5c0.7,0,1.3,0.2,1.8,0.5c0.5,0.3,1,0.7,1.3,1.3C35.8,23.2,36,23.9,36,24.6z M33.9,23.6
	c-0.1-0.3-0.3-0.5-0.6-0.6c-0.3-0.1-0.6-0.2-0.9-0.2c-0.3,0-0.6,0.1-0.9,0.2c-0.3,0.1-0.5,0.4-0.6,0.6c-0.1,0.3-0.2,0.6-0.2,1
	c0,0.4,0.1,0.7,0.2,1c0.1,0.3,0.3,0.5,0.6,0.6c0.3,0.2,0.6,0.2,0.9,0.2c0.3,0,0.6-0.1,0.9-0.2c0.3-0.2,0.4-0.4,0.6-0.6
	c0.1-0.3,0.2-0.6,0.2-1C34.1,24.2,34,23.9,33.9,23.6z M8.8,25.9c-0.1,0.1-0.2,0.3-0.4,0.3c-0.2,0.1-0.5,0.2-0.9,0.2
	s-0.6-0.1-0.9-0.2c-0.3-0.1-0.4-0.4-0.6-0.6c-0.1-0.3-0.2-0.6-0.2-1s0.1-0.7,0.2-1c0.1-0.3,0.3-0.5,0.6-0.6c0.1-0.1,0.3-0.1,0.4-0.2
	l0.4-0.1l-0.9-1.5l-0.2,0.1c-0.2,0.1-0.4,0.2-0.6,0.3c-0.5,0.3-1,0.7-1.3,1.3C4.2,23.3,4,24,4,24.6c0,0.7,0.2,1.3,0.5,1.8
	s0.8,1,1.3,1.3s1.1,0.5,1.8,0.5s1.2-0.2,1.8-0.5c0.2-0.1,0.3-0.2,0.5-0.3l0.2-0.1L9,25.6L8.8,25.9z M17.6,21.1L17.6,21.1l-1.4,2.5
	l-1.4-2.5l0,0h-1.9l2.4,4.3v2.8h1.9v-2.6l2.5-4.4H17.6z"/>
<path class="st1" d="M28.5,11.8L27.2,17h0l-1.3-5.2H15.6V17c-0.2-0.6-0.7-1.1-1.4-1.3c0.7-0.3,1.1-1,1.1-1.7c0-0.9-0.5-2.2-2.8-2.2
	h-1.6l2,3.7c0.1,0.2,0,0.4-0.2,0.5c-0.1,0-0.1,0-0.2,0c-0.1,0-0.3-0.1-0.3-0.2l-2.2-4.1H9.2l2.1,3.7c0.1,0.2,0,0.4-0.1,0.5
	c-0.1,0-0.1,0-0.2,0c-0.1,0-0.3-0.1-0.3-0.2l-2.3-4.1H7.6v8.8h3.1l-1.5-2.7c-0.1-0.2,0-0.4,0.1-0.5c0.2-0.1,0.4,0,0.5,0.1l1.7,3.1
	h0.7l-1.5-2.7c-0.1-0.2,0-0.4,0.1-0.5c0.2-0.1,0.4,0,0.5,0.1l1.7,3.1c1-0.2,2-0.7,2.3-1.7v1.8h2.7v-3.4h2.5v-2h-2.5v-1.3h3.8v6.7
	h2.6V15h0l1.5,5.7h2l1.5-5.7h0v5.7h2.6v-8.9H28.5z"/>
</svg>
