<?xml version="1.0" encoding="utf-8"?>
<!-- Generator: Adobe Illustrator 26.2.1, SVG Export Plug-In . SVG Version: 6.00 Build 0)  -->
<svg version="1.1" id="Calque_1" xmlns="http://www.w3.org/2000/svg" xmlns:xlink="http://www.w3.org/1999/xlink" x="0px" y="0px"
	 viewBox="0 0 100 84" style="enable-background:new 0 0 100 84;" xml:space="preserve">
<style type="text/css">
	.st0{fill:none;}
	.st1{fill:#FFFFFF;}
</style>
<rect class="st0" width="100" height="84"/>
<path class="st1" d="M26.1,58.1l4.9,8.3h-6.6l-6.9-12.2h4.6c0.8,0,1.4-0.2,1.8-0.5c0.4-0.4,0.5-0.9,0.5-1.5c0-0.7-0.2-1.1-0.5-1.5
	c-0.4-0.3-1-0.5-1.8-0.5h-6.9l-2.9-4.9h9.9c1.6,0,3.1,0.3,4.2,0.9c1.2,0.6,2.1,1.4,2.7,2.5c0.6,1,0.9,2.2,0.9,3.5
	c0,1.5-0.4,2.8-1.3,4C28.2,56.9,27.2,57.7,26.1,58.1z M63,48.6c-0.6-1.1-1.5-1.9-2.7-2.5s-2.6-0.9-4.2-0.9h-6.2l2.8,4.9H56
	c2.1,0,2.4,1,2.4,2c0,0.7-0.2,1.1-0.5,1.5c-0.4,0.3-1,0.5-1.8,0.5h-7.9v12.3h5.6v-7.5h2.4c1.7,0,3.2-0.3,4.4-0.9
	c1.2-0.6,2.1-1.5,2.7-2.6c0.6-1,0.8-2.2,0.8-3.3C64,50.8,63.6,49.6,63,48.6z M79.6,45.2H62.2c2.1,3.7,2.7,4.8,2.7,4.8h3.2v16.4h0.1
	h5.5h0.1V50H77C76.9,50,77.5,48.9,79.6,45.2z M98,55.8c0,2.1-0.5,3.9-1.4,5.6c-1,1.6-2.3,3-3.9,3.9c-1.7,0.9-3.5,1.4-5.5,1.4
	s-3.8-0.5-5.5-1.4s-3-2.2-4-3.9c-1-1.6-1.5-3.5-1.5-5.6c0-2,0.5-3.9,1.5-5.6c1-1.6,2.3-2.9,4-3.9c1.7-0.9,3.5-1.4,5.5-1.4
	s3.8,0.5,5.5,1.4c1.6,0.9,3,2.2,3.9,3.9C97.5,51.8,98,53.7,98,55.8z M91.6,52.7c-0.4-0.8-1-1.5-1.8-1.9s-1.7-0.7-2.7-0.7
	s-1.9,0.2-2.7,0.7c-0.8,0.4-1.4,1.1-1.8,1.9c-0.4,0.9-0.7,1.9-0.7,3c0,1.2,0.2,2.2,0.7,3.1c0.4,0.9,1,1.5,1.8,1.9
	c0.8,0.5,1.7,0.7,2.7,0.7s1.9-0.2,2.7-0.7c0.8-0.5,1.3-1.1,1.8-1.9c0.4-0.9,0.7-1.9,0.7-3.1C92.3,54.6,92.1,53.6,91.6,52.7z
	 M16.5,59.7c-0.4,0.4-0.7,0.8-1.2,1c-0.7,0.4-1.6,0.7-2.6,0.7s-1.9-0.2-2.6-0.7c-0.8-0.4-1.3-1.1-1.8-1.9c-0.4-0.8-0.7-1.9-0.7-3
	s0.2-2.1,0.7-3c0.4-0.8,1-1.4,1.8-1.9c0.4-0.2,0.8-0.4,1.3-0.5l1.1-0.2l-2.6-4.6l-0.6,0.2C8.6,46,8,46.3,7.5,46.6
	c-1.6,0.9-2.9,2.2-3.9,3.8C2.5,52,2,53.9,2,55.9s0.5,3.9,1.4,5.5s2.3,2.9,3.9,3.8s3.4,1.4,5.3,1.4s3.7-0.5,5.3-1.4
	c0.5-0.3,0.9-0.6,1.5-1l0.5-0.4l-2.8-4.9L16.5,59.7z M42.9,45.2L42.9,45.2l-4.3,7.5l-4.3-7.5l0,0h-5.6L36,58v8.4h5.6v-7.9l7.5-13.3
	H42.9z"/>
<path class="st1" d="M75.4,17.4L71.7,33h-0.1l-3.8-15.6H36.7V33c-0.7-1.8-2.2-3.2-4.1-3.8c2.1-0.9,3.4-3,3.3-5.2
	c0-2.7-1.5-6.6-8.3-6.6h-4.8l5.9,11.1c0.3,0.6,0.1,1.3-0.5,1.6c-0.2,0.1-0.4,0.1-0.5,0.1c-0.4,0-0.8-0.2-1-0.6l-6.5-12.2h-2.5
	l6.2,11.1c0.3,0.6,0.1,1.3-0.4,1.6c-0.2,0.1-0.4,0.1-0.6,0.1c-0.4,0-0.8-0.2-1-0.6L15,17.4h-2.1v26.5h9.4l-4.6-8.1
	c-0.3-0.6-0.1-1.3,0.4-1.6c0.6-0.3,1.3-0.1,1.6,0.4l5.2,9.3H27l-4.6-8.1c-0.3-0.6-0.1-1.3,0.4-1.6c0.6-0.3,1.3-0.1,1.6,0.4l5.1,9.2
	c3.1-0.5,5.9-2.2,7-5.2v5.3h8.2V33.8h7.4v-6h-7.4v-4h11.5V44h7.7V27H64l4.6,17h6l4.6-17h0.1v17H87V17.4H75.4z"/>
</svg>
