<svg enable-background="new 0 0 115 84" viewBox="0 0 115 84" xmlns="http://www.w3.org/2000/svg"><path d="m0 0h115v84h-115z" fill="none"/><g fill="#fff"><path d="m33.4 41h-4.8v-4.9h5.1c1.9 0 2.9.8 2.9 2.4 0 2-1.4 2.5-3.2 2.5m-4.7-13.8h4.3c1.7 0 2.8.5 2.8 1.8 0 1.7-1.1 2.2-2.8 2.2h-4.3zm54.3-6.3-3.8 15.5h-.1l-3.8-15.5h-31.1v15.5c-.8-2-2.4-3.1-4.1-3.7 2-1.1 3.3-2.5 3.3-5.2s-1.5-6.6-8.4-6.6h-14.5v26.4h15c3.8 0 7.4-1.8 8.7-5.3v5.3h8.1v-10h7.4v-6.1h-7.4v-4h11.4v20.1h7.7v-16.9h.1l4.6 16.9h6.1l4.6-16.9h.1v16.9h7.7v-26.4z"/><path d="m4.3 62.9h-3.5v-12.4h6.7c3.4 0 4.6 1.2 4.6 4.2v.4c0 2.9-1.4 4.2-4.6 4.2h-3.2zm0-9.7v3.5h2.7c1.3 0 1.6-.5 1.6-1.7v-.1c0-1.3-.4-1.6-1.6-1.6h-2.7zm20.8 9.7h-3.9l-.8-2.5h-4.9l-.8 2.5h-3.7l4.5-12.4h5.2zm-7.3-9.7-1.5 4.5h3.2l-1.5-4.5zm12.8 9.7h-3.5v-9.4h-3.6v-3h10.7v3h-3.7v9.4zm8.2 0h-3.5v-12.4h6.5c3.6 0 4.8.8 4.8 3.4v.2c0 1.8-.5 2.7-2 2.9v.1c1.4.2 2 .6 2 2.9v2.8h-3.5v-2.7c0-1.2-.4-1.5-1.9-1.5h-2.5v4.3zm0-9.7v2.8h2.9c1 0 1.4-.3 1.4-1.3v-.1c0-1.1-.4-1.5-1.8-1.5h-2.5zm12.8 9.7h-3.5v-12.4h3.5zm17.9 0h-3.4v-9.4h-.1l-3.2 9.4h-3l-3.2-9.4h-.1v9.4h-3.4v-12.4h5.9l2.4 7.4h.1l2.4-7.4h5.6zm7.5.2c-4.3 0-6.1-1.7-6.1-5.9v-.9c0-4.2 1.8-5.9 6.1-5.9h.3c4.3 0 6.1 1.7 6.1 5.9v.9c0 4.2-1.8 5.9-6.1 5.9zm.3-2.9c2.2 0 2.6-1.2 2.6-3.2v-.6c0-2-.4-3.2-2.6-3.2h-.3c-2.2 0-2.6 1.2-2.6 3.2v.6c0 2 .4 3.2 2.6 3.2zm11 2.7h-3.5v-12.4h3.5zm14.5 0h-5.2l-4.2-8.6h-.1v8.6h-3.3v-12.4h5.2l4.2 8.6h.1v-8.6h3.3zm11.4 0h-9.8v-12.4h9.8v2.7h-6.3v2.1h6.3v2.7h-6.3v2.1h6.3z"/></g></svg>