<svg width="84" height="84" viewBox="0 0 84 84" fill="none" xmlns="http://www.w3.org/2000/svg">
<g clip-path="url(#clip0_302_417)">
<path d="M10.4 47.46V66.23H16.58V69.34H7.22998V47.46H10.4ZM23.08 59.88L16.21 47.46H19.87L24.67 56.21L29.48 47.46H33.12L26.25 59.88V69.34H23.08V59.88ZM44.8 47.05C46.26 47.05 47.67 47.37 49.04 48.02C50.41 48.67 51.62 49.58 52.65 50.77C54.58 52.96 55.54 55.51 55.54 58.43C55.54 60.02 55.23 61.55 54.6 63.01C53.97 64.47 53.09 65.73 51.94 66.8C49.84 68.78 47.37 69.77 44.54 69.77C42.98 69.77 41.47 69.43 40 68.74C38.53 68.06 37.28 67.11 36.23 65.89C34.47 63.85 33.58 61.36 33.58 58.42C33.58 55.24 34.7 52.53 36.93 50.29C39.08 48.13 41.7 47.05 44.77 47.05H44.8ZM44.46 50.16C42.09 50.16 40.15 51.12 38.63 53.05C37.41 54.6 36.8 56.42 36.8 58.5C36.8 60.83 37.58 62.77 39.14 64.33C40.69 65.88 42.5 66.65 44.58 66.65C45.7 66.65 46.78 66.4 47.82 65.9C48.86 65.4 49.75 64.7 50.49 63.8C51.73 62.3 52.35 60.49 52.35 58.35C52.35 56.1 51.61 54.16 50.12 52.53C48.65 50.95 46.77 50.16 44.46 50.16ZM58.9 69.34V45.97L74.2 62.66V47.46H77.37V70.69L62.07 54.02V69.34H58.9Z" fill="#ED9205"/>
<path d="M17.9 33.42H13.13V28.51H18.23C20.15 28.51 21.08 29.36 21.08 30.91C21.08 32.94 19.6 33.42 17.9 33.42ZM13.11 19.59H17.42C19.08 19.59 20.19 20.07 20.19 21.4C20.19 23.1 19.12 23.58 17.42 23.58H13.11V19.59ZM67.43 13.31L63.66 28.83H63.59L59.82 13.31H28.7V28.82C27.91 26.82 26.32 25.68 24.63 25.1C26.59 24.03 27.89 22.59 27.89 19.92C27.89 17.25 26.41 13.3 19.46 13.3H5V39.69H19.97C23.74 39.69 27.41 37.87 28.7 34.39V39.69H36.83V29.63H44.26V23.57H36.81V19.58H48.25V39.69H55.94V22.76H56.02L60.6 39.69H66.66L71.24 22.76H71.32V39.69H79.01V13.31H67.44H67.43Z" fill="white"/>
</g>
<defs>
<clipPath id="clip0_302_417">
<rect width="84" height="84" fill="white"/>
</clipPath>
</defs>
</svg>
