<?xml version="1.0" encoding="utf-8"?>
<!-- Generator: Adobe Illustrator 24.1.0, SVG Export Plug-In . SVG Version: 6.00 Build 0)  -->
<svg version="1.1" id="Calque_1" xmlns="http://www.w3.org/2000/svg" xmlns:xlink="http://www.w3.org/1999/xlink" x="0px" y="0px"
	 viewBox="0 0 66 66" style="enable-background:new 0 0 66 66;" xml:space="preserve">
<style type="text/css">
	.st0{fill:#1D284B;}
	.st1{fill:#FFFFFF;}
</style>
<rect class="st0" width="66" height="66"/>
<path class="st1" d="M22,32.6h-2.2v-2.3h2.3c0.9,0,1.3,0.4,1.3,1.1C23.4,32.3,22.8,32.6,22,32.6 M19.8,26.2h2c0.8,0,1.3,0.2,1.3,0.8
	c0,0.8-0.5,1-1.3,1h-2V26.2z M44.7,23.3L43,30.5h0l-1.7-7.1H26.9v7.1c-0.4-0.9-1.1-1.4-1.9-1.7c0.9-0.5,1.5-1.2,1.5-2.4
	c0-1.2-0.7-3-3.9-3h-6.6v12.1h6.9c1.7,0,3.4-0.8,4-2.4v2.4h3.7v-4.6h3.4V28h-3.4v-1.8h5.2v9.2h3.5v-7.8h0l2.1,7.8h2.8l2.1-7.8h0v7.8
	H50V23.3H44.7z"/>
<path class="st1" d="M8.6,42.6H7v-5.7h3.1c1.6,0,2.1,0.6,2.1,1.9V39c0,1.3-0.6,1.9-2.1,1.9H8.6V42.6z M8.6,38.1v1.6h1.3
	c0.6,0,0.7-0.2,0.7-0.8v-0.1c0-0.6-0.2-0.8-0.8-0.8H8.6z M18.1,42.6h-1.8L16,41.4h-2.3l-0.4,1.1h-1.7l2.1-5.7h2.4L18.1,42.6z
	 M14.8,38.2l-0.7,2.1h1.5L14.8,38.2L14.8,38.2z M20.7,42.6h-1.6v-4.3h-1.6v-1.4h4.9v1.4h-1.7V42.6z M24.4,42.6h-1.6v-5.7h3
	c1.7,0,2.2,0.4,2.2,1.5v0.1c0,0.8-0.3,1.2-0.9,1.3V40c0.6,0.1,0.9,0.3,0.9,1.3v1.3h-1.6v-1.3c0-0.5-0.2-0.7-0.9-0.7h-1.1V42.6z
	 M24.4,38.1v1.3h1.3c0.5,0,0.6-0.2,0.6-0.6v0c0-0.5-0.2-0.7-0.8-0.7H24.4z M30.3,42.6h-1.6v-5.7h1.6V42.6z M38.5,42.6H37v-4.3h0
	l-1.5,4.3h-1.4l-1.4-4.3h-0.1v4.3H31v-5.7h2.7l1.1,3.4h0.1l1.1-3.4h2.5V42.6z M42,42.7c-2,0-2.8-0.8-2.8-2.7v-0.4
	c0-1.9,0.8-2.7,2.8-2.7h0.1c2,0,2.8,0.8,2.8,2.7v0.4c0,1.9-0.8,2.7-2.8,2.7H42z M42.1,41.4c1,0,1.2-0.6,1.2-1.5v-0.3
	c0-0.9-0.2-1.5-1.2-1.5H42c-1,0-1.2,0.6-1.2,1.5v0.3c0,0.9,0.2,1.5,1.2,1.5H42.1z M47.1,42.6h-1.6v-5.7h1.6V42.6z M53.8,42.6h-2.4
	l-1.9-3.9h-0.1v3.9h-1.5v-5.7h2.4l1.9,3.9h0v-3.9h1.5V42.6z M59,42.6h-4.5v-5.7H59v1.2h-2.9v1H59v1.2h-2.9v1H59V42.6z"/>
</svg>
