<svg xmlns="http://www.w3.org/2000/svg" width="32" height="20" viewBox="0 0 32 20"><g><g><path fill="#fff" d="M31.448 0v11.306h-3.262V4.054h-.032l-1.963 7.252h-2.566l-1.963-7.252h-.032v7.252h-3.262V2.692h-4.845v1.71h3.167v2.597h-3.167v4.307h-3.452v-2.28c-.539 1.488-2.091 2.28-3.706 2.28H0V.032h6.144c2.945 0 3.578 1.678 3.578 2.818 0 1.14-.569 1.774-1.392 2.217a2.686 2.686 0 0 1 1.741 1.584V0h13.206l1.615 6.651h.032L26.539 0zM3.452 2.692v1.71h1.836c.729 0 1.172-.19 1.172-.918 0-.602-.475-.792-1.172-.792zm2.026 5.922c.729 0 1.362-.19 1.331-1.077 0-.665-.38-1.013-1.204-1.013H3.452v2.09zm20.206 7.348c0-1.045.855-1.901 1.9-1.901s1.9.856 1.9 1.901c-.031 1.045-.886 1.9-1.9 1.9-1.045 0-1.9-.855-1.9-1.9zm-8.741 2.122v-4.213h.475c1.394 0 1.932.444 1.932 2.091 0 1.488-.665 2.122-1.869 2.122zm-6.904-.856l.792-2.85.823 2.85zm-7.411-1.805V13.84h1.204c.601 0 1.045.253 1.045.823s-.444.76-1.235.76zm24.956-3.547a4.097 4.097 0 0 0-3.515 1.995v-1.868h-2.407v2.122c-.57-1.425-1.932-2.122-3.832-2.122h-3.484v6.492l-2.154-6.492H9.564l-2.279 6.809v-.538c0-1.584-.507-1.806-1.33-2.091.917-.253 1.33-1.013 1.33-1.931 0-1.552-.856-2.249-3.517-2.249H.031v7.917h2.597v-2.755h.792c1.203 0 1.393.349 1.393 1.362l.032 1.393H9.279l.285-1.045h2.597l.317 1.045h5.257c1.932 0 3.325-.665 3.927-2.248v2.248h2.407v-1.868a4.097 4.097 0 0 0 3.515 1.995 4.096 4.096 0 0 0 4.086-4.085 4.096 4.096 0 0 0-4.086-4.086"/></g></g></svg>