<?xml version="1.0" encoding="UTF-8"?>
<svg id="Calque_1" data-name="Calque 1" xmlns="http://www.w3.org/2000/svg" xmlns:xlink="http://www.w3.org/1999/xlink" viewBox="0 0 1920 324">
  <defs>
    <style>
      .cls-1 {
        fill: url(#Dégradé_sans_nom_40-5);
      }

      .cls-1, .cls-2, .cls-3, .cls-4, .cls-5, .cls-6, .cls-7 {
        stroke-width: 0px;
      }

      .cls-2 {
        fill: url(#Dégradé_sans_nom_40);
      }

      .cls-3 {
        fill: url(#Dégradé_sans_nom_40-3);
      }

      .cls-4 {
        fill: url(#Dégradé_sans_nom_40-6);
      }

      .cls-5 {
        fill: #fff;
      }

      .cls-6 {
        fill: url(#Dégradé_sans_nom_40-4);
      }

      .cls-7 {
        fill: url(#Dégradé_sans_nom_40-2);
      }
    </style>
    <linearGradient id="Dégradé_sans_nom_40" data-name="Dégradé sans nom 40" x1="678.23" y1="167.28" x2="1907.73" y2="167.28" gradientUnits="userSpaceOnUse">
      <stop offset="0" stop-color="#74b28a"/>
      <stop offset=".05" stop-color="#7ec397"/>
      <stop offset=".14" stop-color="#8cd9a8"/>
      <stop offset=".23" stop-color="#96eab6"/>
      <stop offset=".36" stop-color="#9df6bf"/>
      <stop offset=".53" stop-color="#a1fdc4"/>
      <stop offset="1" stop-color="#a3ffc6"/>
    </linearGradient>
    <linearGradient id="Dégradé_sans_nom_40-2" data-name="Dégradé sans nom 40" x1="678.23" y1="166.43" x2="1907.73" y2="166.43" xlink:href="#Dégradé_sans_nom_40"/>
    <linearGradient id="Dégradé_sans_nom_40-3" data-name="Dégradé sans nom 40" y1="166.43" x2="1907.73" y2="166.43" xlink:href="#Dégradé_sans_nom_40"/>
    <linearGradient id="Dégradé_sans_nom_40-4" data-name="Dégradé sans nom 40" x1="678.23" y1="166.43" x2="1907.73" y2="166.43" xlink:href="#Dégradé_sans_nom_40"/>
    <linearGradient id="Dégradé_sans_nom_40-5" data-name="Dégradé sans nom 40" x1="678.23" x2="1907.73" xlink:href="#Dégradé_sans_nom_40"/>
    <linearGradient id="Dégradé_sans_nom_40-6" data-name="Dégradé sans nom 40" x1="678.23" y1="164.5" x2="1907.73" y2="164.5" xlink:href="#Dégradé_sans_nom_40"/>
  </defs>
  <g id="Logo_blanc" data-name="Logo blanc">
    <path class="cls-5" d="m135.81,223.39h-40.8v-42.5h44.27c16.48,0,25.17,6.92,25.17,20.77,0,17.43-13.04,21.73-27.79,21.73m-41.64-119.01h36.63c14.5,0,23.88,4.27,23.87,15.3,0,10.43-8.91,18.7-19.35,18.7h-41.15s0-34,0-34h0Zm464.55-54.4l-32.45,132.61h-.89l-31.55-132.61H229.31v132.82c-6.81-17.14-20.48-26.58-34.99-31.68,17.09-9.44,28.18-21.44,28.18-44.57s-12.77-56.56-71.71-56.56H27v226.11h125.75c32.72,0,63.69-15.34,74.87-45.22v45.22h69.7v-86.7h62.9v-52.7h-61.2v-32.3h96.91v170.01h66.3v-142.81h-1.75l39.62,144.51h52.51l39.62-144.51h.9v144.51h66.3V49.98h-99.88Z"/>
  </g>
  <g>
    <polygon class="cls-2" points="973.95 56.78 900.85 56.78 900.85 277.79 1074.26 277.79 1074.26 226.79 973.95 226.79 973.95 56.78"/>
    <rect class="cls-7" x="1098.06" y="55.08" width="73.1" height="222.71"/>
    <polygon class="cls-3" points="1323.32 193.96 1284.28 55.08 1196.66 55.08 1196.66 277.79 1261.27 277.79 1261.27 202.37 1259.71 167.75 1256.61 134.98 1257.23 134.98 1297.88 277.79 1348.76 277.79 1389.41 134.98 1390.03 134.98 1386.31 175.17 1385.37 209.79 1385.37 277.79 1449.98 277.79 1449.98 55.08 1362.36 55.08 1323.32 193.96"/>
    <path class="cls-6" d="m1547.16,55.08l-79.8,222.71h72.19l8.21-28.9h71.5l8.52,28.9h73.43l-79.8-222.71h-74.24Zm14,147.91l22.5-79.51,23.42,79.51h-45.92Z"/>
    <polygon class="cls-1" points="1687.99 56.78 1687.99 114.58 1754.29 114.58 1754.29 277.79 1827.4 277.79 1827.4 114.58 1892 114.58 1892 56.78 1687.99 56.78"/>
    <path class="cls-4" d="m775.3,226.87c-36.87,0-43.63-29.19-43.63-60.22,0-42.71,15.36-64.52,40.86-64.52,22.74,0,37.18,13.21,39.33,36.26h68.82c-5.84-56.84-43.63-90.33-111.22-90.33-34.26,0-64.43,13.73-84.52,38.15v157.29c20.2,23.97,51.55,37.45,91.59,37.45,58.38,0,99.24-34.41,105.69-91.56h-69.75c-2.77,21.2-13.83,37.48-37.18,37.48Z"/>
  </g>
</svg>