<?xml version="1.0" encoding="utf-8"?>
<!-- Generator: Adobe Illustrator 25.3.1, SVG Export Plug-In . SVG Version: 6.00 Build 0)  -->
<svg version="1.1" id="Calque_1" xmlns="http://www.w3.org/2000/svg" xmlns:xlink="http://www.w3.org/1999/xlink" x="0px" y="0px"
	 viewBox="0 0 173 37" style="enable-background:new 0 0 173 37;" xml:space="preserve">
<style type="text/css">
	.st0{fill:#FFFFFF;}
	.st1{opacity:0.5;fill:#FFFFFF;}
	.st2{font-family:'FlorencesansExp-Bold';}
	.st3{font-size:11.6786px;}
	.st4{letter-spacing:-1;}
	.st5{font-family:'Montserrat-Medium';}
	.st6{font-size:3.4906px;}
</style>
<g>
	<g>
		<path class="st0" d="M51.1,30.7c3.7,0,6.9-1.1,9.5-2.9c-3.1,5.2-8.8,8.6-15.3,8.6c-9.9,0-17.9-8-17.9-17.9c0-9.9,8-17.9,17.9-17.9
			c3.5,0,6.8,1,9.6,2.8c-1.3-0.5-2.7-0.8-3.8-0.8c-8.3,0-15.5,6.3-15.5,14.1C35.5,25.8,42.8,30.7,51.1,30.7z"/>
		<path class="st0" d="M45.3,35.6c-9.5,0-17.1-7.7-17.1-17.1c0-9.5,7.7-17.1,17.1-17.1c1.4,0,2.8,0.2,4.1,0.5
			c-8.1,0.8-14.7,7.2-14.7,14.8c0,8.7,6.7,14.9,16.3,14.9c2.4,0,4.7-0.4,6.8-1.3C54.6,33.7,50.1,35.6,45.3,35.6z"/>
		<path class="st0" d="M63.2,18.5C63.2,18.5,63.2,18.5,63.2,18.5c0,2.2-1,4.2-2.7,5.6c-3.4,2.7-8.1,3.2-11.4,2.3
			c-10.8-3-9.3-15.1-2.6-18.5c5.2-2.6,9.3-0.3,8.9,3.3c-0.4,2.8-5.5,5.9-13,5.4C56.3,21,61.9,13,59.5,7.6c0,0,0,0,0,0
			C61.8,10.6,63.2,14.4,63.2,18.5z"/>
		<path class="st0" d="M42,17.3C42,17.3,42,17.3,42,17.3C42,17.3,42,17.3,42,17.3L42,17.3z"/>
		<path class="st0" d="M62.4,18.5L62.4,18.5c0,1.9-0.9,3.8-2.4,5c-2,1.6-4.8,2.6-7.7,2.6c-1.1,0-2.1-0.1-3.1-0.4
			c-4.2-1.2-6.9-4-7.3-7.8c0-0.2,0-0.4,0-0.5c2.7,0.9,5.5,1.3,7.8,1.3c4.4,0,7.9-1.6,9.7-4.4c0.6-1,1-2,1.2-3.1
			C61.8,13.4,62.4,15.9,62.4,18.5z"/>
		<path class="st1" d="M52.5,10.5c0.6,2.3-2.9,5.5-9.1,6.1c7,0.2,11.7-2.7,12-5.4c0.5-3.6-3.6-5.9-8.9-3.3c-4,2-6.1,7-5,11.4
			C41.4,7.2,51.8,7.7,52.5,10.5z"/>
	</g>
	<g>
		<text transform="matrix(1 0 0 1 67.2672 22.5634)" class="st0 st2 st3 st4">ESPAGNORA</text>
	</g>
	<g>
		<text transform="matrix(1.0577 0 0 1 69.4078 28.6142)" class="st0 st5 st6">Votre portail des solutions</text>
	</g>
</g>
</svg>
