<?xml version="1.0" encoding="UTF-8"?>
<svg id="Calque_1" data-name="Calque 1" xmlns="http://www.w3.org/2000/svg" viewBox="0 0 1527 740">
  <defs>
    <style>
      .cls-1 {
        fill: #ff7088;
      }

      .cls-1, .cls-2, .cls-3 {
        stroke-width: 0px;
      }

      .cls-2 {
        fill: #fff;
      }

      .cls-3 {
        fill: #57ff97;
      }
    </style>
  </defs>
  <g>
    <path class="cls-3" d="m110.06,474.18l19.03,125.65,4.17,31.28,14.6-31.28,61-125.65h26.85l-94.11,187.17h-26.33l-31.28-187.17h26.07Z"/>
    <path class="cls-3" d="m269.85,474.18h73.77c30.24,0,57.35,11.47,57.35,47.44,0,26.07-16.42,44.84-34.93,51.61,13.29,6.78,14.34,16.16,14.34,30.24,0,5.73-1.83,35.19-1.83,36.76,0,9.91.52,15.64,5.74,16.68v4.43h-29.46c-1.04-3.39-1.82-5.21-1.82-11.47s2.35-35.19,2.35-40.93c0-26.85-13.29-27.89-34.93-27.89h-48.23l-17.2,80.29h-24.5l39.36-187.17Zm62.56,85.76c23.46,0,43.53-9.64,43.53-35.97,0-24.24-17.47-27.89-37.54-27.89h-48.23l-13.82,63.87h56.05Z"/>
    <path class="cls-3" d="m533.91,474.18l30.76,187.17h-25.03l-8.08-53.96h-75.86l-27.37,53.96h-28.15l101.93-187.17h31.8Zm-19.55,23.46h-.26l-47.18,89.41h61.26l-13.82-89.41Z"/>
    <path class="cls-3" d="m629.84,474.18h25.03l-39.62,187.17h-25.03l39.62-187.17Z"/>
  </g>
  <g id="Logo_blanc" data-name="Logo blanc">
    <path class="cls-2" d="m413.95,332h-65.18v-67.89h70.72c26.32,0,40.2,11.06,40.2,33.18,0,27.84-20.83,34.71-44.4,34.71m-66.52-190.1h58.51c23.16,0,38.14,6.82,38.13,24.44-.01,16.67-14.24,29.87-30.91,29.87h-65.74s0-54.31,0-54.31h0Zm742.08-86.9l-51.83,211.83h-1.43l-50.41-211.83h-423.87v212.16c-10.88-27.38-32.71-42.46-55.89-50.61,27.31-15.08,45.01-34.24,45.01-71.2s-20.4-90.35-114.55-90.35h-197.74v361.19h200.87c52.27,0,101.74-24.51,119.59-72.24v72.24h111.34v-138.5h100.48v-84.19h-97.77v-51.6h154.8v271.57h105.91v-228.12h-2.79l63.29,230.84h83.88l63.29-230.84h1.44v230.84h105.91V55h-159.54Z"/>
  </g>
  <g>
    <path class="cls-1" d="m857.88,473.02h113.66l-4.43,22.42h-89.41l-12.51,58.65h87.07l-4.43,21.64h-87.59l-18.25,84.46h-25.03l40.93-187.17Z"/>
    <path class="cls-1" d="m1070.59,473.02l30.76,187.17h-25.03l-8.08-53.96h-75.86l-27.37,53.96h-28.15l101.93-187.17h31.8Zm-19.55,23.46h-.26l-47.18,89.41h61.26l-13.82-89.41Z"/>
    <path class="cls-1" d="m1182.94,473.02l-24.5,111.05c-3.39,15.38-4.95,21.38-4.95,30.5,0,23.72,26.07,28.94,42.49,28.94,33.63,0,43.53-23.2,49.79-51.88l26.07-118.61h25.29l-26.07,119.65c-9.12,41.19-25.81,72.21-75.86,72.21-31.8,0-66.21-13.82-66.21-52.4,0-10.17,3.65-22.94,6.78-38.06l21.9-101.41h25.29Z"/>
    <path class="cls-1" d="m1370.37,564l-42.23-90.98h28.15l31.28,70.64,51.88-70.64h30.24l-70.38,92.8,43.79,94.37h-28.15l-32.85-74.82-55,74.82h-29.72l72.99-96.19Z"/>
  </g>
  <polygon class="cls-2" points="753.55 687.3 806.26 447.78 726.49 447.78 673.32 687.3 753.55 687.3"/>
</svg>