<svg fill="none" height="21" viewBox="0 0 85 21" width="85" xmlns="http://www.w3.org/2000/svg" xmlns:xlink="http://www.w3.org/1999/xlink"><clipPath id="a"><path d="m0 .5h85v20h-85z"/></clipPath><g clip-path="url(#a)"><path d="m75.599.5-2.9373 12.1138h-.054l-2.992-12.1138h-26.4911l-2.6129 11.758h-.0539l-2.5958-11.758h-21.4991v11.758c-.2478-.67-.6284-1.2711-1.1142-1.7599s-1.0646-.85305-1.6945-1.06634c.6901-.32924 1.2739-.87845 1.6757-1.57629s.6029-1.51204.5771-2.33683c-.0022-2.05463-1.0296-5.01864-5.82357-5.01864h-9.98343v19.9984h10.3441c2.5951 0 5.1362-1.3836 6.0188-4.0112v4.0112h5.6225v-7.6277h5.1363v-4.585h-5.1363v-3.02318h7.8932v15.23748h5.3166v-12.82704h.0539l3.1716 12.82544h4.1806l3.1723-12.82544h.0525v12.82544h5.3166v-14.88007h4.4525v14.88007h5.6225v-14.88007h4.1266l4.0364 14.88007h6.2893l5.6957-19.9984zm-69.99417 4.76252h2.97352c1.15304 0 1.90995.35581 1.90995 1.36327 0 1.28465-.73917 1.65991-1.90995 1.65991h-2.97352zm3.29726 10.47498h-3.27952v-3.7364h3.5323c1.33043 0 1.96463.6484 1.96463 1.8179-.0185 1.54-1.0274 1.9185-2.21741 1.9185zm71.66311-.1151h4.4348v4.863h-4.4348z" fill="#f7f7f7"/></g></svg>