<svg width="238" height="73" viewBox="0 0 238 73" fill="none" xmlns="http://www.w3.org/2000/svg">
<g clip-path="url(#clip0_4683_90)">
<path d="M110.185 64.6551V64.4211C110.185 63.4072 110.572 62.7053 112.196 62.3933L117.608 61.3794C120.392 60.7555 122.093 59.8976 123.253 58.7277C124.413 57.3239 124.876 55.6081 124.876 53.2683V53.1124C124.876 52.0205 124.645 51.0066 124.335 50.0707C123.175 46.873 119.851 45.1572 113.897 45.1572H113.278C107.402 45.1572 103.071 47.029 102.221 53.3463H110.494C110.804 52.0985 111.809 51.5525 113.974 51.5525C115.984 51.5525 116.758 52.0985 116.758 53.3463V53.5023C116.758 54.5942 116.371 55.1401 114.747 55.4521L110.262 56.388C103.922 57.7139 102.144 60.0536 102.144 66.5269V71.1284H127.119C125.572 69.4126 124.413 67.3068 123.871 64.5771H110.185V64.6551Z" fill="white"/>
<path d="M165.935 45.313H165.316C159.44 45.313 155.11 47.1848 154.259 53.5021H162.533C162.842 52.2542 163.847 51.7083 166.012 51.7083C168.022 51.7083 168.796 52.2542 168.796 53.5021V53.5801C168.796 54.672 168.409 55.2179 166.785 55.5299L162.301 56.4658C155.96 57.7916 154.182 60.1314 154.182 66.6047V71.2062H176.992V64.7329H162.301V64.5769C162.301 63.563 162.61 62.8611 164.234 62.5491L169.646 61.4572C175.291 60.3653 176.915 57.9476 176.915 53.4241V53.1901C176.837 48.1207 173.667 45.313 165.935 45.313Z" fill="white"/>
<path d="M139.49 45.2354H139.026C130.83 45.2354 126.887 48.433 126.887 57.948V58.7279C126.887 63.2514 127.815 66.371 129.593 68.3988C131.294 70.3486 133.846 71.2065 137.325 71.4405C137.944 71.5185 138.485 71.5185 139.104 71.5185H139.645C140.418 71.5185 141.191 71.4405 141.965 71.4405C145.444 71.1285 147.919 70.0366 149.542 68.0089C151.089 65.9811 151.862 63.0174 151.862 58.8059V58.026C151.63 48.433 147.841 45.2354 139.49 45.2354ZM143.434 59.5858C143.434 62.7834 142.893 64.1873 141.191 64.7332C140.65 64.8892 140.032 64.9672 139.258 64.9672C138.485 64.9672 137.867 64.8892 137.325 64.7332C135.547 64.1873 135.006 62.7834 135.006 59.5858V57.246H135.083C135.083 53.0345 136.011 51.8646 139.258 51.8646C142.583 51.8646 143.434 52.9565 143.434 57.246V59.5858Z" fill="white"/>
<path d="M200.266 59.7418V46.0933H188.823L179.621 55.4522V65.9031H192.225V70.9725H200.189V66.0591H202.663V59.7418H200.266ZM192.225 59.6638H185.188L185.111 59.3518L191.915 52.4106H192.147L192.225 59.6638Z" fill="white"/>
<path d="M238 71.0502L215.886 6.23926H207.535L229.649 71.0502H238Z" fill="#3271CC"/>
<path d="M222.536 55.14L203.591 0H194.854L213.875 55.14H222.536Z" fill="#D20038"/>
<path d="M220.37 63.9531L222.226 58.4937L217.664 62.1592L212.947 58.7276L214.726 64.265L210.086 67.6187H215.808L217.664 73.0001L219.365 67.3847L225.242 67.4627L220.37 63.9531Z" fill="white"/>
<path d="M194.622 5.30322H105.546C102.917 5.30322 100.829 7.40899 100.829 10.0607V40.9453H206.839L194.622 5.30322ZM134.619 25.503C134.619 36.0319 131.449 38.7616 120.392 38.7616H119.773C108.793 38.7616 105.546 36.1099 105.546 25.503V8.50087H115.752V25.191C115.752 30.1045 116.835 30.7284 119.851 30.7284H120.314C123.33 30.7284 124.413 30.1045 124.413 25.191V8.50087H134.619V25.503ZM151.553 38.8396H151.089C141.965 38.8396 136.784 35.9539 136.166 29.4026H146.836C147.3 31.3524 149.001 31.6643 151.553 31.6643C154.414 31.6643 155.496 31.0404 155.496 29.5586V29.1686C155.496 27.9207 154.801 27.2968 152.481 27.2968L148.228 27.1408C140.264 26.9069 136.707 24.4891 136.707 18.4058V18.2498C136.707 11.6205 140.96 8.18891 150.47 8.18891H150.857C159.904 8.18891 165.084 11.9325 165.626 18.0938H154.955C154.414 16.066 153.022 15.4421 150.625 15.4421C147.919 15.4421 146.914 16.066 146.914 17.6259V17.7819C146.914 19.1857 147.687 19.6537 150.084 19.8096L154.259 19.9656C162.224 20.2776 165.78 22.6173 165.78 28.7007V28.7787C165.703 35.7979 160.986 38.8396 151.553 38.8396ZM190.524 38.3716L188.9 33.1462H177.843L176.142 38.3716H165.394L175.987 8.57886H191.065L201.658 38.3716H190.524Z" fill="white"/>
<path d="M183.874 16.144L180.858 25.737H187.276L184.261 16.144H183.874Z" fill="white"/>
<path d="M57.219 38.9956L52.1157 58.6494L46.7804 38.9956H13.6089V47.1847H21.8051V71.44H31.7798V47.3407H39.0481L46.3165 71.596H57.451L67.3483 38.9956H57.219Z" fill="white"/>
<path d="M14.2274 27.8428H9.12411V22.5394H14.614C16.7791 22.5394 17.8616 23.5533 17.8616 25.1911C17.8616 27.3748 16.0832 27.8428 14.2274 27.8428ZM8.89214 12.7904H13.5315C15.4646 12.7904 16.4698 13.2584 16.4698 14.8182C16.4698 16.768 15.3099 17.314 13.5315 17.314H8.89214V12.7904ZM68.2762 5.77122L64.3327 22.8513H64.178L60.1573 5.77122H26.1352V23.0073C25.13 20.8236 23.5062 19.6537 21.5731 18.8738C23.7381 17.7039 25.0526 16.0661 25.0526 12.9464C25.0526 9.98276 23.4289 5.61523 15.6966 5.61523H0V34.706H16.3151C20.4133 34.706 24.5114 32.6783 25.8259 28.7787V34.706H34.718V23.7872H42.9142V17.002H34.718V12.4785H47.167V34.5501H55.5952V16.2221H55.7498L60.6985 34.94H67.4256L72.5289 16.2221H72.6836V34.94H81.1118V5.77122H68.2762Z" fill="white"/>
<path d="M65.4927 62.1592H74.8488V71.5962H65.4927V62.1592Z" fill="white"/>
<path d="M90.7773 72.5322C90.3907 72.5322 90.1587 72.2982 90.1587 71.9082V5.53751C90.1587 5.14755 90.3907 4.91357 90.7773 4.91357C91.1639 4.91357 91.3959 5.14755 91.3959 5.53751V71.9082C91.3959 72.2982 91.1639 72.5322 90.7773 72.5322Z" fill="white"/>
</g>
<defs>
<clipPath id="clip0_4683_90">
<rect width="238" height="73" fill="white"/>
</clipPath>
</defs>
</svg>
