<svg enable-background="new 0 0 382.3 135.5" viewBox="0 0 382.3 135.5" xmlns="http://www.w3.org/2000/svg"><path d="m85 .9c-40-6.4-77.7 21-84.1 61-4.5 28.3 8 56.9 31.9 72.7 1.3.9 3.1.5 4-.8s.5-3.1-.8-4c-22-14.6-33.6-41-29.4-67.1 5.8-36.8 40.6-62 77.5-56.1 1.6.2 3-.8 3.3-2.4.2-1.6-.9-3-2.4-3.3" fill="#396db1"/><path d="m45 18c-.6-.1-1.2 0-1.8.3-17.2 9.5-28.8 25.9-31.9 45.2-5.5 34.2 18 66.5 52.2 72 1.6.2 3-.8 3.3-2.4.2-1.6-.8-3-2.4-3.3-31.1-4.9-52.4-34.2-47.4-65.4 2.8-17.5 13.3-32.5 28.9-41.1 1.4-.8 1.9-2.5 1.1-3.9-.4-.7-1.2-1.3-2-1.4" fill="#fff"/><path d="m25.6 62c-1.6-.2-3 .8-3.3 2.4-4.7 29.4 15.4 57.1 44.8 61.8 13.1 2.1 26.4-.7 37.5-7.8 1.3-.8 1.7-2.6.9-4-.9-1.3-2.6-1.7-4-.9-9.9 6.3-21.9 8.8-33.5 7-26.3-4.2-44.2-29-40-55.2.2-1.6-.9-3-2.4-3.3" fill="#da3832"/><g fill="#fff"><path d="m88.8 70.1-4.1 15.4-4.2-15.4h-26v6.5h6.4v18.9h7.9v-18.9h5.7l5.7 18.9h8.8l7.9-25.4z"/><path d="m55 61.4h-4.1v-4.2h4.4c1.7 0 2.5.7 2.5 2.1-.1 1.7-1.4 2.1-2.8 2.1m-4.2-11.9h3.7c1.4 0 2.4.4 2.4 1.6 0 1.5-.9 1.9-2.4 1.9h-3.7zm46.8-5.4-3.2 13.4h-.1l-3.2-13.4h-26.8v13.4c-.7-1.7-2.1-2.7-3.5-3.2 1.7-.9 2.8-2.2 2.8-4.5s-1.3-5.7-7.3-5.7h-12.4v22.7h12.9c3.2 0 6.4-1.6 7.5-4.6v4.6h7v-8.7h6.4v-5.2h-6.4v-3.4h9.8v17.3h6.6v-14.6h.1l3.9 14.6h5.2l3.9-14.6h.1v14.6h6.6v-22.7z"/><path d="m95.4 88.2h7.3v7.3h-7.3z"/><path d="m209.3 84.3h-55.9v-10.3c0-14.2 4-19.4 18.1-22.4l10-2c3.7-.8 4.5-1.9 4.5-4.4v-.2c0-2.8-1.6-4-6.2-4-4.9 0-7 1.1-7.7 4h-18.4c1.9-14 11.5-18.1 24.7-18.1h1.5c13.5 0 20.8 3.7 23.4 10.8.7 2 1.1 4.3 1.1 6.8v.3c0 5.2-1 9.1-3.7 12.1-2.5 2.7-6.5 4.6-12.6 5.8l-12.1 2.2c-3.7.8-4.5 2.3-4.5 4.5v.4h30.4c1.4 6 3.8 10.8 7.4 14.5"/><path d="m269.7 84.4v-10.2c0-14.2 4-19.4 18.1-22.4l10-2c3.7-.8 4.5-1.9 4.5-4.4v-.2c0-2.8-1.6-4-6.2-4-4.9 0-7 1.1-7.7 4h-18.4c1.9-14 11.5-18.1 24.7-18.1h1.5c17.3 0 24.5 6.1 24.5 17.6v.3c0 10.1-3.7 15.3-16.3 17.9l-12.1 2.3c-3.7.8-4.4 2.3-4.4 4.5v.3h32.8v14.4z"/><path d="m327.4 84.4v-10.2c0-14.2 4-19.4 18.1-22.4l10-2c3.7-.8 4.4-1.9 4.4-4.4v-.2c0-2.8-1.6-4-6.2-4-4.9 0-7 1.1-7.7 4h-18.4c1.9-14 11.5-18.1 24.7-18.1h1.5c17.3 0 24.5 6.1 24.5 17.6v.3c0 10.1-3.7 15.3-16.3 17.9l-12 2.2c-3.7.8-4.4 2.3-4.4 4.5v.4h32.8v14.4z"/><path d="m237 26.8h-1c-18.3 0-27.2 7-27.2 28.3v1.8c0 10.1 2 17 6 21.4 3.8 4.2 9.5 6.3 17.2 6.7 1.3.1 2.6.1 4 .1h1.1c1.8 0 3.5-.1 5.1-.2 7.7-.7 13.3-3 17-7.6 3.5-4.5 5.2-11.1 5.2-20.4v-1.8c-.1-21.3-8.6-28.3-27.4-28.3m-9.9 26.5c0-9.3 2.1-11.8 9.4-11.8 7.4 0 9.4 2.5 9.4 11.8v5.3c0 7.1-1.2 10.3-5 11.4-1.2.3-2.6.5-4.4.5-1.7 0-3.1-.1-4.2-.4-3.9-1.1-5.2-4.2-5.2-11.4z"/><path d="m129.6 104.1c-.4 0-.7-.3-.7-.7v-75.6c0-.4.3-.7.7-.7s.7.3.7.7v75.6c0 .4-.3.7-.7.7"/><path d="m162.7 104.5h-9.6v-12.2h4.2v8.8h5.4z"/><path d="m173.7 104.5h-10.2v-12.2h10.2v3.1h-6.1v1.5h6.1v3.1h-6.1v1.5h6.1z"/><path d="m184.4 104.7c-4.6 0-6.3-1.6-6.3-5.9v-.8c0-4.3 1.7-5.9 6.3-5.9h.2c4.1 0 5.8 1.4 6.2 4.4h-4.2c-.3-.9-.9-1.2-2.1-1.2h-.1c-2 0-2.1 1.1-2.1 2.8v.6c0 1.7.1 2.8 2.1 2.8h.1c1.2 0 1.8-.3 2.1-1.2h4.2c-.5 3.1-2.1 4.4-6.2 4.4z"/><path d="m204.5 104.5h-4.2v-4.4h-4.4v4.4h-4.2v-12.2h4.2v4.4h4.4v-4.4h4.2z"/><path d="m212 104.7c-4.6 0-6.4-1.6-6.4-5.9v-.7c0-4.4 1.8-6 6.4-6h.4c4.6 0 6.4 1.6 6.4 6v.7c0 4.3-1.8 5.9-6.4 5.9zm.3-3.2c2 0 2.2-1.1 2.2-2.8v-.6c0-1.7-.2-2.8-2.2-2.8h-.3c-2 0-2.2 1.1-2.2 2.8v.6c0 1.7.2 2.8 2.2 2.8z"/><path d="m223.9 104.5h-4.2v-12.2h4.2z"/><path d="m238.5 104.5h-5.1l-1.9-3.6h-.1l-2 3.6h-4.7l4.1-6.4-3.8-5.9h5.1l1.7 3.2h.1l1.8-3.2h4.7l-3.9 6z"/><path d="m253.4 99c0 3.8-1.6 5.6-5.2 5.6h-5.1v-12.3h5.1c3.6 0 5.2 1.8 5.2 5.6zm-8.5-5.3v9.3h3.3c2.8 0 3.5-1.6 3.5-4.4v-.6c0-2.7-.8-4.4-3.5-4.4h-3.3z"/><path d="m264.2 104.5h-8.5v-12.2h8.5v1.5h-6.8v3.9h6.8v1.5h-6.8v3.9h6.8z"/><path d="m270.7 104.7c-2.4 0-4.5-.7-4.8-3.2h1.8c.3 1.6 1.8 1.8 3.1 1.8 2 0 3.1-.5 3.1-2.1v-.2c0-1.3-.5-1.8-2.5-1.9l-1.7-.1c-2.5-.1-3.5-1.2-3.5-3.2v-.1c0-2.5 1.6-3.6 4.4-3.6h.2c2.3 0 4.4.8 4.7 3.3h-1.8c-.3-1.5-1.4-1.9-3.1-1.9-1.8 0-2.7.6-2.7 2v.1c0 1.3.5 1.8 2.5 1.9l1.7.1c2.5.1 3.5 1.2 3.5 3.2v.2c0 2.9-1.9 3.8-4.7 3.8h-.2z"/><path d="m284.5 104.5h-4.2v-12.2h10.2v3.1h-6.1v1.5h6.1v3.1h-6.1v4.5z"/><path d="m295.8 104.5h-4.2v-12.2h6.7c4.1 0 5.2.8 5.2 3.4v.2c0 1.7-.5 2.7-2.1 3v.1c1.6.3 2.1.6 2.1 2.9v2.7h-4.2v-2.7c0-.9-.3-1.2-1.6-1.2h-1.9zm0-9.2v2.4h2.5c.7 0 1-.3 1-1.1v-.1c0-1-.3-1.2-1.4-1.2z"/><path d="m319.1 104.5h-4.7l-.7-2.1h-4.6l-.7 2.1h-4.4l4.4-12.3h6.3zm-7.7-9.1-1.3 3.9h2.7l-1.3-3.9z"/><path d="m333.5 104.5h-6.2l-3.4-7.6h-.1v7.6h-4v-12.2h6.2l3.4 7.6h.1v-7.6h4z"/><path d="m347.3 100.3c-.2 1.3-.6 2.4-1.4 3.1-.7.7-1.8 1.1-3.4 1.3l-.7 2.4h-3.7l1.1-2.4c-3.4-.4-4.7-2.1-4.7-5.9v-.8c0-4.3 1.7-5.9 6.3-5.9h.2c4.1 0 5.8 1.4 6.2 4.4h-4.2c-.3-.9-.9-1.2-2.1-1.2h-.1c-2 0-2.1 1.1-2.1 2.8v.6c0 1.7.1 2.8 2.1 2.8h.1c1.2 0 1.8-.3 2.1-1.2z"/><path d="m362 104.5h-4.7l-.7-2.1h-4.6l-.7 2.1h-4.5l4.4-12.3h6.3zm-7.7-9.1-1.3 3.9h2.7l-1.3-3.9z"/><path d="m366.8 104.5h-4.2v-12.2h4.2z"/><path d="m373.9 104.7c-3.8 0-5.9-1.2-6.2-3.9h4.4c.2.8.9.9 2 .9 1.2 0 1.6-.3 1.6-.9v-.2c0-.5-.3-.8-1.3-.8l-1.8-.1c-3.3-.1-4.8-1.1-4.8-3.6v-.1c0-2.7 1.8-4.1 5.7-4.1h.2c3.8 0 5.9 1.5 6.1 4.1h-4.4c-.2-.8-.8-1.1-1.8-1.1-1.1 0-1.5.3-1.5.9v.2c0 .6.3.8 1.3.8l1.7.1c3.3.1 4.8 1.1 4.8 3.6v.1c0 2.9-2 4.1-5.9 4.1z"/></g></svg>