<svg width="17" height="15" viewBox="0 0 17 15" fill="none" xmlns="http://www.w3.org/2000/svg">
<path fill-rule="evenodd" clip-rule="evenodd" d="M3.05785 1.00015C2.52479 0.994145 2.01033 1.17414 1.60744 1.50414C1.22314 1.81614 1 2.27813 1 2.75812V9.04605C1 9.53204 1.22314 9.98804 1.60744 10.3C2.01033 10.63 2.52479 10.81 3.05785 10.804H13.9421C14.4752 10.81 14.9897 10.63 15.3926 10.3C15.7707 9.98804 15.9938 9.53204 16 9.04605V2.75812C16 2.27813 15.7769 1.81614 15.3926 1.50414C14.9835 1.17414 14.469 0.994145 13.9421 1.00015H3.05785ZM13.9421 9.77804H3.05785C2.61157 9.80804 2.20868 9.48404 2.17769 9.05205V2.75812C2.21488 2.32613 2.61157 1.99613 3.05785 2.03213H13.9421C14.3946 2.00213 14.7913 2.32613 14.8223 2.75812V9.04605C14.7851 9.47804 14.3884 9.80804 13.9421 9.77204V9.77804ZM4.70661 14C4.41529 14 4.17355 13.772 4.17355 13.484C4.17355 13.196 4.41529 12.968 4.70661 12.968H12.2624C12.5537 12.968 12.7955 13.196 12.7955 13.484C12.7955 13.772 12.5537 14 12.2624 14H4.70661Z" fill="white" stroke="white" stroke-width="0.3"/>
<path d="M7.37671 3.85252L7.39262 3.86313L7.44381 3.85947C7.47394 3.85732 7.52215 3.86863 7.57497 3.89212L10.5699 5.68911L10.5699 5.68911L10.5707 5.68953C10.6499 5.73648 10.696 5.82739 10.6894 5.92981L10.6891 5.92979V5.93947C10.6891 6.0201 10.6418 6.10765 10.5617 6.1623L7.56766 7.95675L7.56749 7.95648L7.55939 7.96209C7.52489 7.98597 7.47735 7.9994 7.4282 7.9994V7.99911L7.41885 7.99969C7.36777 8.00288 7.32474 7.99387 7.28498 7.9721C7.20002 7.91473 7.15 7.81976 7.15 7.72612V4.12329C7.15 4.02851 7.20588 3.92995 7.28936 3.87573C7.3135 3.86465 7.34414 3.85642 7.37671 3.85252Z" fill="white" stroke="white" stroke-width="0.3"/>
</svg>
