<svg width="15" height="15" viewBox="0 0 15 15" fill="none" xmlns="http://www.w3.org/2000/svg">
<rect width="15" height="15" rx="7.5" fill="#FAF9F9"/>
<path fill-rule="evenodd" clip-rule="evenodd" d="M7.5 15C3.35787 15 0 11.6422 0 7.5C0 3.35787 3.35787 0 7.5 0C11.6422 0 15 3.35787 15 7.5C15 11.6422 11.6422 15 7.5 15ZM10.6256 5.67039C10.9636 5.48551 11.0878 5.06158 10.9029 4.72352C10.718 4.38546 10.2941 4.26127 9.95609 4.44615C8.68026 5.14386 7.6253 6.4904 6.91598 7.57647C6.65386 7.97791 6.42991 8.35793 6.25074 8.67984C6.08361 8.5177 5.91808 8.37698 5.77003 8.25991C5.5763 8.10677 5.40197 7.98593 5.27486 7.9027L5.05506 7.76616C4.72036 7.57528 4.29428 7.69186 4.10339 8.0266C3.91254 8.36121 4.02902 8.78714 4.36355 8.97816L4.51026 9.06991C4.6099 9.13514 4.74952 9.23184 4.90463 9.35449C5.22386 9.60684 5.56832 9.93767 5.7851 10.3001C5.91814 10.5225 6.16354 10.6529 6.4223 10.6386C6.681 10.6243 6.91053 10.4676 7.01833 10.232L7.08691 10.0887C7.13414 9.99216 7.20488 9.85095 7.29698 9.67702C7.48151 9.32839 7.74984 8.85153 8.08423 8.33944C8.77033 7.28895 9.66879 6.1936 10.6256 5.67039Z" fill="#15C012"/>
</svg>
