<svg width="16" height="15" viewBox="0 0 16 15" fill="none" xmlns="http://www.w3.org/2000/svg">
<rect x="0.121216" width="15" height="15" rx="7.5" fill="white"/>
<path fill-rule="evenodd" clip-rule="evenodd" d="M7.62122 15C3.47908 15 0.121216 11.6422 0.121216 7.5C0.121216 3.35787 3.47908 0 7.62122 0C11.7634 0 15.1212 3.35787 15.1212 7.5C15.1212 11.6422 11.7634 15 7.62122 15ZM10.7468 5.67039C11.0848 5.48551 11.209 5.06158 11.0241 4.72352C10.8392 4.38546 10.4153 4.26127 10.0773 4.44615C8.80147 5.14386 7.74652 6.4904 7.03719 7.57647C6.77508 7.97791 6.55112 8.35793 6.37196 8.67984C6.20482 8.5177 6.03929 8.37698 5.89125 8.25991C5.69752 8.10677 5.52318 7.98593 5.39607 7.9027L5.17628 7.76616C4.84158 7.57528 4.41549 7.69186 4.2246 8.0266C4.03375 8.36121 4.15024 8.78714 4.48476 8.97816L4.63148 9.06991C4.73111 9.13514 4.87073 9.23184 5.02585 9.35449C5.34507 9.60684 5.68954 9.93767 5.90632 10.3001C6.03936 10.5225 6.28475 10.6529 6.54352 10.6386C6.80222 10.6243 7.03175 10.4676 7.13954 10.232L7.20812 10.0887C7.25535 9.99216 7.3261 9.85095 7.41819 9.67702C7.60273 9.32839 7.87105 8.85153 8.20545 8.33944C8.89154 7.28895 9.79001 6.1936 10.7468 5.67039Z" fill="url(#paint0_linear_1627_36059)"/>
<defs>
<linearGradient id="paint0_linear_1627_36059" x1="15.1212" y1="0" x2="0.121216" y2="15" gradientUnits="userSpaceOnUse">
<stop offset="0.4" stop-color="#FF9E0C"/>
<stop offset="0.4" stop-color="#0EC70A"/>
</linearGradient>
</defs>
</svg>
