<svg fill="none" height="11" viewBox="0 0 13 11" width="13" xmlns="http://www.w3.org/2000/svg">
  <g clip-rule="evenodd" fill="#888" fill-rule="evenodd">
    <path d="m5.32804 8.72754c-.57515 0-1.03898.46383-1.03898 1.03898 0 .57518.46383 1.03898 1.03898 1.03898h2.07796c.57516 0 1.03899-.4638 1.03899-1.03898 0-.57515-.46383-1.03898-1.03899-1.03898z"/>
    <path d="m12.6006 1.455c0-.575153-.4638-1.038984-1.039-1.038984h-10.38981c-.575151 0-1.038978.463831-1.038978 1.038984 0 .57515.463827 1.03898 1.038978 1.03898h10.38981c.5752 0 1.039-.46383 1.039-1.03898z"/>
    <path d="m3.24992 4.57178c-.57515 0-1.03898.46383-1.03898 1.03898s.46383 1.03898 1.03898 1.03898h6.23388c.5752 0 1.039-.46383 1.039-1.03898s-.4638-1.03898-1.039-1.03898z"/>
  </g>
</svg>