<svg width="1227" height="462" viewBox="0 0 1227 462" fill="none" xmlns="http://www.w3.org/2000/svg">
<g>
<path d="M1227 0H0V462H1227V0Z" />
<path d="M579.36 265.98H555.22V241.34H580.88C590.43 241.34 595.47 245.35 595.47 253.38C595.47 263.48 587.91 265.97 579.36 265.97M555.19 196.66H576.81C585.36 196.66 590.9 199.18 590.9 205.68C590.9 214.23 585.36 216.72 576.81 216.72H555.19V196.65V196.66ZM828.37 165.02L809.24 242.86H808.71L790.11 165.02H633.69V242.86C629.68 232.81 621.62 227.28 613.07 224.29C623.15 218.75 629.68 211.72 629.68 198.16C629.68 184.6 622.15 165 587.41 165H514.44V297.56H589.9C609.03 297.56 627.13 288.54 633.66 270.96V297.56H674.41V246.85H711.64V216.23H674.44V196.16H731.79V297.11H770.52V212.74H771.05L794.19 297.58H824.86L848 212.74H848.53V297.58H887.26V165.02H828.38H828.37Z" fill="white"/>
<path d="M352.8 277.17C360.212 277.17 366.22 270.477 366.22 262.22C366.22 253.963 360.212 247.27 352.8 247.27C345.388 247.27 339.38 253.963 339.38 262.22C339.38 270.477 345.388 277.17 352.8 277.17Z" fill="white"/>
<path d="M103 126V335.88H1124.8V126H103ZM316.24 167C327.95 167 337.18 171.27 343.07 178.96L330.34 190.33C326.84 185.89 322.65 183.32 317.27 183.32C308.9 183.32 303.26 189.13 303.26 198.27C303.26 207.41 308.9 213.22 317.27 213.22C322.65 213.22 326.84 210.66 330.34 206.21L343.07 217.58C337.17 225.27 327.94 229.54 316.24 229.54C297.01 229.54 282.91 216.64 282.91 198.26C282.91 179.88 297.01 166.98 316.24 166.98V167ZM222.58 184.01H205.06V218.14C201.41 220.77 198.8 224.19 197.46 228.19H184.9V184.01H167.38V168.37H222.58V184.01ZM227.79 212.22V168.37H276.41V183.58H247.61V190.59H272.9V205.12H247.61V212.98H277.52V228.19H253.41C250.93 218.61 241.31 212.6 227.78 212.22H227.79ZM293.12 277.18C298.5 277.18 302.69 274.62 306.19 270.17L318.92 281.54C313.02 289.23 303.79 293.5 292.09 293.5C272.86 293.5 258.76 280.6 258.76 262.22C258.76 243.84 272.86 230.94 292.09 230.94C303.8 230.94 313.03 235.21 318.92 242.9L306.19 254.27C302.69 249.83 298.5 247.26 293.12 247.26C284.75 247.26 279.11 253.07 279.11 262.21C279.11 271.35 284.75 277.16 293.12 277.16V277.18ZM352.8 293.5C333.32 293.5 319.04 280.34 319.04 262.22C319.04 244.1 333.31 230.94 352.8 230.94C372.29 230.94 386.56 244.1 386.56 262.22C386.56 280.34 372.29 293.5 352.8 293.5ZM407.84 228.19H387.67V206.14H369.04V228.19H348.87V168.37H369.04V189.56H387.67V168.37H407.84V228.19ZM1115.76 329.22H482.71V133.56H1115.77V329.21L1115.76 329.22Z" fill="white"/>
<path d="M261.99 273.59L269.2 279.71L255.99 294.67L247.91 287.68C240.59 292.38 231.97 295 222.36 295C204.01 295 190.47 285.61 190.47 272.83C190.47 263.22 195.17 256.45 205.32 250.77C200.84 245.96 198.77 241.16 198.77 236.14C198.77 223.91 209.69 215.5 226.29 215.5C241.47 215.5 251.62 223.03 251.62 234.83C251.62 242.58 247.36 248.48 238.41 253.5L246.49 260.38C247.8 257.43 248.78 254.05 249.44 250.44L269.21 256.34C267.79 262.67 265.39 268.46 262 273.59H261.99ZM232.83 274.79L218.85 262.78C215.79 264.96 214.59 267.26 214.59 270.1C214.59 273.7 218.08 276.65 224.2 276.65C227.15 276.65 230.1 275.99 232.83 274.79ZM221.15 235.8C221.15 237.66 221.91 239.08 224.97 241.92C229.45 239.52 230.98 237.44 230.98 235.37C230.98 233.08 229.45 231.44 226.39 231.44C223 231.44 221.15 233.3 221.15 235.81V235.8Z" fill="#FF077E"/>
<path d="M917.71 163.04H952.69V297.33H917.71V163.04Z" fill="#FF077E"/>
<path d="M1042.98 163.04H1007.44L957.22 297.33H993.14L1024.93 200.28H1025.3L1040.16 247.3H1023.83L1016.7 273.26H1048.44L1056.71 297.33H1093.2L1042.98 163.04Z" fill="#FF077E"/>
</g>
</svg>