<?xml version="1.0" encoding="utf-8"?>
<!-- Generator: Adobe Illustrator 26.0.1, SVG Export Plug-In . SVG Version: 6.00 Build 0)  -->
<svg version="1.1" id="Calque_1" xmlns="http://www.w3.org/2000/svg" xmlns:xlink="http://www.w3.org/1999/xlink" x="0px" y="0px"
	 viewBox="0 0 560 560" style="enable-background:new 0 0 560 560;" xml:space="preserve">
<g>
	<path fill="white" d="M466.7,0H93.3c-24.8,0-48.5,9.8-66,27.3S0,68.6,0,93.3v373.3c0,24.8,9.8,48.5,27.3,66c17.5,17.5,41.2,27.3,66,27.3h373.3
		c24.8,0,48.5-9.8,66-27.3s27.3-41.2,27.3-66V93.3c0-24.8-9.8-48.5-27.3-66S491.4,0,466.7,0L466.7,0z M513.3,466.7L513.3,466.7
		c0,12.4-4.9,24.2-13.7,33c-8.8,8.8-20.6,13.7-33,13.7H93.3c-12.4,0-24.2-4.9-33-13.7c-8.8-8.8-13.7-20.6-13.7-33V93.3
		c0-12.4,4.9-24.2,13.7-33c8.8-8.8,20.6-13.7,33-13.7h373.3c12.4,0,24.2,4.9,33,13.7c8.8,8.7,13.7,20.6,13.7,33L513.3,466.7z"/>
	<path fill="white" d="M280,140c-37.1,0-72.7,14.8-99,41c-26.3,26.3-41,61.9-41,99s14.8,72.7,41,99c26.3,26.3,61.9,41,99,41s72.7-14.8,99-41
		c26.3-26.3,41-61.9,41-99s-14.8-72.7-41-99C352.7,154.8,317.1,140,280,140z M280,373.3c-24.8,0-48.5-9.8-66-27.3
		s-27.3-41.2-27.3-66s9.8-48.5,27.3-66s41.2-27.3,66-27.3s48.5,9.8,66,27.3s27.3,41.2,27.3,66s-9.8,48.5-27.3,66
		S304.8,373.3,280,373.3z"/>
	<path fill="white" d="M466.7,128.3c0,19.3-15.7,35-35,35c-19.3,0-35-15.7-35-35c0-19.3,15.7-35,35-35C451,93.3,466.7,109,466.7,128.3"/>
</g>
</svg>
