<svg xmlns="http://www.w3.org/2000/svg" xmlns:xlink="http://www.w3.org/1999/xlink" width="400" height="400" viewBox="0 0 400 400">
  <defs>
    <linearGradient id="linear-gradient" x1="0.5" y1="1" x2="0.5" gradientUnits="objectBoundingBox">
      <stop offset="0" stop-color="#020459"/>
      <stop offset="1" stop-color="#073bf5"/>
    </linearGradient>
    <clipPath id="clip-Pastille-marseille">
      <rect width="400" height="400"/>
    </clipPath>
  </defs>
  <g id="Pastille-marseille" clip-path="url(#clip-Pastille-marseille)">
    <rect id="Rectangle_35" data-name="Rectangle 35" width="400" height="400" rx="200" fill="url(#linear-gradient)"/>
    <g id="Groupe_31" data-name="Groupe 31" transform="translate(75.791 98.664)">
      <path id="Tracé_511" data-name="Tracé 511" d="M47.953,78.317h-15.8v-16.3H49.086c6.368,0,9.435,2.8,9.435,7.968,0,6.768-4.9,8.335-10.568,8.335M32.084,32.476h14.3c5.5,0,9.2,1.567,9.2,6,0,5.634-3.567,7.234-9.2,7.234h-14.3V32.476ZM212.244,11.64l-12.5,51.508h-.233l-12.5-51.508H83.792V63.114c-2.6-6.634-7.9-10.435-13.5-12.335,6.5-3.534,10.8-8.335,10.8-17.169,0-8.968-4.9-21.937-27.971-21.937H5.18V99.186H54.854c12.5,0,24.67-6.034,28.938-17.569V99.186h26.971V65.815H135.4v-20.1H110.7V32.476H148.6v66.71h25.5V43.011h.267L189.54,99.153h20.1l15.2-56.142h.267V99.186h25.5V11.64Z" transform="translate(-4.58 -11.64)" fill="#fff"/>
      <path id="Tracé_512" data-name="Tracé 512" d="M12.568,85.256,20.9,42.75,34.471,73.488,48.54,42.75l7.468,42.506H49.873l-3.8-23.87-11.7,25.67L23,61.353l-4.267,23.9Zm71.344-9.6h-16.9l-4.4,9.6H56.174L75.744,43.25,94.613,85.256H88.079Zm-2.434-5.6L75.61,56.619,69.476,70.054Zm26.937-1.634L120.65,85.256h-7.3l-11.3-16.169h-1.067V85.256H95.013V45.75h7c5.234,0,9,.967,11.3,2.934a10.819,10.819,0,0,1,3.834,8.668,11.327,11.327,0,0,1-2.4,7.234A10.867,10.867,0,0,1,108.415,68.42Zm-7.434-4.534h1.9c5.634,0,8.468-2.167,8.468-6.468,0-4.034-2.734-6.068-8.235-6.068h-2.134ZM142.72,51.618l-4.834,2.867a8.068,8.068,0,0,0-2.6-3.067,6.866,6.866,0,0,0-7.434.567,4.324,4.324,0,0,0-1.634,3.467c0,1.934,1.434,3.467,4.3,4.667l3.934,1.6a16.775,16.775,0,0,1,7.034,4.734,10.625,10.625,0,0,1,2.234,6.868,12.009,12.009,0,0,1-3.634,9,12.442,12.442,0,0,1-9.1,3.6,12.132,12.132,0,0,1-8.5-3.034,14.192,14.192,0,0,1-4.134-8.568l6.034-1.334a10.192,10.192,0,0,0,1.434,4.8,6.8,6.8,0,0,0,10,.7,6.433,6.433,0,0,0,1.834-4.734,6.037,6.037,0,0,0-.333-2.1,4.936,4.936,0,0,0-1-1.767,8.036,8.036,0,0,0-1.767-1.5,15.307,15.307,0,0,0-2.567-1.334l-3.8-1.6c-5.4-2.3-8.1-5.634-8.1-10.035a9.571,9.571,0,0,1,3.4-7.468,12.377,12.377,0,0,1,8.468-3.034C136.586,44.984,140.153,47.184,142.72,51.618Zm25.3-.267H152.188v9.5h15.4v5.6h-15.4v13.2h15.836v5.6h-21.8V45.75h21.8Zm9.035-5.6V85.256h-5.968V45.75Zm10.7,0V79.689H199.4v5.6h-17.6V45.75Zm19.57,0V79.689h11.635v5.6h-17.6V45.75Zm35.405,5.6H226.9v9.5h15.4v5.6H226.9v13.2h15.836v5.6h-21.8V45.75h21.8ZM10.968,122.462v16.069H5V98.958h6.768a30.227,30.227,0,0,1,7.5.7,10.253,10.253,0,0,1,4.5,2.6,11.308,11.308,0,0,1,3.4,8.4,10.757,10.757,0,0,1-3.634,8.6c-2.434,2.134-5.7,3.167-9.8,3.167H10.968Zm0-5.534H13.2c5.467,0,8.235-2.1,8.235-6.334,0-4.067-2.834-6.134-8.468-6.134h-2Zm32.071,4.734L55.274,138.5h-7.3l-11.3-16.169H35.6V138.5H29.637V98.958h7c5.234,0,9,.967,11.3,2.934a10.819,10.819,0,0,1,3.834,8.668,11.327,11.327,0,0,1-2.4,7.234A10.748,10.748,0,0,1,43.039,121.662ZM35.6,117.128h1.9c5.634,0,8.468-2.167,8.468-6.468,0-4.034-2.734-6.068-8.235-6.068H35.6Zm19.069,1.434a19.3,19.3,0,0,1,6.134-14.335,20.111,20.111,0,0,1,14.635-6,20.66,20.66,0,0,1,20.57,20.536,19.471,19.471,0,0,1-6.1,14.469,20.862,20.862,0,0,1-28.5.667C56.908,130.03,54.674,124.9,54.674,118.561Zm6.034.067a14.642,14.642,0,0,0,25,10.7,15.346,15.346,0,0,0,.033-21.2,13.959,13.959,0,0,0-10.4-4.3,14.138,14.138,0,0,0-10.435,4.3A14.354,14.354,0,0,0,60.708,118.628Zm39.372-19.67,10.935,27.4,11.1-27.4h6.534l-17.736,42.506L93.58,98.958Zm51.608,5.634H135.853v9.5h15.4v5.6h-15.4v13.2h15.836v5.6h-21.8V98.958h21.8Zm4.167,33.9V96.291l28.838,30.171V98.992h5.968v41.94L161.823,110.86v27.671h-5.968Zm70.177-37.406v7.068a16.414,16.414,0,0,0-10.7-4.334,13.655,13.655,0,0,0-10.268,4.367,14.771,14.771,0,0,0-4.2,10.635,14.462,14.462,0,0,0,4.2,10.5,13.938,13.938,0,0,0,10.3,4.267,12.279,12.279,0,0,0,5.334-1.033,14.59,14.59,0,0,0,2.534-1.367A26.416,26.416,0,0,0,226,129.1v7.2a21.49,21.49,0,0,1-10.768,2.9,19.852,19.852,0,0,1-14.469-5.9,19.633,19.633,0,0,1-5.968-14.4,20.269,20.269,0,0,1,5-13.469,19.872,19.872,0,0,1,15.9-7.234A20.128,20.128,0,0,1,226.033,101.092Zm25.67,3.5H235.867v9.5h15.4v5.6h-15.4v13.2H251.7v5.6H229.9V98.958h21.8Z" transform="translate(-5 60.965)" fill="#ed8c23"/>
    </g>
  </g>
</svg>
