<svg xmlns="http://www.w3.org/2000/svg" xmlns:xlink="http://www.w3.org/1999/xlink" width="400" height="400" viewBox="0 0 400 400">
  <defs>
    <linearGradient id="linear-gradient" x1="0.5" y1="1" x2="0.5" gradientUnits="objectBoundingBox">
      <stop offset="0" stop-color="#020459"/>
      <stop offset="1" stop-color="#073bf5"/>
    </linearGradient>
    <clipPath id="clip-Pastille-nice">
      <rect width="400" height="400"/>
    </clipPath>
  </defs>
  <g id="Pastille-nice" clip-path="url(#clip-Pastille-nice)">
    <rect id="Rectangle_35" data-name="Rectangle 35" width="400" height="400" rx="200" fill="url(#linear-gradient)"/>
    <g id="Groupe_30" data-name="Groupe 30" transform="translate(76.746 96.892)">
      <path id="Tracé_509" data-name="Tracé 509" d="M48.006,78.243H32.1V61.874h17c6.4,0,9.5,2.834,9.5,8,0,6.8-4.934,8.368-10.6,8.368M32.037,32.17H46.406c5.534,0,9.235,1.6,9.235,6.034,0,5.668-3.567,7.268-9.235,7.268H32.037V32.17ZM213.131,11.233,200.562,62.974h-.233L187.76,11.233H84.012V62.941c-2.634-6.668-7.935-10.468-13.569-12.4,6.534-3.567,10.868-8.368,10.868-17.269,0-9-4.934-22.07-28.1-22.07H5V99.213H54.907c12.569,0,24.8-6.068,29.1-17.669V99.213h27.1V65.675h24.77v-20.2H111.049V32.17h38.139V99.213h25.637V42.771h.267l15.269,56.442h20.2l15.269-56.442h.267V99.213h25.6V11.233Z" transform="translate(-5 -11.2)" fill="#fff"/>
      <path id="Tracé_510" data-name="Tracé 510" d="M56.491,95.571V43.33L92.163,80.636V46.664h7.368V98.538L63.859,61.333V95.571ZM117.3,46.664V95.571h-7.368V46.664ZM163.907,49.3v8.735c-4.267-3.567-8.668-5.367-13.235-5.367a16.857,16.857,0,0,0-12.7,5.4,18.239,18.239,0,0,0-5.2,13.169,17.724,17.724,0,0,0,5.2,12.969A17.137,17.137,0,0,0,150.7,89.5a15.911,15.911,0,0,0,6.634-1.267,22.94,22.94,0,0,0,3.167-1.7,34.55,34.55,0,0,0,3.434-2.6v8.9a26.553,26.553,0,0,1-13.3,3.567,24.611,24.611,0,0,1-17.9-7.3,24.187,24.187,0,0,1-7.368-17.8,25.246,25.246,0,0,1,6.168-16.669,24.634,24.634,0,0,1,19.67-8.968A25.2,25.2,0,0,1,163.907,49.3Zm34.972,4.3h-19.6V65.333h19.036v6.934H179.276V88.6h19.6v6.968H171.908V46.664h26.971ZM31.52,109.74v5.9a13.834,13.834,0,0,0-8.935-3.6,11.394,11.394,0,0,0-8.568,3.667,12.381,12.381,0,0,0-3.5,8.9,12.072,12.072,0,0,0,3.5,8.768,11.623,11.623,0,0,0,8.6,3.567,10.566,10.566,0,0,0,4.467-.867,12.372,12.372,0,0,0,2.134-1.167,28.77,28.77,0,0,0,2.334-1.767v6a18,18,0,0,1-8.968,2.4,16.532,16.532,0,0,1-12.068-4.934,16.337,16.337,0,0,1-4.967-12,16.944,16.944,0,0,1,4.167-11.235,16.581,16.581,0,0,1,13.269-6.034A16.265,16.265,0,0,1,31.52,109.74Zm.7,14.569a16.19,16.19,0,0,1,5.1-11.968,16.838,16.838,0,0,1,12.235-5,17.245,17.245,0,0,1,17.169,17.169,16.2,16.2,0,0,1-5.1,12.068,17.432,17.432,0,0,1-23.8.533A16.154,16.154,0,0,1,32.221,124.309Zm5.034.067a12.036,12.036,0,0,0,3.667,9,12.152,12.152,0,0,0,17.2-.067,12.2,12.2,0,0,0,3.567-8.835,11.961,11.961,0,0,0-3.534-8.835,11.623,11.623,0,0,0-8.668-3.6,12.181,12.181,0,0,0-12.235,12.335Zm4.834-21.937,7.5-6.868,7.6,6.868-3.3,2.534-4.334-4.067-4.267,4.067Zm34.872,10.2v28.338H71.993V112.64h-7.6v-4.667H84.528v4.667Zm27.271,0H91v7.934h12.835v4.667H91v11.035h13.235v4.667h-18.2v-33h18.2Zm12.168,28.3v-33h6.934a25.95,25.95,0,0,1,7.868.967,14.865,14.865,0,0,1,5.634,3.267,15.8,15.8,0,0,1,5.1,12.235,15.579,15.579,0,0,1-5.334,12.3,15.131,15.131,0,0,1-5.6,3.267,25.843,25.843,0,0,1-7.768.934H116.4Zm4.967-4.667H123.6a18.725,18.725,0,0,0,5.567-.7,11.806,11.806,0,0,0,4.034-2.367,11.237,11.237,0,0,0,3.667-8.735,11.37,11.37,0,0,0-3.634-8.8c-2.167-2-5.4-3-9.635-3h-2.234Zm26.471-29.771,4.267,1.667L146,120.408l-3.234-1.334Zm19,26.437H152.705l-3.667,8H143.67l16.336-35.072,15.769,35.072h-5.467Zm-2.034-4.7-4.9-11.235-5.134,11.235Zm16.836,8.035h15.836v4.667H173.441l16.2-28.338H176.108V107.94h21.737Zm22.7-28.338v19.87c0,2.834.467,4.9,1.4,6.234a7.457,7.457,0,0,0,11.7,0c.933-1.267,1.4-3.334,1.4-6.234V107.94h4.967v21.237a11.935,11.935,0,0,1-3.234,8.6,12.558,12.558,0,0,1-17.936,0,11.881,11.881,0,0,1-3.234-8.6V107.94h4.934Zm34.605,18.936,10.2,14.069h-6.1l-9.435-13.5h-.867v13.5h-5v-33h5.834c4.367,0,7.5.833,9.435,2.467a9.06,9.06,0,0,1,3.2,7.234,9.465,9.465,0,0,1-2,6.034A8.758,8.758,0,0,1,238.951,126.876Zm-6.2-3.767h1.567c4.7,0,7.068-1.8,7.068-5.4,0-3.367-2.3-5.067-6.868-5.067H232.75Z" transform="translate(-3.716 63.786)" fill="#ed8c23"/>
    </g>
  </g>
</svg>
