<svg xmlns="http://www.w3.org/2000/svg" xmlns:xlink="http://www.w3.org/1999/xlink" width="400" height="400" viewBox="0 0 400 400">
  <defs>
    <linearGradient id="linear-gradient" x1="0.5" y1="1" x2="0.5" gradientUnits="objectBoundingBox">
      <stop offset="0" stop-color="#020459"/>
      <stop offset="1" stop-color="#073bf5"/>
    </linearGradient>
    <clipPath id="clip-Pastille-var">
      <rect width="400" height="400"/>
    </clipPath>
  </defs>
  <g id="Pastille-var" clip-path="url(#clip-Pastille-var)">
    <path id="Tracé_445" data-name="Tracé 445" d="M0,0H399.706V400H0Z" transform="translate(0.294)" fill="none"/>
    <rect id="Rectangle_35" data-name="Rectangle 35" width="399.955" height="399.015" rx="199.508" transform="translate(0 0.605)" fill="url(#linear-gradient)"/>
    <g id="Groupe_32" data-name="Groupe 32" transform="translate(76.81 96.934)">
      <path id="Tracé_507" data-name="Tracé 507" d="M48.168,77.759h-15.8v-16.3h16.9c6.367,0,9.434,2.8,9.434,7.967.033,6.767-4.9,8.334-10.534,8.334M32.3,31.924H46.6c5.5,0,9.2,1.567,9.2,6,0,5.634-3.567,7.234-9.2,7.234H32.3ZM212.374,11.09l-12.5,51.468h-.233L187.14,11.09H83.969V62.525c-2.6-6.634-7.9-10.434-13.5-12.334,6.5-3.533,10.8-8.334,10.8-17.167,0-8.934-4.9-21.934-27.934-21.934H5.4v87.5H55.035c12.5,0,24.668-6.034,28.934-17.567V98.593H110.9V65.259h24.634v-20.1h-24.7V31.924h37.935V98.593h25.5V42.458h.267l15.167,56.135h20.1l15.2-56.135h.267V98.593h25.468V11.09Z" transform="translate(-4.067 -11.09)" fill="#fff"/>
      <path id="Tracé_508" data-name="Tracé 508" d="M23.5,53.274V95.009H16.167V53.274H5v-6.9H34.668v6.9Zm9.234,17.167a23.756,23.756,0,0,1,7.534-17.634,24.818,24.818,0,0,1,18-7.367A24.3,24.3,0,0,1,76.1,52.874a24.351,24.351,0,0,1,7.467,17.867,23.9,23.9,0,0,1-7.5,17.8,25.66,25.66,0,0,1-35.068.8C35.468,84.542,32.734,78.241,32.734,70.441Zm7.4.1a17.636,17.636,0,0,0,5.4,13.267,17.9,17.9,0,0,0,25.334-.1,17.907,17.907,0,0,0,5.267-13.034,17.768,17.768,0,0,0-5.2-13.034,17.126,17.126,0,0,0-12.8-5.3,17.23,17.23,0,0,0-12.8,5.3A17.57,17.57,0,0,0,40.135,70.541ZM95.6,46.373v29.3c0,4.167.7,7.234,2.033,9.167a10.939,10.939,0,0,0,17.234,0c1.367-1.867,2.033-4.934,2.033-9.167v-29.3h7.334v31.3a17.515,17.515,0,0,1-4.8,12.667,18.552,18.552,0,0,1-26.434,0,17.515,17.515,0,0,1-4.8-12.667v-31.3Zm43.135,0V88.108h14.3v6.9H131.4V46.373Zm12.334,24.068a23.756,23.756,0,0,1,7.534-17.634,24.817,24.817,0,0,1,18-7.367,25.438,25.438,0,0,1,25.3,25.3,23.9,23.9,0,0,1-7.5,17.8,25.66,25.66,0,0,1-35.068.8Q151.088,82.141,151.072,70.441Zm7.4.1a17.637,17.637,0,0,0,5.4,13.267,17.9,17.9,0,0,0,25.334-.1,17.907,17.907,0,0,0,5.267-13.034,17.768,17.768,0,0,0-5.2-13.034,18.107,18.107,0,0,0-25.6,0A17.57,17.57,0,0,0,158.472,70.541Zm48.135,24.434V43.04l35.468,37.1V46.373h7.334V97.942l-35.468-37V94.975ZM92.77,107.309l9.067,22.734,9.2-22.734h5.434l-14.734,35.3-14.4-35.3ZM137.1,132.176H123.037l-3.667,7.967h-5.334l16.234-34.868,15.667,34.868H140.5Zm-2.033-4.667L130.2,116.343l-5.1,11.167Zm26.1-1.367,10.167,14h-6.067l-9.367-13.434h-.9v13.434h-4.967V107.309h5.8c4.334,0,7.467.8,9.4,2.433a8.945,8.945,0,0,1,3.2,7.2,9.307,9.307,0,0,1-2,6A8.954,8.954,0,0,1,161.172,126.143Zm-6.167-3.767h1.567c4.7,0,7.034-1.8,7.034-5.367,0-3.367-2.267-5.033-6.834-5.033h-1.767Z" transform="translate(-5 63.464)" fill="#ed8c23"/>
    </g>
  </g>
</svg>
