<svg xmlns="http://www.w3.org/2000/svg" xmlns:xlink="http://www.w3.org/1999/xlink" width="400" height="400" viewBox="0 0 400 400">
  <defs>
    <linearGradient id="linear-gradient" x1="0.5" y1="1" x2="0.5" gradientUnits="objectBoundingBox">
      <stop offset="0" stop-color="#020459"/>
      <stop offset="1" stop-color="#073bf5"/>
    </linearGradient>
    <clipPath id="clip-Pastille-paris">
      <rect width="400" height="400"/>
    </clipPath>
  </defs>
  <g id="Pastille-paris" clip-path="url(#clip-Pastille-paris)">
    <path id="Tracé_445" data-name="Tracé 445" d="M0,0H399.55V399.639H0Z" fill="none"/>
    <rect id="Rectangle_35" data-name="Rectangle 35" width="399.799" height="399.889" rx="199.9" transform="translate(0.201 0.111)" fill="url(#linear-gradient)"/>
    <g id="BFM-Paris-IDF" transform="translate(76.59 91.085)">
      <g id="Groupe_9" data-name="Groupe 9">
        <g id="Groupe_8" data-name="Groupe 8">
          <path id="Tracé_486" data-name="Tracé 486" d="M88.848,168.478H73.1V152.641H89.827c6.565,0,9.5,2.583,9.5,7.749-.318,6.81-4.924,8.088-10.483,8.088M72.779,123.89H87.207c5.586,0,9.186,1.618,9.186,5.818,0,5.505-3.6,7.123-9.186,7.123H72.779ZM251.815,103.2l-12.469,50.433h0L226.877,103.2H124.242v50.433c-2.621-6.47-7.862-10.332-13.448-12.289,6.565-3.548,10.827-8.088,10.827-16.8S116.7,103.2,93.745,103.2H46.2v85.655H95.731c12.469,0,24.593-5.818,28.855-17.141v17.141h26.9V156.529h24.593V136.8H151.483V123.864h37.724v65.278h25.255v-54.92h.318l15.09,54.946h20.013l15.09-54.946h-.318v54.946h25.255V103.2Z" transform="translate(-46.2 -103.2)" fill="#fff"/>
        </g>
        <path id="Tracé_487" data-name="Tracé 487" d="M183.088,529.426v21.968H175V497.1h9.393a40.821,40.821,0,0,1,10.332.965,14.608,14.608,0,0,1,6.131,3.548,15.357,15.357,0,0,1,4.853,11.636c0,5.166-1.618,9.053-5.166,11.949s-7.749,4.514-13.567,4.514l-3.887-.287Zm0-7.436h2.9c7.436,0,11.323-2.9,11.323-8.714s-3.887-8.4-11.636-8.4h-2.583Z" transform="translate(-141.396 -391.516)" fill="#f08700"/>
        <path id="Tracé_488" data-name="Tracé 488" d="M307.657,537.279H284.385l-6.47,13.254H269.2L296.021,495.9l26.821,54.633h-8.714Zm-3.548-7.436-8.088-16.176-7.749,16.176Z" transform="translate(-209.937 -390.632)" fill="#f08700"/>
        <path id="Tracé_489" data-name="Tracé 489" d="M507.733,528.461l16.8,23.273H514.516l-15.524-22.307h-1.3v22.307H489.6V497.1h9.706c7.123,0,12.289,1.3,15.524,4.2,3.548,2.9,5.166,7.123,5.166,11.949a15.448,15.448,0,0,1-3.235,10.019A17.8,17.8,0,0,1,507.733,528.461Zm-10.019-6.47H500.3q11.623,0,11.636-8.714c0-5.505-3.888-8.4-11.323-8.4h-2.9Z" transform="translate(-371.958 -391.51)" fill="#f08700"/>
        <path id="Tracé_490" data-name="Tracé 490" d="M655.088,497.1v54.294H647V497.1Z" transform="translate(-487.9 -391.516)" fill="#f08700"/>
        <path id="Tracé_491" data-name="Tracé 491" d="M738.018,502.6l-6.47,3.888c-1.3-2.27-2.27-3.548-3.548-4.2a8.474,8.474,0,0,0-4.514-.965,9.089,9.089,0,0,0-5.818,1.931,5.819,5.819,0,0,0-2.27,4.853c0,2.583,1.931,4.853,5.818,6.47l5.505,2.27a22.376,22.376,0,0,1,9.706,6.47,15.434,15.434,0,0,1,2.9,9.367,16.6,16.6,0,0,1-5.166,12.6q-4.853,4.853-12.6,4.853c-4.853,0-8.714-1.3-11.636-4.2-2.9-2.9-4.853-6.784-5.818-11.95l8.4-1.931c.313,3.235.965,5.505,1.931,6.784a8.743,8.743,0,0,0,7.436,3.548c2.583,0,4.853-.652,6.47-2.583a9.038,9.038,0,0,0,2.583-6.471,9.144,9.144,0,0,0-.313-2.9,5.157,5.157,0,0,0-1.3-2.27,13.283,13.283,0,0,0-2.27-1.931,31.478,31.478,0,0,0-3.548-1.931l-5.166-2.27C710.884,518.8,707,514.288,707,508.13a13.121,13.121,0,0,1,4.853-10.332,16.744,16.744,0,0,1,11.636-4.2C729.617,493.546,734.469,496.468,738.018,502.6Z" transform="translate(-528.93 -388.913)" fill="#f08700"/>
        <path id="Tracé_492" data-name="Tracé 492" d="M66,767.131,72.784,761l7.123,6.131-2.9,2.27-3.887-3.548L69.235,769.4Zm9.053,4.853V802.04H70.54V771.984Z" transform="translate(-60.834 -585.024)" fill="#f08700"/>
        <path id="Tracé_493" data-name="Tracé 493" d="M117.714,803.1v25.856H125.8v4.2H113.2V803.1Z" transform="translate(-95.719 -616.14)" fill="#f08700"/>
        <path id="Tracé_494" data-name="Tracé 494" d="M186.515,806.414H174.566v7.123h11.61v4.2H174.54v10.019h11.949v4.2H170V801.9h16.489v4.514Z" transform="translate(-137.7 -615.253)" fill="#f08700"/>
        <path id="Tracé_495" data-name="Tracé 495" d="M241.9,873.7h6.783v3.887H241.9Z" transform="translate(-190.08 -668.32)" fill="#f08700"/>
        <path id="Tracé_496" data-name="Tracé 496" d="M277.9,833.156V803.1h6.47a20.888,20.888,0,0,1,7.123.965,16.85,16.85,0,0,1,5.166,2.9c3.235,2.9,4.514,6.47,4.514,10.984a14.724,14.724,0,0,1-4.853,11.323,15.837,15.837,0,0,1-5.166,2.9c-1.618.652-3.888.652-7.123.652H277.9v.339Zm4.514-4.2h1.931c1.931,0,3.888,0,5.166-.652a5.99,5.99,0,0,0,3.548-2.27,9.992,9.992,0,0,0,3.235-7.749c0-3.235-.965-6.131-3.235-8.088-1.931-1.931-4.853-2.583-8.714-2.583h-1.931Z" transform="translate(-216.48 -616.14)" fill="#f08700"/>
        <path id="Tracé_497" data-name="Tracé 497" d="M389.689,806.414H377.74v7.123h11.636v4.2H377.74v10.019h11.949v4.2H373.2V801.9h16.489Z" transform="translate(-286.559 -615.253)" fill="#f08700"/>
        <path id="Tracé_498" data-name="Tracé 498" d="M443.9,873.7h6.784v3.887H443.9Z" transform="translate(-338.592 -668.32)" fill="#f08700"/>
        <path id="Tracé_499" data-name="Tracé 499" d="M494.019,806.414h-9.706v7.123h9.366v4.2h-9.366v14.219H479.8V801.9h14.219v4.514Z" transform="translate(-364.931 -615.253)" fill="#f08700"/>
        <path id="Tracé_500" data-name="Tracé 500" d="M554.219,820.241l9.367,12.941H558.08l-8.714-12.315h-.652v12.289H544.2V803.1h5.505c3.888,0,6.784.652,8.4,2.27a8.376,8.376,0,0,1,2.9,6.784,8.9,8.9,0,0,1-1.931,5.505A7.347,7.347,0,0,1,554.219,820.241Zm-5.818-3.235h1.3c4.2,0,6.471-1.618,6.471-4.853,0-2.9-1.931-4.514-6.471-4.514h-1.617v9.366Z" transform="translate(-412.224 -616.14)" fill="#f08700"/>
        <path id="Tracé_501" data-name="Tracé 501" d="M717.6,833.156V803.1l19.072,19.385V803.1h4.514v30.056L722.14,814.084v19.072Z" transform="translate(-539.619 -616.14)" fill="#f08700"/>
        <path id="Tracé_502" data-name="Tracé 502" d="M839.012,803.257v5.505a12.337,12.337,0,0,0-8.088-3.235,9.529,9.529,0,0,0-7.749,3.235,12.159,12.159,0,0,0-3.235,8.088,9.529,9.529,0,0,0,3.235,7.749,9.991,9.991,0,0,0,7.749,3.235,15.757,15.757,0,0,0,4.2-.652c.652-.313,1.3-.652,1.931-.965a7.669,7.669,0,0,0,1.931-1.618V830.1a17.355,17.355,0,0,1-8.088,1.931,14.714,14.714,0,0,1-10.984-4.514,15.4,15.4,0,0,1-4.514-10.984,15.784,15.784,0,0,1,3.887-10.332,15.567,15.567,0,0,1,11.95-5.505A17.056,17.056,0,0,1,839.012,803.257Z" transform="translate(-611.192 -614.366)" fill="#f08700"/>
        <path id="Tracé_503" data-name="Tracé 503" d="M931.089,806.414H919.14v7.123h11.636v4.2H919.14v10.019h11.949v4.2H914.6V801.9h16.489Z" transform="translate(-684.51 -615.253)" fill="#f08700"/>
      </g>
      <path id="Tracé_504" data-name="Tracé 504" d="M628.4,826.947H615.8l-3.548,7.1H607.4L621.932,804.3l14.532,29.743h-4.853Zm-1.931-4.2-4.514-8.714-3.888,8.714Z" transform="translate(-458.572 -617.027)" fill="#f08700"/>
    </g>
  </g>
</svg>
