<svg xmlns="http://www.w3.org/2000/svg" xmlns:xlink="http://www.w3.org/1999/xlink" width="400" height="400" viewBox="0 0 400 400">
  <defs>
    <linearGradient id="linear-gradient" x1="0.5" y1="1" x2="0.5" gradientUnits="objectBoundingBox">
      <stop offset="0" stop-color="#020459"/>
      <stop offset="1" stop-color="#073bf5"/>
    </linearGradient>
    <clipPath id="clip-Pastille-normandie">
      <rect width="400" height="400"/>
    </clipPath>
  </defs>
  <g id="Pastille-normandie" clip-path="url(#clip-Pastille-normandie)">
    <rect id="Rectangle_35" data-name="Rectangle 35" width="400" height="400" rx="200" fill="url(#linear-gradient)"/>
    <g id="Groupe_56" data-name="Groupe 56">
      <path id="Tracé_606" data-name="Tracé 606" d="M49.8,90.207H33.131V73.189H50.843c6.6,0,9.724,2.778,9.724,8.335.347,7.293-4.862,8.682-10.766,8.682M33.131,42.28H48.065c5.9,0,9.724,1.736,9.724,6.251,0,5.9-3.82,7.641-9.724,7.641H33.131V42.28ZM221.714,20.4l-12.85,54.178h-.347l-13.2-53.831H87.309V74.578c-2.778-6.946-8.335-10.766-14.239-12.85,6.946-3.82,11.461-8.682,11.461-18.059S79.322,20.747,55.358,20.747H5v91.686H57.095c13.2,0,25.7-6.251,30.215-18.407v18.407h28.131V77.357h25.7V56.172h-25.7V42.28h39.592v69.807h26.742V53.393h.347L198.1,112.086h21.185l15.976-58.693h.347v58.693H262V20.4Z" transform="translate(67 104.6)" fill="#fff"/>
      <g id="Groupe_55" data-name="Groupe 55" transform="translate(74.084 237.871)">
        <path id="Tracé_607" data-name="Tracé 607" d="M5.6,87.73V53L29.216,77.658V55.084h4.862V89.466L10.462,64.808V87.73Z" transform="translate(-5.6 -52.653)" fill="#ed9205"/>
        <path id="Tracé_608" data-name="Tracé 608" d="M48.688,70.418A16.617,16.617,0,0,1,31.67,87.435C21.946,87.435,15,80.142,15,70.418A16.617,16.617,0,0,1,32.018,53.4C41.742,53.4,48.688,61.041,48.688,70.418Zm-4.862,0c0-7.293-4.862-12.155-11.808-12.155S20.209,63.472,20.209,70.418s4.862,12.155,11.808,12.155S43.826,77.711,43.826,70.418Z" transform="translate(17.646 -51.664)" fill="#ed9205"/>
        <path id="Tracé_609" data-name="Tracé 609" d="M31.7,53.6c3.82,0,6.6.347,8.682,1.736a9.316,9.316,0,0,1,3.82,7.641,8.954,8.954,0,0,1-7.293,9.03L46.985,85.9h-5.9L31.7,72.7H30.662V86.246H25.8V53.6ZM30.662,68.534h1.389c1.389,0,6.946,0,6.946-5.209,0-4.515-4.168-4.862-6.946-4.862H30.315V68.534Z" transform="translate(44.354 -51.169)" fill="#ed9205"/>
        <path id="Tracé_610" data-name="Tracé 610" d="M32.3,87.977,39.246,52.9,50.707,78.253,62.168,52.9l5.9,35.077H62.862L59.389,68.528,50.012,89.714,40.635,68.528l-3.473,19.8H32.3Z" transform="translate(60.428 -52.9)" fill="#ed9205"/>
        <path id="Tracé_611" data-name="Tracé 611" d="M65.474,79.495H51.582l-3.473,7.988H42.9L59.223,53.1,74.5,87.482H69.295ZM63.391,74.98,58.528,63.866,53.666,74.98Z" transform="translate(86.642 -52.405)" fill="#ed9205"/>
        <path id="Tracé_612" data-name="Tracé 612" d="M52.4,87.73V53L76.016,77.658V55.084h4.862V89.466L57.262,64.808V87.73Z" transform="translate(110.135 -52.653)" fill="#ed9205"/>
        <path id="Tracé_613" data-name="Tracé 613" d="M68.8,53.6c4.515,0,8.335.347,12.155,3.126a16.651,16.651,0,0,1,6.251,13.2c0,5.557-2.084,10.072-6.6,13.2-3.82,2.778-7.293,3.126-11.808,3.126H62.2V53.6ZM67.062,81.384h2.084c2.431,0,5.9-.347,8.682-2.431a12.149,12.149,0,0,0,4.515-9.377A11.668,11.668,0,0,0,77.828,60.2c-2.778-1.736-6.251-1.736-8.682-1.736H67.062Z" transform="translate(134.37 -51.169)" fill="#ed9205"/>
        <path id="Tracé_614" data-name="Tracé 614" d="M75.362,53.6V86.246H70.5V53.6Z" transform="translate(154.896 -51.169)" fill="#ed9205"/>
        <path id="Tracé_615" data-name="Tracé 615" d="M91.459,58.462H78.609V66.8h12.5v4.515h-12.5V81.384h12.85v4.862H73.4V53.6H91.459Z" transform="translate(162.068 -51.169)" fill="#ed9205"/>
      </g>
    </g>
  </g>
</svg>
