<svg xmlns="http://www.w3.org/2000/svg" xmlns:xlink="http://www.w3.org/1999/xlink" width="400" height="400" viewBox="0 0 400 400">
  <defs>
    <linearGradient id="linear-gradient" x1="0.5" y1="1" x2="0.5" gradientUnits="objectBoundingBox">
      <stop offset="0" stop-color="#020459"/>
      <stop offset="1" stop-color="#073bf5"/>
    </linearGradient>
    <clipPath id="clip-Pastille-dici">
      <rect width="400" height="400"/>
    </clipPath>
  </defs>
  <g id="Pastille-dici" clip-path="url(#clip-Pastille-dici)">
    <rect id="Rectangle_35" data-name="Rectangle 35" width="400" height="400" rx="200" fill="url(#linear-gradient)"/>
    <g id="Groupe_195" data-name="Groupe 195" transform="translate(71.648 111.167)">
      <path id="Tracé_339" data-name="Tracé 339" d="M44.745,69.733H28.195V52.679H45.926c6.753,0,9.967,2.87,9.967,8.275,0,7.261-5.234,8.781-11.143,8.781M28.2,21.778H43.227c5.742,0,9.623,1.693,9.623,6.248,0,5.909-3.714,7.6-9.623,7.6H28.2V21.782ZM216.8,0,203.632,53.862h-.169L190.3,0H82.228V53.862a22.416,22.416,0,0,0-14.184-13c6.753-3.714,11.312-8.781,11.312-17.9C79.525,13.676,74.286,0,50.148,0H0V91.682H52c13,0,25.833-6.248,30.224-18.4v18.4h28.2V56.732h25.833v-21.1H110.425V21.782h39.682V91.515h26.675V32.925h.339l15.871,58.757h21.1l15.871-58.757h.339V91.682h26.677V0Z" transform="translate(0 0)" fill="#fff"/>
      <path id="Tracé_340" data-name="Tracé 340" d="M20,144.533V62.813H37.223a65.142,65.142,0,0,1,19.418,2.364,35.832,35.832,0,0,1,14.015,8.1q12.662,11.651,12.662,30.391c0,12.5-4.389,22.794-13.165,30.561a39.155,39.155,0,0,1-13.845,8.1,63.972,63.972,0,0,1-19.249,2.195H20Zm12.326-11.481H37.9a46.263,46.263,0,0,0,13.845-1.693,27.384,27.384,0,0,0,9.967-5.909,28.059,28.059,0,0,0,9.117-21.613A28.631,28.631,0,0,0,61.88,82.056c-5.4-5.065-13.339-7.429-23.976-7.429H32.326v58.421Z" transform="translate(13.769 43.222)" fill="#ed8c23"/>
      <path id="Tracé_341" data-name="Tracé 341" d="M77.026,62.8v81.889H64.7V62.8Z" transform="translate(44.544 43.235)" fill="#ed8c23"/>
      <path id="Tracé_342" data-name="Tracé 342" d="M143.906,67.948V82.469c-7.092-5.909-14.521-8.948-22.118-8.948a28.1,28.1,0,0,0-21.274,9.117A30.843,30.843,0,0,0,91.9,104.756a30.061,30.061,0,0,0,8.612,21.782,28.407,28.407,0,0,0,21.274,8.781,24.761,24.761,0,0,0,11.143-2.195,32.725,32.725,0,0,0,5.234-2.87,57.992,57.992,0,0,0,5.742-4.389v14.857a44.09,44.09,0,0,1-22.288,5.909A42.083,42.083,0,0,1,79.4,104.579,42.922,42.922,0,0,1,122.625,61.7,43.575,43.575,0,0,1,143.906,67.948Z" transform="translate(54.663 42.477)" fill="#ed8c23"/>
      <path id="Tracé_343" data-name="Tracé 343" d="M137.226,62.8v81.889H124.9V62.8Z" transform="translate(85.987 43.235)" fill="#ed8c23"/>
    </g>
  </g>
</svg>
