<svg xmlns="http://www.w3.org/2000/svg" xmlns:xlink="http://www.w3.org/1999/xlink" width="400" height="400" viewBox="0 0 400 400">
  <defs>
    <linearGradient id="linear-gradient" x1="0.5" y1="1" x2="0.5" gradientUnits="objectBoundingBox">
      <stop offset="0" stop-color="#020459"/>
      <stop offset="1" stop-color="#073bf5"/>
    </linearGradient>
    <clipPath id="clip-Pastille-littoral">
      <rect width="400" height="400"/>
    </clipPath>
  </defs>
  <g id="Pastille-littoral" clip-path="url(#clip-Pastille-littoral)">
    <rect id="Rectangle_35" data-name="Rectangle 35" width="400" height="400" rx="200" fill="url(#linear-gradient)"/>
    <g id="BFM_Grand_Littoral" data-name="BFM Grand Littoral" transform="translate(76.524 93.941)">
      <g id="Groupe_5" data-name="Groupe 5" transform="translate(0 0)">
        <path id="Tracé_454" data-name="Tracé 454" d="M53.056,81.32H37.292V65.108H54.238c6.305,0,9.458,2.768,9.458,7.908-.394,6.722-5.123,8.3-10.64,8.3M36.9,35.057H51.086c5.517,0,9.064,1.582,9.064,5.931,0,5.536-3.547,7.117-9.064,7.117H36.9ZM217.787,14.1,205.176,65.9h-.394L192.171,14.1H88.918V65.9a20.439,20.439,0,0,0-13.4-12.258c6.7-3.559,10.64-8.3,10.64-17.4S81.431,14.1,58.179,14.1H10.1v88.176H59.756c12.611,0,24.828-5.931,29.163-17.793v17.793h27.192V68.666h24.828V48.5H116.111V35.057h38.227v67.22h25.616V45.733h.394l14.581,56.544h20.1L230.4,45.733h.394v56.544h25.616V14.1Z" transform="translate(-10.1 -14.1)" fill="#fff"/>
      </g>
      <path id="Tracé_455" data-name="Tracé 455" d="M10.1,80.606V55.3h7.513V97.213h14.63v6.722H10.5C10.1,103.935,10.1,88.119,10.1,80.606Z" transform="translate(-10.1 106.903)" fill="#ed9205"/>
      <path id="Tracé_456" data-name="Tracé 456" d="M67.1,80.606V55.3h7.513V97.213h14.63v6.722H67.5C67.1,103.935,67.1,88.119,67.1,80.606Z" transform="translate(157.46 106.903)" fill="#ed9205"/>
      <path id="Tracé_457" data-name="Tracé 457" d="M67.1,80.606V55.3h7.513V97.213h14.63v6.722H67.5C67.1,103.935,67.1,88.119,67.1,80.606Z" transform="translate(157.46 106.903)" fill="#ed9205"/>
      <rect id="Rectangle_37" data-name="Rectangle 37" width="7.117" height="48.635" transform="translate(24.911 161.807)" fill="#ed9205"/>
      <path id="Tracé_458" data-name="Tracé 458" d="M18.9,55.2H48.556v7.117H37.484v41.913H30.367V62.317H18.9Z" transform="translate(15.896 106.607)" fill="#ed9205"/>
      <path id="Tracé_459" data-name="Tracé 459" d="M26.9,55.2H56.556v7.117H45.484v41.913H38.367V62.317H26.9Z" transform="translate(39.278 106.607)" fill="#ed9205"/>
      <path id="Tracé_460" data-name="Tracé 460" d="M59.006,55A25.306,25.306,0,1,0,84.312,80.306,25.484,25.484,0,0,0,59.006,55Zm0,43.495A18.189,18.189,0,1,1,77.195,80.306,18.14,18.14,0,0,1,59.006,98.495Z" transform="translate(59.227 106.016)" fill="#ed9205"/>
      <path id="Tracé_461" data-name="Tracé 461" d="M115.31,106l-5.14-11.467H89.609L84.468,106H69.838L56,86.233H54.813V106H47.3V57.763H58.371a39.428,39.428,0,0,1,6.327.791,11.976,11.976,0,0,1,8.7,6.327,14.164,14.164,0,0,1,1.582,4.349c0,1.186.4,1.977.4,3.163,0,3.163-1.186,5.536-2.768,8.3a10.663,10.663,0,0,1-5.931,4.35c-.4,0-1.186.4-1.582.4.791,1.582,13.049,17.793,13.049,17.793L101.471,54.6,124.8,106ZM54.813,72v7.513h.4a24.333,24.333,0,0,0,7.513-.791,8.61,8.61,0,0,0,3.559-2.768c1.186-1.977.791-3.559.791-5.536a4.881,4.881,0,0,0-1.582-3.163c-1.582-1.977-3.954-2.372-6.327-2.768H54.417A47.854,47.854,0,0,1,54.813,72Zm45.077-1.186L92.377,87.419h14.63Z" transform="translate(98.969 104.835)" fill="#ed9205"/>
      <path id="Tracé_462" data-name="Tracé 462" d="M80.094,40.1l21.352,47.449.4-47.449,34.8,35.982V43.263h7.117V93.876L108.959,57.5v33.61H95.12l-5.14-11.862H69.418l-5.14,11.467H50.043L36.6,71.337H35.413V90.712H27.9V42.868H38.971a30.522,30.522,0,0,1,5.931.791,13.494,13.494,0,0,1,8.7,5.931,14.165,14.165,0,0,1,1.582,4.349c0,1.186.4,1.977.4,3.163a14.715,14.715,0,0,1-2.768,7.908,10.663,10.663,0,0,1-5.931,4.35c-.4,0-1.186.4-1.582.4.791,1.582,13.049,17.793,13.049,17.793ZM35.413,57.5v7.513h.4a24.333,24.333,0,0,0,7.513-.791,8.611,8.611,0,0,0,3.559-2.768c1.186-1.977.791-3.559.791-5.536a4.881,4.881,0,0,0-1.582-3.163,7.222,7.222,0,0,0-5.931-2.372H35.413C35.413,52.358,35.413,55.126,35.413,57.5Zm44.681-1.582L72.581,72.128h14.63Z" transform="translate(42.043 62.249)" fill="#ed9205"/>
      <path id="Tracé_463" data-name="Tracé 463" d="M51.873,64.62h9.885v5.536a32.942,32.942,0,0,1-1.582,5.931,23.553,23.553,0,0,1-5.536,8.3,21.524,21.524,0,0,1-7.117,4.349,18.167,18.167,0,0,1-9.094,1.186,26.7,26.7,0,0,1-5.536-.791,20.922,20.922,0,0,1-8.3-4.349,27.064,27.064,0,0,1-6.722-8.3,27.455,27.455,0,0,1-1.977-5.14,43.57,43.57,0,0,1-.791-7.117,25.816,25.816,0,0,1,1.977-7.908A27.709,27.709,0,0,1,24.59,46.036a23.147,23.147,0,0,1,6.722-3.954L36.057,40.9a29.928,29.928,0,0,1,5.931-.4A25.528,25.528,0,0,1,49.5,42.082c3.163,1.186,5.931,3.559,8.3,5.931l1.977,1.977-.4.4c-1.582,1.186-2.768,2.768-4.35,3.954l-.4.4-.4-.4a23.86,23.86,0,0,0-3.163-3.163,21.981,21.981,0,0,0-6.722-3.559,21.5,21.5,0,0,0-7.117,0,13.361,13.361,0,0,0-7.513,3.559c-2.372,1.977-4.35,3.954-5.14,6.722-.4,1.186-.791,2.372-1.186,3.954a14.833,14.833,0,0,0-.4,3.954,16.355,16.355,0,0,0,1.977,7.513,21.667,21.667,0,0,0,6.327,7.117A16.23,16.23,0,0,0,41.592,83.2a17.331,17.331,0,0,0,7.513-2.768A11.888,11.888,0,0,0,53.455,74.9a7.449,7.449,0,0,0,.791-3.163v-.791H42.383V64.224A70.083,70.083,0,0,0,51.873,64.62Z" transform="translate(4.67 63.435)" fill="#ed9205"/>
      <path id="Tracé_464" data-name="Tracé 464" d="M59.086,40.8H71.344a38.956,38.956,0,0,1,6.722.791C84,42.777,88.742,46.336,92.3,51.081a22.049,22.049,0,0,1,2.768,6.327,16.817,16.817,0,0,1,.791,4.35c0,1.186.4,2.768,0,3.954a61.383,61.383,0,0,1-1.582,8.3,22.439,22.439,0,0,1-4.745,7.117,22.06,22.06,0,0,1-7.908,5.536,32.944,32.944,0,0,1-5.931,1.582,52.994,52.994,0,0,1-7.908.4H57.9V40.8ZM66.6,81.923h.791a31.019,31.019,0,0,0,8.7-.791A16.209,16.209,0,0,0,87.951,70.851c.791-1.582.791-3.559,1.186-5.14a22.39,22.39,0,0,0-1.186-7.117,17.375,17.375,0,0,0-4.745-7.117c-3.163-2.372-6.722-3.163-10.676-3.559H66.994Z" transform="translate(130.282 64.321)" fill="#ed9205"/>
    </g>
  </g>
</svg>
