<svg xmlns="http://www.w3.org/2000/svg" xmlns:xlink="http://www.w3.org/1999/xlink" width="400" height="400" viewBox="0 0 400 400">
  <defs>
    <linearGradient id="linear-gradient" x1="0.5" y1="1" x2="0.5" gradientUnits="objectBoundingBox">
      <stop offset="0" stop-color="#020459"/>
      <stop offset="1" stop-color="#073bf5"/>
    </linearGradient>
    <clipPath id="clip-Pastille-lille">
      <rect width="400" height="400"/>
    </clipPath>
  </defs>
  <g id="Pastille-lille" clip-path="url(#clip-Pastille-lille)">
    <rect id="Rectangle_35" data-name="Rectangle 35" width="400" height="400" rx="200" fill="url(#linear-gradient)"/>
    <g id="BFM_Grand_Lille" data-name="BFM Grand Lille" transform="translate(76.562 86.021)">
      <g id="Groupe_4" data-name="Groupe 4" transform="translate(0 0)">
        <path id="Tracé_446" data-name="Tracé 446" d="M46.9,73.992H31.019V57.462H47.87c6.481,0,9.4,2.917,9.4,8.1.324,6.806-4.537,8.427-10.369,8.427M31.019,27.968H45.277c5.509,0,9.4,1.621,9.4,6.158,0,5.51-3.564,7.131-9.4,7.131H31.019V27.968ZM212.159,6.9,199.521,58.759H199.2L186.559,6.9H82.866V58.759c-2.592-6.806-8.1-10.372-13.61-12.316,6.481-3.565,10.693-8.427,10.693-17.178,0-9.075-4.861-22.04-28.192-22.04H3.8V94.736H53.7c12.638,0,24.951-6.158,29.164-17.5v17.5h27.219V61.352h24.627v-20.1H109.762V27.968H148V94.736h25.6v-56.4h.324l15.23,56.4h20.091l15.554-56.4h.324v56.4h25.6V6.9Z" transform="translate(-3.8 -6.9)" fill="#fff"/>
      </g>
      <path id="Tracé_447" data-name="Tracé 447" d="M10.2,91.225V54.6H21.544v63.2H44.232v10.372H10.2Z" transform="translate(10.543 99.951)" fill="#ed9205"/>
      <path id="Tracé_448" data-name="Tracé 448" d="M77.559,36.9l21.068,47,.324-47,34.356,35.653V39.817h6.806V90.055L105.757,54.078V87.462H92.144L87.282,76.118h-20.1L62,87.462H48.064L34.775,68.015H33.155V87.462H25.7V40.141H36.4a18.353,18.353,0,0,1,5.834.972,13.547,13.547,0,0,1,8.427,6.158,22.5,22.5,0,0,1,1.621,4.213,11.026,11.026,0,0,1,.324,3.241,15.424,15.424,0,0,1-2.917,8.1,13.067,13.067,0,0,1-5.834,4.538c-.324,0-1.3.324-1.621.324.972,1.3,12.965,17.5,12.965,17.5Zm-44.4,17.178v7.455H33.8c2.593,0,4.862.324,7.455-.972a7.54,7.54,0,0,0,3.565-2.917,8.207,8.207,0,0,0,.648-5.51,4.5,4.5,0,0,0-1.621-3.241A10.559,10.559,0,0,0,37.692,46.3a13.133,13.133,0,0,0-3.565,0h-.972C33.155,48.892,33.155,51.809,33.155,54.078Zm44.08-1.3L69.78,68.988H84.041Z" transform="translate(45.251 60.306)" fill="#ed9205"/>
      <path id="Tracé_449" data-name="Tracé 449" d="M32.6,91.225V54.6H44.268v63.2H66.956v10.372H32.6Z" transform="translate(60.72 99.951)" fill="#ed9205"/>
      <path id="Tracé_450" data-name="Tracé 450" d="M46.2,91.225V54.6H57.868v63.2H80.556v10.372H46.2Z" transform="translate(91.188 99.951)" fill="#ed9205"/>
      <path id="Tracé_451" data-name="Tracé 451" d="M46.789,61.16h9.724v5.834a41.682,41.682,0,0,1-1.3,6.158,23.938,23.938,0,0,1-5.51,8.1,17.4,17.4,0,0,1-7.131,4.214,22.063,22.063,0,0,1-9.075,1.3,16.462,16.462,0,0,1-5.51-.972,17.682,17.682,0,0,1-8.1-4.213,23.372,23.372,0,0,1-6.806-8.1c-.648-1.621-1.3-3.241-1.945-5.186a17.827,17.827,0,0,1-.648-7.131,35.922,35.922,0,0,1,1.621-8.1c1.621-4.214,4.214-7.131,7.455-10.048a23.315,23.315,0,0,1,6.806-3.889,27,27,0,0,1,4.862-1.3,35.228,35.228,0,0,1,5.834-.324,20.587,20.587,0,0,1,7.455,1.621,24.667,24.667,0,0,1,8.427,5.834L54.892,46.9a1.132,1.132,0,0,1-.648.324,51.642,51.642,0,0,0-4.214,4.213l-.324.324-.324-.324A30.557,30.557,0,0,0,46.141,48.2a17.149,17.149,0,0,0-6.806-3.565c-2.269-.648-4.862-.324-7.131-.324a12.447,12.447,0,0,0-7.455,3.565,17.4,17.4,0,0,0-5.186,6.806,18.273,18.273,0,0,0-1.3,3.889,15.78,15.78,0,0,0-.324,3.889,15.056,15.056,0,0,0,1.945,7.455,15.679,15.679,0,0,0,6.158,6.806,19.281,19.281,0,0,0,10.372,2.917,16.36,16.36,0,0,0,7.455-2.917,12.663,12.663,0,0,0,4.538-5.51l.972-2.917v-.972H37.39V60.836A87.994,87.994,0,0,0,46.789,61.16Z" transform="translate(10.904 61.65)" fill="#ed9205"/>
      <path id="Tracé_452" data-name="Tracé 452" d="M62.2,37.8H74.516A39.9,39.9,0,0,1,81,38.448a23.806,23.806,0,0,1,14.261,9.4,23.4,23.4,0,0,1,2.917,6.482,19.129,19.129,0,0,1,.648,4.538,15.78,15.78,0,0,1,.324,3.889,32.674,32.674,0,0,1-1.621,8.1A21.548,21.548,0,0,1,85.212,83.176,39.186,39.186,0,0,1,79.378,84.8a62.456,62.456,0,0,1-7.779.324H62.2V37.8Zm7.455,40.515H70.3a39.825,39.825,0,0,0,8.751-.648,15.313,15.313,0,0,0,6.482-3.241,16.3,16.3,0,0,0,5.186-7.131,14.68,14.68,0,0,0,.972-5.186,17.321,17.321,0,0,0-.972-7.131,13.225,13.225,0,0,0-4.862-6.806c-2.917-2.269-6.806-3.241-10.372-3.565H69.655Z" transform="translate(127.027 62.323)" fill="#ed9205"/>
      <rect id="Rectangle_36" data-name="Rectangle 36" width="11.668" height="73.25" transform="translate(64.484 154.551)" fill="#ed9205"/>
      <path id="Tracé_453" data-name="Tracé 453" d="M59.8,54.6v73.574h42.459V117.8H71.144V93.17h30.143v-10.7L71.144,82.8V64.972h31.115V54.6Z" transform="translate(121.648 99.951)" fill="#ed9205"/>
    </g>
  </g>
</svg>
