<?xml version="1.0" encoding="utf-8"?>
<!-- Generator: Adobe Illustrator 28.3.0, SVG Export Plug-In . SVG Version: 6.00 Build 0)  -->
<svg version="1.1" id="Calque_1" xmlns="http://www.w3.org/2000/svg" xmlns:xlink="http://www.w3.org/1999/xlink" x="0px" y="0px"
	 viewBox="0 0 400 400" style="enable-background:new 0 0 400 400;" xml:space="preserve">
<style type="text/css">
	.st0{fill:url(#Rectangle_35_00000150821759779668072050000000355407491933843858_);}
	.st1{fill:#ED9205;}
	.st2{fill:#FFFFFF;}
</style>
<linearGradient id="Rectangle_35_00000163052026896483471420000014025745103536118160_" gradientUnits="userSpaceOnUse" x1="1.495" y1="400.0038" x2="1.495" y2="401.0038" gradientTransform="matrix(400 0 0 -400 -399 160401)">
	<stop  offset="0" style="stop-color:#020459"/>
	<stop  offset="1" style="stop-color:#073BF5"/>
</linearGradient>
<path id="Rectangle_35" style="fill:url(#Rectangle_35_00000163052026896483471420000014025745103536118160_);" d="M199-0.5L199-0.5
	c110.5,0,200,89.5,200,200l0,0c0,110.5-89.5,200-200,200l0,0C88.5,399.5-1,310-1,199.5l0,0C-1,89,88.5-0.5,199-0.5z"/>
<path class="st1" d="M90.3,219v65.2h21.5V295H79.3v-76H90.3z M134.3,262.1L110.4,219h12.7l16.7,30.4l16.7-30.4h12.7l-23.9,43.1V295
	h-11V262.1z M209.7,217.5c5.1,0,10,1.1,14.7,3.4c4.8,2.2,9,5.4,12.6,9.5c6.7,7.6,10,16.5,10,26.6c0,5.5-1.1,10.8-3.3,15.9
	s-5.3,9.5-9.2,13.2c-7.3,6.9-15.9,10.3-25.7,10.3c-5.4,0-10.7-1.2-15.8-3.6s-9.5-5.7-13.1-9.9c-6.1-7.1-9.2-15.7-9.2-25.9
	c0-11.1,3.9-20.5,11.6-28.2C190,221.3,199,217.5,209.7,217.5z M208.5,228.3c-8.2,0-15,3.3-20.2,10c-4.2,5.4-6.4,11.7-6.4,18.9
	c0,8.1,2.7,14.8,8.1,20.3c5.4,5.4,11.7,8.1,18.9,8.1c3.9,0,7.6-0.9,11.2-2.6c3.6-1.7,6.7-4.2,9.3-7.3c4.3-5.2,6.5-11.5,6.5-18.9
	c0-7.8-2.6-14.6-7.7-20.2C223.1,231.1,216.6,228.3,208.5,228.3z M258.7,295v-81.2l53.1,57.9V219h11v80.7l-53.1-57.9V295H258.7z"/>
<path class="st2" d="M116.3,170.2H99.8v-17.1h17.7c6.7,0,9.9,2.9,9.9,8.3C127.4,168.5,122.2,170.2,116.3,170.2 M99.7,122.2h15
	c5.8,0,9.6,1.7,9.6,6.3c0,5.9-3.7,7.6-9.6,7.6h-15V122.2z M288.3,100.4l-13.1,53.9H275l-13.1-53.9H153.8v53.9
	c-2.7-7-8.3-10.9-14.1-12.9c6.8-3.7,11.3-8.7,11.3-18c0-9.4-5.1-23-29.3-23H71.5V192h52c13.1,0,25.8-6.3,30.3-18.4V192H182v-34.9
	h25.8v-21H182v-13.9h39.7V192h26.7v-58.8h0.3l15.9,58.8h21.1l15.9-58.8h0.3V192h26.7v-91.6H288.3z"/>
</svg>
