<svg xmlns="http://www.w3.org/2000/svg" xmlns:xlink="http://www.w3.org/1999/xlink" width="400" height="400" viewBox="0 0 400 400">
  <defs>
    <linearGradient id="linear-gradient" x1="0.5" y1="1" x2="0.5" gradientUnits="objectBoundingBox">
      <stop offset="0" stop-color="#020459"/>
      <stop offset="1" stop-color="#073bf5"/>
    </linearGradient>
    <clipPath id="clip-Pastille-alsace">
      <rect width="400" height="400"/>
    </clipPath>
  </defs>
  <g id="Pastille-alsace" clip-path="url(#clip-Pastille-alsace)">
    <rect id="Rectangle_35" data-name="Rectangle 35" width="400" height="400" rx="200" fill="url(#linear-gradient)"/>
    <g id="BFM-Alsace" transform="translate(71.97 116.423)">
      <path id="Tracé_545" data-name="Tracé 545" d="M49.8,87.8H33.129V70.785H50.84c6.6,0,9.724,2.778,9.724,8.334C60.911,86.412,55.7,87.8,49.8,87.8M33.129,39.878H48.062c5.9,0,9.724,1.736,9.724,6.251,0,5.9-3.82,7.64-9.724,7.64H33.129V39.878ZM222.044,18l-13.2,53.827H208.5L195.3,18H87.3V71.827c-2.778-6.945-8.334-10.765-14.238-12.849,6.945-3.82,11.46-8.682,11.46-18.058S79.316,18,55.354,18H5v91.679H57.091c13.2,0,25.7-6.251,30.213-18.405v18.405h28.129V74.952h25.7V53.769h-25.7V39.878h39.589v69.8h27.087V50.991h0l15.974,58.689h21.184L235.24,50.991h.347v58.689H261.98V18Z" transform="translate(-5 -18)" fill="#fff"/>
      <g id="Groupe_34" data-name="Groupe 34" transform="translate(1.736 108.348)">
        <path id="Tracé_546" data-name="Tracé 546" d="M43.352,93.3H20.433l-5.9,13.2H5.5L32.587,49.2l25.7,57.3H49.256Zm-3.125-7.64L32.24,67.258,23.905,85.663Z" transform="translate(-5.5 -49.2)" fill="#ed9205"/>
        <path id="Tracé_547" data-name="Tracé 547" d="M30.334,50.1V96.634H46.309v7.64H22V50.1Z" transform="translate(35.3 -46.975)" fill="#ed9205"/>
        <path id="Tracé_548" data-name="Tracé 548" d="M55.693,62.9a7.938,7.938,0,0,0-2.431-3.473,8.763,8.763,0,0,0-5.9-2.084c-4.862,0-7.64,3.125-7.64,6.6,0,1.736.695,4.515,5.9,6.6l5.556,2.084c10.071,4.167,12.849,9.724,12.849,15.974,0,10.418-7.293,17.364-17.364,17.364-6.251,0-10.071-2.431-12.849-5.556A18.555,18.555,0,0,1,29.3,89.983l8.334-1.736a11.185,11.185,0,0,0,2.431,6.945c1.389,2.084,3.82,3.125,6.945,3.125a8.966,8.966,0,0,0,9.029-9.029c0-5.556-4.167-7.64-7.64-9.376l-5.209-2.084c-4.515-1.736-11.113-5.556-11.113-13.891,0-7.293,5.556-14.238,15.974-14.238,5.9,0,9.029,2.084,10.765,3.82a17.9,17.9,0,0,1,4.167,5.556Z" transform="translate(53.35 -47.964)" fill="#ed9205"/>
        <path id="Tracé_549" data-name="Tracé 549" d="M78,93.3H54.733l-5.9,13.2H39.8L66.887,49.2l25.7,57.3H83.556Zm-3.125-7.64L66.887,67.258,58.553,85.663Z" transform="translate(79.314 -49.2)" fill="#ed9205"/>
        <path id="Tracé_550" data-name="Tracé 550" d="M98.014,63.344a19.945,19.945,0,0,0-14.585-5.9c-11.807,0-19.794,8.682-19.794,20.489,0,11.46,8.334,20.142,19.794,20.142,6.6,0,11.46-3.473,14.585-6.251v9.724a28.824,28.824,0,0,1-14.933,4.514,26.56,26.56,0,0,1-19.1-7.64A26.846,26.846,0,0,1,55.3,77.929c0-10.071,4.167-17.016,8.682-21.183C69.538,51.536,76.136,49.8,83.429,49.8a28.666,28.666,0,0,1,14.585,3.82Z" transform="translate(117.641 -47.716)" fill="#ed9205"/>
        <path id="Tracé_551" data-name="Tracé 551" d="M99.865,57.74H78.334V71.631H99.171v7.64H78.334V96.287H99.865v7.64H70V50.1H99.865Z" transform="translate(153.989 -46.975)" fill="#ed9205"/>
      </g>
    </g>
  </g>
</svg>
