<svg width="65" height="65" viewBox="0 0 65 65" fill="none" xmlns="http://www.w3.org/2000/svg">
  <path fill-rule="evenodd" clip-rule="evenodd" d="M32.5 0C50.4492 0 65 14.5508 65 32.5C65 50.4492 50.4492 65 32.5 65C14.5508 65 0 50.4492 0 32.5C0 14.5508 14.5508 0 32.5 0ZM40.8783 20.2031C41.2123 20.2031 41.483 20.4739 41.483 20.8079V44.3181C41.483 44.6521 41.2123 44.9228 40.8783 44.9228H35.511C35.177 44.9228 34.9062 44.6521 34.9062 44.3181V20.8079C34.9062 20.4739 35.177 20.2031 35.511 20.2031H40.8783ZM30.1432 20.8079C30.1432 20.4739 29.8724 20.2031 29.5384 20.2031H24.1712C23.8372 20.2031 23.5664 20.4739 23.5664 20.8079V44.3181C23.5664 44.6521 23.8372 44.9228 24.1712 44.9228H29.5384C29.8724 44.9228 30.1432 44.6521 30.1432 44.3181V20.8079Z" fill="white"/>
</svg>
