<svg width="40" height="42" viewBox="0 0 40 42" fill="none" xmlns="http://www.w3.org/2000/svg">
<path d="M19.9001 8.59998C20.6001 8.59998 21.2001 7.99998 21.2001 7.29998V2.89998C21.2001 2.19998 20.6001 1.59998 19.9001 1.59998C19.2001 1.59998 18.6001 2.19998 18.6001 2.89998V7.19998C18.7001 7.89998 19.2001 8.59998 19.9001 8.59998Z" fill="#FFD406"/>
<path d="M19.9001 40.4C20.6001 40.4 21.2001 39.8 21.2001 39.1V34.8C21.2001 34.1 20.6001 33.5 19.9001 33.5C19.2001 33.5 18.6001 34.1 18.6001 34.8V39.1C18.7001 39.9 19.2001 40.4 19.9001 40.4Z" fill="#FFD406"/>
<path d="M29.5001 12.7C29.8001 12.7 30.1001 12.6 30.4001 12.3L33.3001 9.3C33.8001 8.8 33.8001 8 33.3001 7.5C32.8001 7 32.0001 7 31.5001 7.5L28.6001 10.5C28.1001 11 28.1001 11.8 28.6001 12.3C28.9001 12.6 29.2001 12.7 29.5001 12.7Z" fill="#FFD406"/>
<path d="M7.4 34.9C7.7 34.9 8 34.8 8.3 34.5L11.3 31.4C11.8 30.9 11.8 30.1 11.3 29.6C10.8 29.1 10 29.1 9.5 29.6L6.5 32.7C6 33.2 6 34 6.5 34.5C6.8 34.9 7.1 34.9 7.4 34.9Z" fill="#FFD406"/>
<path d="M33.5 22.3999H37.7999C38.4999 22.3999 39.0999 21.7999 39.0999 21.0999C39.0999 20.3999 38.4999 19.7999 37.7999 19.7999H33.5C32.8 19.7999 32.2 20.3999 32.2 21.0999C32.3 21.7999 32.8 22.3999 33.5 22.3999Z" fill="#FFD406"/>
<path d="M2.10005 22.3999H6.40005C7.10005 22.3999 7.70005 21.7999 7.70005 21.0999C7.70005 20.3999 7.10005 19.7999 6.40005 19.7999H2.10005C1.40005 19.7999 0.800049 20.3999 0.800049 21.0999C0.800049 21.7999 1.40005 22.3999 2.10005 22.3999Z" fill="#FFD406"/>
<path d="M32.4 34.9C32.7 34.9 33 34.8 33.3 34.5C33.8 34 33.8 33.2 33.3 32.7L30.3 29.6C29.8 29.1 29 29.1 28.5 29.6C28 30.1 28 30.9 28.5 31.4L31.5 34.4C31.9 34.9 32.1 34.9 32.4 34.9Z" fill="#FFD406"/>
<path d="M10.4 12.8C10.7 12.8 11 12.7 11.3 12.4C11.8 11.9 11.8 11.1 11.3 10.6L8.3 7.59998C7.8 7.09998 7 7.09998 6.5 7.59998C6 8.09998 6 8.89998 6.5 9.39998L9.5 12.4C9.8 12.6 10.1 12.8 10.4 12.8Z" fill="#FFD406"/>
<path d="M11.4001 21.1C11.4001 25.9 15.2001 29.7 19.9001 29.7C24.6001 29.7 28.4001 25.8 28.4001 21.1C28.4001 16.3 24.6001 12.5 19.9001 12.5C15.2001 12.5 11.4001 16.3 11.4001 21.1Z" fill="#FFD406"/>
</svg>
