<svg width="40" height="42" viewBox="0 0 40 42" fill="none" xmlns="http://www.w3.org/2000/svg">
<path d="M20.1 8.69995C20.8001 8.69995 21.4 8.09995 21.4 7.39995V2.99995C21.4 2.29995 20.8001 1.69995 20.1 1.69995C19.4 1.69995 18.8 2.29995 18.8 2.99995V7.29995C19 7.99995 19.5 8.69995 20.1 8.69995Z" fill="#FFD406"/>
<path d="M20.1 40.5C20.8001 40.5 21.4 39.9 21.4 39.2V34.9C21.4 34.2 20.8001 33.6 20.1 33.6C19.4 33.6 18.8 34.2 18.8 34.9V39.2C19 40 19.5 40.5 20.1 40.5Z" fill="#FFD406"/>
<path d="M29.7999 12.8C30.0999 12.8 30.3999 12.7 30.6999 12.4L33.5999 9.39998C34.0999 8.89998 34.0999 8.09998 33.5999 7.59998C33.1999 7.09998 32.2999 7.09998 31.7999 7.59998L28.8999 10.6C28.3999 11.1 28.3999 11.9 28.8999 12.4C29.0999 12.7 29.4999 12.8 29.7999 12.8Z" fill="#FFD406"/>
<path d="M7.59995 35C7.89995 35 8.19995 34.8999 8.49995 34.5999L11.5 31.5C12 31 12 30.2 11.5 29.7C11 29.2 10.2 29.2 9.69995 29.7L6.69995 32.7999C6.19995 33.2999 6.19995 34.0999 6.69995 34.5999C6.99995 34.9999 7.29995 35 7.59995 35Z" fill="#FFD406"/>
<path d="M33.7999 22.4999H37.9999C38.6999 22.4999 39.2999 21.8999 39.2999 21.1999C39.2999 20.4999 38.6999 19.8999 37.9999 19.8999H33.6999C32.9999 19.8999 32.3999 20.4999 32.3999 21.1999C32.5999 21.8999 33.0999 22.4999 33.7999 22.4999Z" fill="#FFD406"/>
<path d="M2.3 22.4999H6.6C7.3 22.4999 7.9 21.8999 7.9 21.1999C7.9 20.4999 7.3 19.8999 6.6 19.8999H2.3C1.6 19.8999 1 20.4999 1 21.1999C1 21.8999 1.6 22.4999 2.3 22.4999Z" fill="#FFD406"/>
<path d="M32.5999 35C32.8999 35 33.2 34.8999 33.5 34.5999C34 34.0999 34 33.2999 33.5 32.7999L30.5 29.7C30 29.2 29.2 29.2 28.7 29.7C28.2 30.2 28.2 31 28.7 31.5L31.7 34.5C32.1 35 32.2999 35 32.5999 35Z" fill="#FFD406"/>
<path d="M10.6 12.9C10.9 12.9 11.2 12.8 11.5 12.5C12 12 12 11.2 11.5 10.7L8.49995 7.69995C7.99995 7.19995 7.19995 7.19995 6.69995 7.69995C6.19995 8.19995 6.19995 8.99995 6.69995 9.49995L9.69995 12.5C10.1 12.7 10.4 12.9 10.6 12.9Z" fill="#FFD406"/>
<path d="M11.6001 21.2C11.6001 26 15.4001 29.8 20.1001 29.8C24.8001 29.8 28.6001 25.9 28.6001 21.2C28.6001 16.4 24.8001 12.6 20.1001 12.6C15.4001 12.6 11.6001 16.4 11.6001 21.2Z" fill="#FFD406"/>
<path d="M17.3 32.1H8.60005C7.10005 32.1 5.80005 30.8 5.80005 29.3C5.80005 28.6 6.10005 27.9 6.50005 27.4C7.00005 26.9 7.60005 26.5 8.30005 26.5C8.40005 26.5 8.50005 26.5 8.60005 26.5C9.50005 26.5 10.4 27 10.9 27.7C11 27.8 11.2 27.9 11.4 27.9C11.5 27.9 11.6 27.9 11.7 27.8C11.9 27.6 12 27.3 11.8 27C11.1 26 10 25.4 9.00005 25.3C9.50005 23.6 10.9 22.5 12.6 22.5C14.3 22.5 15.8 23.7 16.2 25.4L16.3 25.9H16.8C16.9 25.9 17.1 25.9 17.3 25.9C19 25.9 20.5 27.3 20.5 29.1C20.4 30.7 19 32.1 17.3 32.1Z" fill="#BAC3CC"/>
</svg>
