<svg width="40" height="42" viewBox="0 0 40 42" fill="none" xmlns="http://www.w3.org/2000/svg">
<g clip-path="url(#clip0_833_1723)">
<path d="M32.5001 35.9H16.2001C13.3001 35.9 10.9001 33.5 10.9001 30.6C10.9001 29.3 11.4001 28 12.3001 27C13.2001 26 14.4001 25.4 15.7001 25.3C15.9001 25.3 16.0001 25.3 16.2001 25.3C17.9001 25.3 19.5001 26.1 20.5001 27.5C20.7001 27.8 21.0001 27.9 21.3001 27.9C21.5001 27.9 21.7001 27.8 21.9001 27.7C22.4001 27.4 22.5001 26.7 22.1001 26.3C20.9001 24.6 18.9001 23.5 16.8001 23.3C17.6001 20.2 20.4001 18 23.6001 18C26.8001 18 29.6001 20.2 30.4001 23.4L30.6001 24.3L31.5001 24.2C31.8001 24.2 32.1001 24.1 32.3001 24.1C35.5001 24.1 38.2001 26.8 38.2001 30.1C38.4001 33.2 35.7001 35.9 32.5001 35.9Z" fill="#D5DDDD"/>
<path d="M13.3001 6.09998C12.8001 6.09998 12.4001 6.49998 12.4001 6.99998V9.99998C12.4001 10.5 12.8001 10.9 13.3001 10.9C13.8001 10.9 14.2001 10.5 14.2001 9.99998V6.99998C14.2001 6.39998 13.8001 6.09998 13.3001 6.09998Z" fill="#FFD406"/>
<path d="M21.5 10.0999L19.4 12.1999C19.1 12.5999 19.1 13.0999 19.4 13.4999C19.6 13.6999 19.8 13.7999 20 13.7999C20.2 13.7999 20.5 13.6999 20.6 13.4999L22.7 11.3999C23 11.0999 23 10.4999 22.7 10.0999C22.4 9.69993 21.8 9.69993 21.5 10.0999Z" fill="#FFD406"/>
<path d="M5.99995 25.7L3.79995 27.9C3.49995 28.3 3.49995 28.8 3.79995 29.2C3.99995 29.4 4.19995 29.5 4.39995 29.5C4.59995 29.5 4.89995 29.4 4.99995 29.2L7.09995 27C7.39995 26.6 7.39995 26.1 7.09995 25.7C6.89995 25.4 6.29995 25.4 5.99995 25.7Z" fill="#FFD406"/>
<path d="M4.60005 19.6999C4.60005 19.1999 4.20005 18.7999 3.70005 18.7999H0.700049C0.200049 18.7999 -0.199951 19.1999 -0.199951 19.6999C-0.199951 20.1999 0.200049 20.5999 0.700049 20.5999H3.70005C4.20005 20.5999 4.60005 20.1999 4.60005 19.6999Z" fill="#FFD406"/>
<path d="M5.09995 10.1C4.79995 9.8 4.19995 9.8 3.79995 10.1C3.49995 10.5 3.49995 11 3.79995 11.4L5.89995 13.5C6.09995 13.7 6.29995 13.8 6.49995 13.8C6.69995 13.8 6.99995 13.7 7.09995 13.5C7.39995 13.2 7.39995 12.6 7.09995 12.2L5.09995 10.1Z" fill="#FFD406"/>
<path d="M13.3 13.6C10 13.6 7.30005 16.3 7.30005 19.7C7.30005 22.2 8.80005 24.4 11 25.3C12 24.2 13.3 23.5 14.7 23.2C15.1 21.3 16.1 19.5 17.5 18.2C17.9 17.8 18.3 17.5 18.7 17.2C17.8 15.1 15.7 13.6 13.3 13.6Z" fill="#FFD406"/>
</g>
<defs>
<clipPath id="clip0_833_1723">
<rect width="40" height="42" fill="white"/>
</clipPath>
</defs>
</svg>
