<svg width="40" height="42" viewBox="0 0 40 42" fill="none" xmlns="http://www.w3.org/2000/svg">
<path d="M29.2 31.6H9.89995C6.49995 31.6 3.69995 28.8 3.69995 25.3C3.69995 23.7 4.29995 22.2 5.29995 21C6.39995 19.8 7.79995 19.1 9.29995 19C9.49995 19 9.69995 19 9.89995 19C11.9 19 13.8 20 15 21.6C15.2 21.9 15.6 22.1 16 22.1C16.2 22.1 16.5 22 16.7 21.9C17.2 21.5 17.4 20.7 17 20.2C15.5 18.1 13.2 16.8 10.8 16.6C11.8 12.9 15 10.3 18.9 10.3C22.7 10.3 26.1 12.9 27 16.7L27.2999 17.7L28.4 17.6C28.6999 17.6 29.1 17.5 29.4 17.5C33.1999 17.5 36.4 20.7 36.4 24.6C36.2 28.4 33.1 31.6 29.2 31.6Z" fill="#BAC3CC"/>
</svg>
