<svg width="12" height="12" viewBox="0 0 12 12" fill="none" xmlns="http://www.w3.org/2000/svg">
<path fill-rule="evenodd" clip-rule="evenodd" d="M6 12C9.31373 12 12 9.31373 12 6C12 2.68629 9.31373 0 6 0C2.68629 0 0 2.68629 0 6C0 9.31373 2.68629 12 6 12ZM6 7.125C5.58579 7.125 5.25 6.78921 5.25 6.375V3.375C5.25 2.96079 5.58578 2.625 6 2.625C6.41421 2.625 6.75 2.96079 6.75 3.375V6.375C6.75 6.78921 6.41421 7.125 6 7.125ZM6.75 8.625C6.75 9.03922 6.41421 9.375 6 9.375C5.58579 9.375 5.25 9.03922 5.25 8.625C5.25 8.21078 5.58579 7.875 6 7.875C6.41421 7.875 6.75 8.21078 6.75 8.625Z" fill="white"/>
</svg>
