<svg width="12" height="12" viewBox="0 0 12 12" fill="none" xmlns="http://www.w3.org/2000/svg">
<path fill-rule="evenodd" clip-rule="evenodd" d="M6 12C9.31373 12 12 9.31373 12 6C12 2.68629 9.31373 0 6 0C2.68629 0 0 2.68629 0 6C0 9.31373 2.68629 12 6 12ZM9.6525 4.11979C9.85672 3.75942 9.73013 3.30173 9.36975 3.09752C9.00937 2.89331 8.55173 3.01991 8.3475 3.38028L5.63093 8.17418L3.13903 5.82889C2.83739 5.545 2.36274 5.55938 2.07885 5.86102C1.79497 6.16264 1.80935 6.6373 2.11098 6.92119L4.95068 9.59385C5.48181 10.0937 6.3409 9.96383 6.70049 9.32925L9.6525 4.11979Z" fill="white"/>
</svg>
