<svg width="12" height="12" viewBox="0 0 12 12" fill="none" xmlns="http://www.w3.org/2000/svg">
<path fill-rule="evenodd" clip-rule="evenodd" d="M6 12C9.31373 12 12 9.31373 12 6C12 2.68629 9.31373 0 6 0C2.68629 0 0 2.68629 0 6C0 9.31373 2.68629 12 6 12ZM9.05333 3.21967C9.3462 3.51257 9.3462 3.98743 9.05333 4.28033L7.1972 6.13644L9.0534 7.99268C9.34628 8.28555 9.34628 8.76045 9.0534 9.05333C8.76053 9.3462 8.28562 9.3462 7.99275 9.05333L6.13653 7.1971L4.28033 9.05333C3.98743 9.3462 3.51257 9.3462 3.21967 9.05333C2.92678 8.76038 2.92678 8.28555 3.21967 7.99268L5.07587 6.13644L3.21979 4.28035C2.92689 3.98746 2.92689 3.51258 3.21979 3.21969C3.51268 2.92679 3.98755 2.92679 4.28045 3.21969L6.13653 5.07578L7.99268 3.21967C8.28555 2.92678 8.76038 2.92678 9.05333 3.21967Z" fill="white"/>
</svg>
