<?xml version="1.0" encoding="utf-8"?>
<!-- Generator: Adobe Illustrator 26.1.0, SVG Export Plug-In . SVG Version: 6.00 Build 0)  -->
<svg version="1.1" id="Calque_1" xmlns="http://www.w3.org/2000/svg" xmlns:xlink="http://www.w3.org/1999/xlink" x="0px" y="0px"
	 viewBox="0 0 84 84" style="enable-background:new 0 0 84 84;" xml:space="preserve">
<style type="text/css">
	.st0{fill:none;}
	.st1{fill:#D3D3D3;}
</style>
<path class="st0" d="M0,0h84v84H0V0z"/>
<path class="st1" d="M84,18.1l-0.1-0.6L69.8,20l-1.4,19.7h-0.1l-7.8-18.1l-38,6.4l3.3,19c-1.4-2.3-3.6-3.3-5.8-3.7
	c2.2-1.8,3.5-3.7,2.9-7c-0.6-3.3-3.2-7.7-11.6-6.3L0,31.9V65l17.4-2.9c4.6-0.8,8.7-3.7,9.5-8.3l1.1,6.5l9.9-1.7l-2.1-12.3l9-1.5
	l-1.3-7.4l-9,1.5L33.7,34l13.9-2.4l4.2,24.5l9.4-1.6L57.7,34h0.1L67,53.6l7.4-1.3l2.1-21.6h0.1l3.5,20.6l3.9-0.7V18.1z M4.8,39
	l5.2-0.9c2.1-0.4,3.5,0,3.8,1.6c0.4,2.1-0.9,2.9-3,3.3l-5.2,0.9L4.8,39z M13.6,54.9l-5.9,1l-1-6l6.2-1.1c2.3-0.4,3.6,0.4,3.9,2.3
	C17.4,53.5,15.7,54.6,13.6,54.9z"/>
</svg>
