<svg xmlns="http://www.w3.org/2000/svg" width="20.155" height="20" viewBox="0 0 20.155 20">
  <path id="Tracé_477" data-name="Tracé 477" d="M10.078,0h0A10.078,10.078,0,0,0,0,10.078v6.9A3.024,3.024,0,0,0,3.023,20H4.434a2.217,2.217,0,0,0,2.217-2.217V13.349a2.216,2.216,0,0,0-2.217-2.217H3.225a3.215,3.215,0,0,0-1.209.236v-1.29a8.062,8.062,0,1,1,16.124,0v1.29a3.224,3.224,0,0,0-1.21-.236H15.721A2.217,2.217,0,0,0,13.5,13.349v4.434A2.218,2.218,0,0,0,15.721,20h1.411a3.023,3.023,0,0,0,3.023-3.023v-6.9A10.078,10.078,0,0,0,10.078,0M2.117,14.659A1.209,1.209,0,0,1,3.326,13.45H4.334a.2.2,0,0,1,.2.2v4.233a.2.2,0,0,1-.2.2H3.326a1.209,1.209,0,0,1-1.209-1.209Zm15.922,2.217a1.209,1.209,0,0,1-1.209,1.209H15.822a.2.2,0,0,1-.2-.2V13.651a.2.2,0,0,1,.2-.2H16.83a1.209,1.209,0,0,1,1.209,1.209Z" fill="#fff"/>
</svg>
