<svg xmlns="http://www.w3.org/2000/svg" width="40" height="16.674" viewBox="0 0 40 16.674">
  <path id="RMCBFMPlay" d="M24.067,5.417H22.841v-1.3h1.336c.52,0,.743.223.743.632-.039.558-.4.669-.854.669M22.805,1.813h1.112c.444,0,.707.11.707.482,0,.445-.3.558-.707.558H22.805ZM36.994.178l-.967,4.048h-.038l-1-4.048h-8.1V4.229a1.729,1.729,0,0,0-1.077-.967,1.434,1.434,0,0,0,.853-1.336c0-.707-.369-1.71-2.193-1.71H20.684v6.87h3.9A2.353,2.353,0,0,0,26.85,5.711V7.086h2.122V4.453h1.933v-1.6H28.968V1.813h2.971L31.944,7.1h2.005l-.005-4.432h.036l1.19,4.421h1.6l1.192-4.421h.037V7.087H40V.178ZM5.8,2.1C5.8.2,4.369.2,4.209.2H.835L0,7.1H2.146l.16-2.173a.246.246,0,0,1,.238-.193.228.228,0,0,1,.237.155L3.3,7.105H5.363L4.61,4.429S5.8,4,5.8,2.1m-2.066.506a.827.827,0,0,1-.674.853h-.6L2.625,1.64H3.1c.155-.046.671.187.637.963ZM6.874.237H8.661L9.693,3.57,11.441.237h1.828l-.677,6.869H10.725l.2-2.6-1.272,2.6H9.019l-.8-2.444L7.945,7.106H6.079ZM18.086,2.719H18.4l.873-1.4a.364.364,0,0,0-.119-.387A2.684,2.684,0,0,0,16.973,0a3.546,3.546,0,0,0-3.295,3.259c-.279,1.784.317,3.491,2.021,3.919a2.821,2.821,0,0,0,3.1-1.125c.038-.154.038-.192,0-.27s-.555-1.047-.555-1.047h-.317a.4.4,0,0,0-.2.078,2.3,2.3,0,0,1-.554.467c-.238.232-1.589.193-1.516-1.475.161-1.819,1.469-1.819,1.469-1.819s.41-.086.964.728M13.142,12.3l-4.2,2.626V9.675Zm4.731-1.34a2.464,2.464,0,0,0-.939-.953,2.67,2.67,0,0,0-1.35-.342,2.452,2.452,0,0,0-1.819.74l-.2-.618h-.707V11.33l1.019.637a1.675,1.675,0,0,1,.18-.494,1.512,1.512,0,0,1,.6-.6,1.71,1.71,0,0,1,.854-.215,1.6,1.6,0,0,1,1.182.472,1.679,1.679,0,0,1-2.375,2.375,1.572,1.572,0,0,1-.44-.843l-1.016.636v3.372H13.9v-2.31a2.489,2.489,0,0,0,1.679.607,2.528,2.528,0,0,0,1.881-.757,2.6,2.6,0,0,0,.745-1.9,2.705,2.705,0,0,0-.336-1.352m.9,3.9V8.612l1.046-.648v6.892H18.768Zm6.2-5.073h.809v5.064h-.845l-.1-.618A2.465,2.465,0,0,1,23,14.972a2.56,2.56,0,0,1-1.89-.76A2.652,2.652,0,0,1,23,9.666a2.474,2.474,0,0,1,1.847.751ZM21.89,13.5a1.615,1.615,0,0,0,1.19.471,1.585,1.585,0,0,0,1.182-.471,1.629,1.629,0,0,0,.464-1.19,1.6,1.6,0,0,0-1.539-1.654c-.037,0-.075,0-.113,0a1.7,1.7,0,0,0-.85.215,1.565,1.565,0,0,0-.6.6,1.69,1.69,0,0,0-.216.851A1.612,1.612,0,0,0,21.89,13.5m8.2-3.729h1l-2.861,6.854h-1l.948-2.267L26.336,9.774H27.41l1.313,3.554Z" transform="translate(0 0)" fill="#fff"/>
</svg>
