<svg fill="none" height="9" viewBox="0 0 10 9" width="10" xmlns="http://www.w3.org/2000/svg">
  <g clip-rule="evenodd" fill="#a7a7a7" fill-rule="evenodd">
      <path d="m8.0512 8.15307c0-3.62531-2.94915-6.57539-6.57538-6.57539-.43525 0-.789297-.35312-.789297-.789294.000913-.435252.354047-.788386.790207-.788386 4.49583 0 8.15308 3.65725 8.15308 8.15307 0 .43617-.35314.7893-.7893.7893-.43617 0-.78931-.35313-.78931-.7893z"/>
      <path d="m5.05825 8.15332c0-1.97559-1.60689-3.58246-3.58243-3.58246-.43525 0-.789297-.35315-.789297-.78937 0-.43523.353137-.7893.789297-.7893 2.84605.00091 5.16103 2.31597 5.16103 5.16113 0 .43616-.35313.78918-.7893.78918-.43526 0-.7893-.35302-.7893-.78918z"/>
      <path d="m2.13655 8.90051c-.77744 0-1.407058-.62958-1.407058-1.40704 0-.77741.629618-1.40704 1.407058-1.40704s1.40705.62963 1.40705 1.40704c0 .77746-.62961 1.40704-1.40705 1.40704z"/>
  </g>
</svg>