<svg height="20" viewBox="0 0 38 20" width="38" xmlns="http://www.w3.org/2000/svg"><path d="m28.97333 9.99118c3.04467 0 5.27467 2.05667 5.27467 4.88733 0 2.82999-2.23 4.88667-5.27467 4.88667-3.044 0-5.274-2.05668-5.274-4.88667 0-2.83067 2.23-4.88733 5.274-4.88733zm-9.48466 0c1.82866 0 3.27066.668 4.192 1.86933l-1.98933 1.776c-.54733-.694-1.20199-1.09467-2.04333-1.09467-1.308 0-2.18933.908-2.18933 2.33667 0 1.42866.88133 2.33666 2.18933 2.33666.84133 0 1.49599-.40067 2.04333-1.09467l1.98933 1.77601c-.92134 1.20133-2.36333 1.86867-4.192 1.86867-1.66425 0-3.08265-.61849-4.01697-1.65813l.00165-.00187c-.752-.83733-1.19267-1.94601-1.19267-3.22667h-.00001c0-.47667.06666-.92667.18067-1.35067l-.00532-.00159c.57738-2.13175 2.5262-3.53507 5.03265-3.53507zm-4.01697 8.11587-1.62635 1.84213-1.26267-1.092c-1.14267.73267-2.49134 1.14334-3.99267 1.14334-2.86667 0-4.98267-1.46801-4.98267-3.46401 0-1.50132.73467-2.55932 2.32067-3.44666-.69933-.75067-1.024-1.50134-1.024-2.28667 0-1.91067 1.70733-3.22467 4.3-3.22467 2.37267 0 3.95867 1.17733 3.95867 3.02 0 1.21133-.66467 2.13267-2.06467 2.918l1.26333 1.07466c.204-.46067.35867-.98933.46067-1.55267l1.63401.48775c-.11477.42374-.17535.87626-.17535 1.35226 0 1.28064.4385 2.39119 1.19103 3.22854zm-6.5917-.97321c.46067 0 .92133-.10266 1.348-.29l-2.184-1.87733c-.478.34133-.66467.7-.66467 1.14333 0 .56333.546 1.024 1.50067 1.024zm.342-7.064c-.53 0-.81933.29-.81933.682 0 .29066.11867.51199.59733.956.69933-.37533.938-.7.938-1.024 0-.358-.23867-.614-.716-.614zm7.98934-.51h-3.76667c-.38801-1.496-1.89067-2.43467-4.00467-2.494v-6.852h7.59733v2.37667h-4.49934v1.09467h3.952v2.27h-3.952v1.22866h4.67334zm-11.32267-1.56933c-.56999.412-.97866.94534-1.18866 1.56934h-1.96333v-6.90267h-2.73667v-2.44333h8.62533v2.44333h-2.73667zm31.68533-7.77666v9.346h-3.15134v-3.444h-2.91066v3.444h-3.15133v-9.346h3.15133v3.31133h2.91066v-3.31133zm-6.50401 14.66466c0-1.45533-.93467-2.33667-2.09666-2.33667-1.16133 0-2.096.88133-2.096 2.33667 0 1.45533.93466 2.33666 2.096 2.33666 1.162 0 2.09666-.88133 2.09666-2.33666m-13.01799-9.992c0-2.87 2.20333-4.886 5.208-4.886 1.82933 0 3.27133.66733 4.19267 1.86933l-1.99 1.77533c-.54733-.694-1.20133-1.09467-2.04267-1.09467-1.30867 0-2.19.908-2.19 2.336 0 1.42933.88133 2.33733 2.19 2.33733.84133 0 1.49533-.40067 2.04267-1.09467l1.99 1.776c-.92133 1.20133-2.36333 1.86867-4.19267 1.86867-3.00467 0-5.208-2.016-5.208-4.88734" fill="#fff"/></svg>