<svg enable-background="new 0 0 84 84" viewBox="0 0 84 84" xmlns="http://www.w3.org/2000/svg"><path d="m0 0h84v84h-84z" fill="none"/><path d="m40.6 31.9c0-5.7 4.3-9.6 10.3-9.6 3.6 0 6.4 1.3 8.3 3.7l-3.9 3.5c-1.1-1.4-2.4-2.2-4-2.2-2.6 0-4.3 1.8-4.3 4.6s1.7 4.6 4.3 4.6c1.7 0 2.9-.8 4-2.2l3.9 3.5c-1.8 2.4-4.7 3.7-8.3 3.7-6 .1-10.3-3.9-10.3-9.6z" fill="#fff"/><path d="m79 22.7v18.4h-6.2v-6.8h-5.7v6.8h-6.2v-18.4h6.2v6.5h5.7v-6.5z" fill="#fff"/><path d="m34.1 55.1 2.2 1.9-4.1 4.6-2.5-2.2c-2.3 1.4-4.9 2.3-7.9 2.3-5.6 0-9.8-2.9-9.8-6.8 0-3 1.4-5 4.6-6.8-1.4-1.5-2-3-2-4.5 0-3.8 3.4-6.4 8.5-6.4 4.7 0 7.8 2.3 7.8 5.9 0 2.4-1.3 4.2-4.1 5.7l2.5 2.1c.4-.9.7-1.9.9-3.1l6.1 1.8c-.4 2.1-1.1 3.9-2.2 5.5zm-9 .4-4.3-3.7c-.9.7-1.3 1.4-1.3 2.3 0 1.1 1.1 2 3 2 .9-.1 1.8-.3 2.6-.6zm-3.6-12c0 .6.2 1 1.2 1.9 1.4-.7 1.8-1.4 1.8-2 0-.7-.5-1.2-1.4-1.2-1-.1-1.6.5-1.6 1.3z" fill="#ff007e"/><g fill="#fff"><path d="m16.6 38v-10.5h5.4v-4.8h-17v4.8h5.4v13.6h3.9c.4-1.2 1.2-2.2 2.3-3.1z"/><path d="m38.9 36.5h-9.2v-2.5h7.8v-4.5h-7.8v-2.2h8.9v-4.7h-15v13.5c4.2.1 7.1 2 7.9 4.9h7.4z"/><path d="m33.1 51.6c0-5.7 4.3-9.6 10.3-9.6 3.6 0 6.4 1.3 8.3 3.7l-3.9 3.5c-1.1-1.4-2.4-2.2-4-2.2-2.6 0-4.3 1.8-4.3 4.6s1.7 4.6 4.3 4.6c1.7 0 2.9-.8 4-2.2l3.9 3.5c-1.8 2.4-4.7 3.7-8.3 3.7-5.9 0-10.3-3.9-10.3-9.6z"/><path d="m51.7 51.6c0-5.6 4.4-9.6 10.4-9.6s10.4 4 10.4 9.6-4.4 9.6-10.4 9.6-10.4-4-10.4-9.6zm14.5 0c0-2.9-1.8-4.6-4.1-4.6s-4.1 1.7-4.1 4.6 1.8 4.6 4.1 4.6 4.1-1.7 4.1-4.6z"/></g></svg>