<svg width="178" height="84" viewBox="0 0 178 84" fill="none" xmlns="http://www.w3.org/2000/svg">
<g clip-path="url(#clip0_720_280)">
<path d="M97.3648 46.214L94.6648 56.314H85.4648L78.5648 30.714H78.4648V56.314H66.8648V25.914H49.5648V31.914H60.7648V41.014H49.6648V56.214H37.3648V48.214C35.4648 53.514 29.8648 56.214 24.1648 56.214H1.56484V16.414H23.3648C33.8648 16.414 36.0648 22.314 36.0648 26.414C36.0648 30.414 34.0648 32.614 31.1648 34.214C33.9648 35.114 36.1648 37.114 37.2648 39.814V16.414H84.2648L89.9648 39.814H90.0648L95.7648 16.414H113.265V26.214H114.865V16.414V14.814H94.5648L94.2648 16.014L90.0648 33.414L85.8648 16.014L85.5648 14.814H35.7648V19.914C33.9648 17.214 30.3648 14.814 23.3648 14.814H-0.0351562V57.814H24.1648C28.4648 57.914 32.5648 56.314 35.7648 53.414V57.814H51.1648V42.614H62.3648V30.314H51.1648V27.414H65.2648V57.814H80.0648V42.114L83.9648 56.614L84.2648 57.814H95.8648L96.1648 56.614L97.3648 52.114V46.214ZM35.7648 35.014C35.3648 34.614 34.8648 34.314 34.3648 34.014C34.8648 33.614 35.3648 33.114 35.7648 32.514V35.014Z" fill="white"/>
<path d="M25.8647 42.914C25.8647 40.614 24.4647 39.314 21.5647 39.314H13.8647V46.714H21.0647C23.6647 46.714 25.8647 46.014 25.8647 42.914ZM15.4647 45.214V40.914H21.5647C24.0647 40.914 24.2647 42.014 24.2647 42.914C24.2647 44.114 24.0647 45.114 21.0647 45.114L15.4647 45.214Z" fill="white"/>
<path d="M24.5647 28.6141C24.5647 26.6141 22.8647 25.9141 20.3647 25.9141H13.8647V31.9141H20.3647C22.8647 31.9141 24.5647 31.2141 24.5647 28.6141ZM15.3647 27.4141H20.2647C22.8647 27.4141 22.8647 28.2141 22.8647 28.6141C22.8647 29.5141 22.8647 30.3141 20.2647 30.3141H15.3647V27.4141Z" fill="white"/>
<rect x="111" y="23" width="8" height="9" fill="#1D2232"/>
</g>
<path d="M136.843 37.2613C136.843 31.2954 141.496 27 147.82 27C151.638 27 154.74 28.4318 156.65 30.9375L152.473 34.6364C151.28 33.2045 149.968 32.3693 148.178 32.3693C145.434 32.3693 143.644 34.2784 143.644 37.2613C143.644 40.2443 145.434 42.1534 148.178 42.1534C149.968 42.1534 151.28 41.3182 152.473 39.8863L156.65 43.5852C154.74 46.0909 151.638 47.5227 147.82 47.5227C141.496 47.5227 136.843 43.3466 136.843 37.2613Z" fill="white"/>
<path d="M177.769 27.4771V47.0452H171.206V39.7668H165.121V47.0452H158.559V27.4771H165.121V34.3975H171.206V27.4771H177.769Z" fill="white"/>
<path d="M129.922 61.96L132.309 63.9884L128.013 68.8805L125.388 66.6134C123.002 68.1646 120.138 68.9998 117.036 68.9998C111.07 68.9998 106.536 65.8975 106.536 61.7214C106.536 58.6191 108.087 56.3521 111.428 54.443C109.996 52.8919 109.28 51.3407 109.28 49.6703C109.28 45.6135 112.86 42.8691 118.349 42.8691C123.36 42.8691 126.701 45.3748 126.701 49.193C126.701 51.6987 125.269 53.6078 122.405 55.2782L125.03 57.5453C125.508 56.5907 125.746 55.5169 125.985 54.3237L132.428 56.2328C131.832 58.3805 131.116 60.2896 129.922 61.96ZM120.377 62.318L115.843 58.3805C114.888 59.0964 114.411 59.8123 114.411 60.7668C114.411 61.96 115.604 62.9146 117.513 62.9146C118.587 62.9146 119.542 62.7953 120.377 62.318ZM116.559 49.551C116.559 50.1475 116.797 50.6248 117.752 51.5794C119.184 50.7441 119.661 50.1475 119.661 49.4316C119.661 48.7157 119.184 48.1191 118.11 48.1191C117.155 48.1191 116.559 48.7157 116.559 49.551Z" fill="#FF007E"/>
<path d="M111.309 43.8236V32.6077H117.036V27.4771H98.8999V32.6077H104.627V47.0452H108.803C109.281 45.7327 110.116 44.6588 111.309 43.8236Z" fill="white"/>
<path d="M135.054 42.1532H125.27V39.5282H133.502V34.7554H125.27V32.4884H134.696V27.4771H118.707V41.7952C123.122 41.9145 126.343 43.9429 127.059 47.0452H134.934V42.1532H135.054Z" fill="white"/>
<path d="M128.968 58.2614C128.968 52.2955 133.622 48 139.946 48C143.764 48 146.866 49.4318 148.775 51.9375L144.599 55.6364C143.406 54.2045 142.093 53.3693 140.303 53.3693C137.559 53.3693 135.769 55.2784 135.769 58.2614C135.769 61.2443 137.559 63.1534 140.303 63.1534C142.093 63.1534 143.406 62.3182 144.599 60.8863L148.775 64.5852C146.866 67.0909 143.764 68.5227 139.946 68.5227C133.502 68.5227 128.968 64.2273 128.968 58.2614Z" fill="white"/>
<path d="M148.656 58.2614C148.656 52.2955 153.309 48 159.752 48C166.195 48 170.849 52.2955 170.849 58.2614C170.849 64.2273 166.195 68.5227 159.752 68.5227C153.309 68.5227 148.656 64.2273 148.656 58.2614ZM164.167 58.2614C164.167 55.1591 162.258 53.3693 159.752 53.3693C157.247 53.3693 155.338 55.1591 155.338 58.2614C155.338 61.3636 157.247 63.1534 159.752 63.1534C162.258 63.1534 164.167 61.2443 164.167 58.2614Z" fill="white"/>
<defs>
<clipPath id="clip0_720_280">
<rect width="168" height="84" fill="white"/>
</clipPath>
</defs>
</svg>
