<svg width="17" height="20" viewBox="0 0 17 20" fill="none" xmlns="http://www.w3.org/2000/svg">
<path fill-rule="evenodd" clip-rule="evenodd" d="M14.3511 4.44519C14.0052 4.21715 13.6885 3.94751 13.4073 3.64398C12.7032 2.83813 12.4405 2.0215 12.3434 1.4491C12.2625 0.974527 12.3003 0.667137 12.3049 0.667137H9.09923V13.0637C9.09923 13.2301 9.09923 13.3942 9.09231 13.5568L9.08768 13.6523C9.01912 14.5552 8.50526 15.3657 7.7179 15.8125C7.31344 16.0428 6.85659 16.1638 6.39128 16.163C4.89746 16.163 3.68716 14.945 3.68716 13.4404C3.68716 11.9366 4.89746 10.7186 6.39128 10.7186C6.67402 10.7186 6.95521 10.7633 7.22408 10.8503L7.22794 7.58613C5.57773 7.3735 3.91442 7.85962 2.63941 8.92894C2.08627 9.40889 1.62248 9.98131 1.26656 10.6215C1.13096 10.8549 0.620955 11.7925 0.558554 13.3141C0.520033 14.1777 0.778889 15.0721 0.902929 15.4419C0.980731 15.6592 1.28196 16.4111 1.77348 17.0374C2.16946 17.5397 2.6371 17.9812 3.16175 18.3471C4.71411 19.4018 6.44211 19.3332 6.44211 19.3332C6.74027 19.3209 7.73795 19.3332 8.8712 18.7955C10.1277 18.2007 10.8434 17.3132 10.8434 17.3132C11.3003 16.7832 11.6639 16.1792 11.9181 15.5274C12.2086 14.7647 12.3049 13.8503 12.3049 13.4843V6.90817C12.3442 6.93128 12.8619 7.27411 12.8619 7.27411C12.8619 7.27411 13.6084 7.75253 14.7725 8.06377C15.6076 8.28564 16.7332 8.33188 16.7332 8.33188V5.15011C16.3387 5.19248 15.5383 5.06844 14.7186 4.65937C14.5922 4.59389 14.4697 4.52301 14.3511 4.44519Z" fill="white"/>
</svg>
