<?xml version="1.0" encoding="utf-8"?>
<!-- Generator: Adobe Illustrator 25.3.1, SVG Export Plug-In . SVG Version: 6.00 Build 0)  -->
<svg version="1.1" id="Calque_1" xmlns="http://www.w3.org/2000/svg" xmlns:xlink="http://www.w3.org/1999/xlink" x="0px" y="0px"
	 viewBox="0 0 84 84" style="enable-background:new 0 0 84 84;" xml:space="preserve">
<style type="text/css">
	.st0{fill:none;}
	.st1{fill:#C4C6C6;}
	.st2{fill:url(#SVGID_1_);}
	.st3{fill:url(#SVGID_2_);}
	.st4{fill:url(#SVGID_3_);}
	.st5{opacity:0.5;fill:url(#SVGID_4_);}
</style>
<path class="st0" d="M0,0h84v84H0V0z"/>
<g>
	<path class="st1" d="M52.3,63.8c6.5,0,12.4-2,17-5.3C63.7,67.8,53.6,73.9,42,73.9c-17.6,0-31.9-14.3-31.9-31.9
		c0-17.6,14.3-31.9,31.9-31.9c6.3,0,12.1,1.8,17,4.9c-2.4-0.9-4.8-1.4-6.7-1.4c-14.8,0-27.7,11.2-27.7,25.1
		C24.6,55,37.5,63.8,52.3,63.8z"/>
	<linearGradient id="SVGID_1_" gradientUnits="userSpaceOnUse" x1="8.2404" y1="21.1298" x2="24.8624" y2="31.8852">
		<stop  offset="0" style="stop-color:#FFFFFF"/>
		<stop  offset="1" style="stop-color:#000000"/>
	</linearGradient>
	<path class="st2" d="M42,72.6c-16.9,0-30.6-13.7-30.6-30.6c0-16.9,13.7-30.6,30.6-30.6c2.5,0,5,0.3,7.4,0.9
		C35,13.7,23.3,25.2,23.3,38.7c0,15.6,12,26.5,29.1,26.5c4.3,0,8.3-0.8,12.1-2.3C58.7,69,50.7,72.6,42,72.6z"/>
	<path class="st1" d="M73.9,42C73.9,42,73.9,42,73.9,42c0,3.9-1.8,7.6-4.8,10c-6,4.9-14.5,5.8-20.4,4.1c-19.3-5.4-16.6-27-4.6-33
		c9.3-4.7,16.6-0.6,15.8,5.8c-0.6,5-9.8,10.5-23.1,9.6c24.7,7.9,34.8-6.3,30.5-15.9c0,0,0,0,0,0C71.5,28,73.9,34.7,73.9,42z"/>
	<linearGradient id="SVGID_2_" gradientUnits="userSpaceOnUse" x1="36.1652" y1="39.8616" x2="36.149" y2="39.8557">
		<stop  offset="0" style="stop-color:#EE7CF5"/>
		<stop  offset="1" style="stop-color:#49029D"/>
	</linearGradient>
	<path class="st3" d="M36.2,39.8C36.2,39.9,36.2,39.9,36.2,39.8C36.2,39.9,36.1,39.9,36.2,39.8L36.2,39.8z"/>
	<linearGradient id="SVGID_3_" gradientUnits="userSpaceOnUse" x1="89.7197" y1="50.5091" x2="65.0312" y2="43.4203">
		<stop  offset="0" style="stop-color:#FFFFFF"/>
		<stop  offset="1" style="stop-color:#000000"/>
	</linearGradient>
	<path class="st4" d="M72.6,42L72.6,42c0,3.4-1.6,6.8-4.3,8.9c-3.6,2.9-8.6,4.6-13.6,4.6c-1.9,0-3.8-0.2-5.5-0.7
		c-7.6-2.1-12.3-7.2-13-14c0-0.3-0.1-0.6-0.1-1c4.9,1.6,9.8,2.3,14,2.3c7.8,0,14.1-2.9,17.4-7.9c1.1-1.7,1.8-3.6,2.1-5.6
		C71.5,32.9,72.6,37.4,72.6,42z"/>
	<linearGradient id="SVGID_4_" gradientUnits="userSpaceOnUse" x1="51.0188" y1="36.9725" x2="34.8644" y2="23.6522">
		<stop  offset="0" style="stop-color:#FFFFFF"/>
		<stop  offset="1" style="stop-color:#000000"/>
	</linearGradient>
	<path class="st5" d="M54.9,27.8c1,4.1-5.2,9.8-16.3,10.9C51,39.1,59.4,33.8,60,29c0.8-6.4-6.5-10.5-15.8-5.8
		c-7.1,3.5-10.9,12.5-8.9,20.4C35,21.9,53.7,22.8,54.9,27.8z"/>
</g>
</svg>
